<svg version="1.1" xmlns="http://www.w3.org/2000/svg" xmlns:xlink="http://www.w3.org/1999/xlink" width="622.4326171875" height="417"><defs/><g><text fill="#eeeeee" stroke="none" font-family="Arial" font-size="24px" font-style="normal" font-weight="normal" text-decoration="none" x="0" y="0">UNREGISTERED</text><text fill="#eeeeee" stroke="none" font-family="Arial" font-size="24px" font-style="normal" font-weight="normal" text-decoration="none" x="0" y="30">UNREGISTERED</text><text fill="#eeeeee" stroke="none" font-family="Arial" font-size="24px" font-style="normal" font-weight="normal" text-decoration="none" x="0" y="60">UNREGISTERED</text><text fill="#eeeeee" stroke="none" font-family="Arial" font-size="24px" font-style="normal" font-weight="normal" text-decoration="none" x="0" y="90">UNREGISTERED</text><text fill="#eeeeee" stroke="none" font-family="Arial" font-size="24px" font-style="normal" font-weight="normal" text-decoration="none" x="0" y="120">UNREGISTERED</text><text fill="#eeeeee" stroke="none" font-family="Arial" font-size="24px" font-style="normal" font-weight="normal" text-decoration="none" x="0" y="150">UNREGISTERED</text><text fill="#eeeeee" stroke="none" font-family="Arial" font-size="24px" font-style="normal" font-weight="normal" text-decoration="none" x="0" y="180">UNREGISTERED</text><text fill="#eeeeee" stroke="none" font-family="Arial" font-size="24px" font-style="normal" font-weight="normal" text-decoration="none" x="0" y="210">UNREGISTERED</text><text fill="#eeeeee" stroke="none" font-family="Arial" font-size="24px" font-style="normal" font-weight="normal" text-decoration="none" x="0" y="240">UNREGISTERED</text><text fill="#eeeeee" stroke="none" font-family="Arial" font-size="24px" font-style="normal" font-weight="normal" text-decoration="none" x="0" y="270">UNREGISTERED</text><text fill="#eeeeee" stroke="none" font-family="Arial" font-size="24px" font-style="normal" font-weight="normal" text-decoration="none" x="0" y="300">UNREGISTERED</text><text fill="#eeeeee" stroke="none" font-family="Arial" font-size="24px" font-style="normal" font-weight="normal" text-decoration="none" x="0" y="330">UNREGISTERED</text><text fill="#eeeeee" stroke="none" font-family="Arial" font-size="24px" font-style="normal" font-weight="normal" text-decoration="none" x="0" y="360">UNREGISTERED</text><text fill="#eeeeee" stroke="none" font-family="Arial" font-size="24px" font-style="normal" font-weight="normal" text-decoration="none" x="0" y="390">UNREGISTERED</text><text fill="#eeeeee" stroke="none" font-family="Arial" font-size="24px" font-style="normal" font-weight="normal" text-decoration="none" x="200" y="0">UNREGISTERED</text><text fill="#eeeeee" stroke="none" font-family="Arial" font-size="24px" font-style="normal" font-weight="normal" text-decoration="none" x="200" y="30">UNREGISTERED</text><text fill="#eeeeee" stroke="none" font-family="Arial" font-size="24px" font-style="normal" font-weight="normal" text-decoration="none" x="200" y="60">UNREGISTERED</text><text fill="#eeeeee" stroke="none" font-family="Arial" font-size="24px" font-style="normal" font-weight="normal" text-decoration="none" x="200" y="90">UNREGISTERED</text><text fill="#eeeeee" stroke="none" font-family="Arial" font-size="24px" font-style="normal" font-weight="normal" text-decoration="none" x="200" y="120">UNREGISTERED</text><text fill="#eeeeee" stroke="none" font-family="Arial" font-size="24px" font-style="normal" font-weight="normal" text-decoration="none" x="200" y="150">UNREGISTERED</text><text fill="#eeeeee" stroke="none" font-family="Arial" font-size="24px" font-style="normal" font-weight="normal" text-decoration="none" x="200" y="180">UNREGISTERED</text><text fill="#eeeeee" stroke="none" font-family="Arial" font-size="24px" font-style="normal" font-weight="normal" text-decoration="none" x="200" y="210">UNREGISTERED</text><text fill="#eeeeee" stroke="none" font-family="Arial" font-size="24px" font-style="normal" font-weight="normal" text-decoration="none" x="200" y="240">UNREGISTERED</text><text fill="#eeeeee" stroke="none" font-family="Arial" font-size="24px" font-style="normal" font-weight="normal" text-decoration="none" x="200" y="270">UNREGISTERED</text><text fill="#eeeeee" stroke="none" font-family="Arial" font-size="24px" font-style="normal" font-weight="normal" text-decoration="none" x="200" y="300">UNREGISTERED</text><text fill="#eeeeee" stroke="none" font-family="Arial" font-size="24px" font-style="normal" font-weight="normal" text-decoration="none" x="200" y="330">UNREGISTERED</text><text fill="#eeeeee" stroke="none" font-family="Arial" font-size="24px" font-style="normal" font-weight="normal" text-decoration="none" x="200" y="360">UNREGISTERED</text><text fill="#eeeeee" stroke="none" font-family="Arial" font-size="24px" font-style="normal" font-weight="normal" text-decoration="none" x="200" y="390">UNREGISTERED</text><text fill="#eeeeee" stroke="none" font-family="Arial" font-size="24px" font-style="normal" font-weight="normal" text-decoration="none" x="400" y="0">UNREGISTERED</text><text fill="#eeeeee" stroke="none" font-family="Arial" font-size="24px" font-style="normal" font-weight="normal" text-decoration="none" x="400" y="30">UNREGISTERED</text><text fill="#eeeeee" stroke="none" font-family="Arial" font-size="24px" font-style="normal" font-weight="normal" text-decoration="none" x="400" y="60">UNREGISTERED</text><text fill="#eeeeee" stroke="none" font-family="Arial" font-size="24px" font-style="normal" font-weight="normal" text-decoration="none" x="400" y="90">UNREGISTERED</text><text fill="#eeeeee" stroke="none" font-family="Arial" font-size="24px" font-style="normal" font-weight="normal" text-decoration="none" x="400" y="120">UNREGISTERED</text><text fill="#eeeeee" stroke="none" font-family="Arial" font-size="24px" font-style="normal" font-weight="normal" text-decoration="none" x="400" y="150">UNREGISTERED</text><text fill="#eeeeee" stroke="none" font-family="Arial" font-size="24px" font-style="normal" font-weight="normal" text-decoration="none" x="400" y="180">UNREGISTERED</text><text fill="#eeeeee" stroke="none" font-family="Arial" font-size="24px" font-style="normal" font-weight="normal" text-decoration="none" x="400" y="210">UNREGISTERED</text><text fill="#eeeeee" stroke="none" font-family="Arial" font-size="24px" font-style="normal" font-weight="normal" text-decoration="none" x="400" y="240">UNREGISTERED</text><text fill="#eeeeee" stroke="none" font-family="Arial" font-size="24px" font-style="normal" font-weight="normal" text-decoration="none" x="400" y="270">UNREGISTERED</text><text fill="#eeeeee" stroke="none" font-family="Arial" font-size="24px" font-style="normal" font-weight="normal" text-decoration="none" x="400" y="300">UNREGISTERED</text><text fill="#eeeeee" stroke="none" font-family="Arial" font-size="24px" font-style="normal" font-weight="normal" text-decoration="none" x="400" y="330">UNREGISTERED</text><text fill="#eeeeee" stroke="none" font-family="Arial" font-size="24px" font-style="normal" font-weight="normal" text-decoration="none" x="400" y="360">UNREGISTERED</text><text fill="#eeeeee" stroke="none" font-family="Arial" font-size="24px" font-style="normal" font-weight="normal" text-decoration="none" x="400" y="390">UNREGISTERED</text><text fill="#eeeeee" stroke="none" font-family="Arial" font-size="24px" font-style="normal" font-weight="normal" text-decoration="none" x="600" y="0">UNREGISTERED</text><text fill="#eeeeee" stroke="none" font-family="Arial" font-size="24px" font-style="normal" font-weight="normal" text-decoration="none" x="600" y="30">UNREGISTERED</text><text fill="#eeeeee" stroke="none" font-family="Arial" font-size="24px" font-style="normal" font-weight="normal" text-decoration="none" x="600" y="60">UNREGISTERED</text><text fill="#eeeeee" stroke="none" font-family="Arial" font-size="24px" font-style="normal" font-weight="normal" text-decoration="none" x="600" y="90">UNREGISTERED</text><text fill="#eeeeee" stroke="none" font-family="Arial" font-size="24px" font-style="normal" font-weight="normal" text-decoration="none" x="600" y="120">UNREGISTERED</text><text fill="#eeeeee" stroke="none" font-family="Arial" font-size="24px" font-style="normal" font-weight="normal" text-decoration="none" x="600" y="150">UNREGISTERED</text><text fill="#eeeeee" stroke="none" font-family="Arial" font-size="24px" font-style="normal" font-weight="normal" text-decoration="none" x="600" y="180">UNREGISTERED</text><text fill="#eeeeee" stroke="none" font-family="Arial" font-size="24px" font-style="normal" font-weight="normal" text-decoration="none" x="600" y="210">UNREGISTERED</text><text fill="#eeeeee" stroke="none" font-family="Arial" font-size="24px" font-style="normal" font-weight="normal" text-decoration="none" x="600" y="240">UNREGISTERED</text><text fill="#eeeeee" stroke="none" font-family="Arial" font-size="24px" font-style="normal" font-weight="normal" text-decoration="none" x="600" y="270">UNREGISTERED</text><text fill="#eeeeee" stroke="none" font-family="Arial" font-size="24px" font-style="normal" font-weight="normal" text-decoration="none" x="600" y="300">UNREGISTERED</text><text fill="#eeeeee" stroke="none" font-family="Arial" font-size="24px" font-style="normal" font-weight="normal" text-decoration="none" x="600" y="330">UNREGISTERED</text><text fill="#eeeeee" stroke="none" font-family="Arial" font-size="24px" font-style="normal" font-weight="normal" text-decoration="none" x="600" y="360">UNREGISTERED</text><text fill="#eeeeee" stroke="none" font-family="Arial" font-size="24px" font-style="normal" font-weight="normal" text-decoration="none" x="600" y="390">UNREGISTERED</text><g transform="translate(-78,-86) scale(1,1)"><rect fill="#C0C0C0" stroke="none" x="271" y="103" width="272" height="32" opacity="0.2"/></g><g transform="translate(-78,-86) scale(1,1)"><rect fill="#ffffff" stroke="none" x="264" y="96" width="272" height="32"/></g><g transform="translate(-78,-86) scale(1,1)"><path fill="none" stroke="#000000" d="M 264 96 L 536 96 L 536 128 L 264 128 L 264 96 Z Z" stroke-miterlimit="10"/></g><g transform="translate(-78,-86) scale(1,1)"><g><path fill="none" stroke="none"/><text fill="#000000" stroke="none" font-family="Arial" font-size="13px" font-style="normal" font-weight="normal" text-decoration="none" x="400" y="113.5"></text></g></g><g transform="translate(-78,-86) scale(1,1)"><g><path fill="none" stroke="none"/><text fill="#000000" stroke="none" font-family="Arial" font-size="13px" font-style="normal" font-weight="normal" text-decoration="none" x="400" y="113.5"></text></g></g><g transform="translate(-78,-86) scale(1,1)"><g><path fill="none" stroke="none"/><text fill="#000000" stroke="none" font-family="Arial" font-size="13px" font-style="normal" font-weight="normal" text-decoration="none" x="357.36279296875" y="118.5">Rajdhani Hotel</text></g></g><g transform="translate(-78,-86) scale(1,1)"><g><path fill="none" stroke="none"/><text fill="#000000" stroke="none" font-family="Arial" font-size="13px" font-style="normal" font-weight="normal" text-decoration="none" x="39.5" y="-59.5"></text></g></g><g transform="translate(-78,-86) scale(1,1)"><path fill="#C0C0C0" stroke="none" d="M 321 271 L 445 271 Q 455 271 455 281 L 455 341 Q 455 351 445 351 L 321 351 Q 311 351 311 341 L 311 281 Q 311 271 321 271 Z" opacity="0.2"/></g><g transform="translate(-78,-86) scale(1,1)"><path fill="#ffffff" stroke="none" d="M 314 264 L 438 264 Q 448 264 448 274 L 448 334 Q 448 344 438 344 L 314 344 Q 304 344 304 334 L 304 274 Q 304 264 314 264 Z"/></g><g transform="translate(-78,-86) scale(1,1)"><path fill="none" stroke="#000000" d="M 314 264 L 438 264 Q 448 264 448 274 L 448 334 Q 448 344 438 344 L 314 344 Q 304 344 304 334 L 304 274 Q 304 264 314 264 Z" stroke-miterlimit="10"/></g><g transform="translate(-78,-86) scale(1,1)"><path fill="none" stroke="#000000" d="M 304 287 L 448 287" stroke-miterlimit="10"/></g><g transform="translate(-78,-86) scale(1,1)"><g><path fill="none" stroke="none"/><text fill="#000000" stroke="none" font-family="Arial" font-size="13px" font-style="normal" font-weight="normal" text-decoration="none" x="333.36279296875" y="308.5">Rajdhani Hotel</text></g></g><g transform="translate(-78,-86) scale(1,1)"><g><path fill="none" stroke="none"/><text fill="#000000" stroke="none" font-family="Arial" font-size="13px" font-style="normal" font-weight="normal" text-decoration="none" x="376" y="281.5"></text></g></g><g transform="translate(-78,-86) scale(1,1)"><rect fill="#C0C0C0" stroke="none" x="95" y="239" width="106.4326171875" height="45" opacity="0.2"/></g><g transform="translate(-78,-86) scale(1,1)"><rect fill="#ffffff" stroke="none" x="88" y="232" width="106.4326171875" height="45"/></g><g transform="translate(-78,-86) scale(1,1)"><path fill="none" stroke="#000000" d="M 88 232 L 194.4326171875 232 L 194.4326171875 277 L 88 277 L 88 232 Z Z" stroke-miterlimit="10"/></g><g transform="translate(-78,-86) scale(1,1)"><g><path fill="none" stroke="none"/><text fill="#000000" stroke="none" font-family="Arial" font-size="13px" font-style="normal" font-weight="normal" text-decoration="none" x="141.21630859375" y="249.5"></text></g></g><g transform="translate(-78,-86) scale(1,1)"><g><path fill="none" stroke="none"/><text fill="#000000" stroke="none" font-family="Arial" font-size="13px" font-style="normal" font-weight="normal" text-decoration="none" x="141.21630859375" y="249.5"></text></g></g><g transform="translate(-78,-86) scale(1,1)"><g><path fill="none" stroke="none"/><text fill="#000000" stroke="none" font-family="Arial" font-size="13px" font-style="normal" font-weight="normal" text-decoration="none" x="126.042236328125" y="254.5">Hotel</text><text fill="#000000" stroke="none" font-family="Arial" font-size="13px" font-style="normal" font-weight="normal" text-decoration="none" x="99.312255859375" y="267.5">Addministrator</text></g></g><g transform="translate(-78,-86) scale(1,1)"><g><path fill="none" stroke="none"/><text fill="#000000" stroke="none" font-family="Arial" font-size="13px" font-style="normal" font-weight="normal" text-decoration="none" x="-0.5" y="12.5"></text></g></g><g transform="translate(-78,-86) scale(1,1)"><g><path fill="none" stroke="none"/><text fill="#000000" stroke="none" font-family="Arial" font-size="13px" font-style="normal" font-weight="normal" text-decoration="none" x="365" y="282">0.0</text></g></g><g transform="translate(-78,-86) scale(1,1)"><rect fill="#C0C0C0" stroke="none" x="95" y="359" width="106.4326171875" height="32" opacity="0.2"/></g><g transform="translate(-78,-86) scale(1,1)"><rect fill="#ffffff" stroke="none" x="88" y="352" width="106.4326171875" height="32"/></g><g transform="translate(-78,-86) scale(1,1)"><path fill="none" stroke="#000000" d="M 88 352 L 194.4326171875 352 L 194.4326171875 384 L 88 384 L 88 352 Z Z" stroke-miterlimit="10"/></g><g transform="translate(-78,-86) scale(1,1)"><g><path fill="none" stroke="none"/><text fill="#000000" stroke="none" font-family="Arial" font-size="13px" font-style="normal" font-weight="normal" text-decoration="none" x="141.21630859375" y="369.5"></text></g></g><g transform="translate(-78,-86) scale(1,1)"><g><path fill="none" stroke="none"/><text fill="#000000" stroke="none" font-family="Arial" font-size="13px" font-style="normal" font-weight="normal" text-decoration="none" x="141.21630859375" y="369.5"></text></g></g><g transform="translate(-78,-86) scale(1,1)"><g><path fill="none" stroke="none"/><text fill="#000000" stroke="none" font-family="Arial" font-size="13px" font-style="normal" font-weight="normal" text-decoration="none" x="112.312255859375" y="374.5">Employee</text></g></g><g transform="translate(-78,-86) scale(1,1)"><g><path fill="none" stroke="none"/><text fill="#000000" stroke="none" font-family="Arial" font-size="13px" font-style="normal" font-weight="normal" text-decoration="none" x="-72.5" y="12.5"></text></g></g><g transform="translate(-78,-86) scale(1,1)"><rect fill="#C0C0C0" stroke="none" x="591" y="295" width="106.4326171875" height="32" opacity="0.2"/></g><g transform="translate(-78,-86) scale(1,1)"><rect fill="#ffffff" stroke="none" x="584" y="288" width="106.4326171875" height="32"/></g><g transform="translate(-78,-86) scale(1,1)"><path fill="none" stroke="#000000" d="M 584 288 L 690.4326171875 288 L 690.4326171875 320 L 584 320 L 584 288 Z Z" stroke-miterlimit="10"/></g><g transform="translate(-78,-86) scale(1,1)"><g><path fill="none" stroke="none"/><text fill="#000000" stroke="none" font-family="Arial" font-size="13px" font-style="normal" font-weight="normal" text-decoration="none" x="637.21630859375" y="305.5"></text></g></g><g transform="translate(-78,-86) scale(1,1)"><g><path fill="none" stroke="none"/><text fill="#000000" stroke="none" font-family="Arial" font-size="13px" font-style="normal" font-weight="normal" text-decoration="none" x="637.21630859375" y="305.5"></text></g></g><g transform="translate(-78,-86) scale(1,1)"><g><path fill="none" stroke="none"/><text fill="#000000" stroke="none" font-family="Arial" font-size="13px" font-style="normal" font-weight="normal" text-decoration="none" x="610.486328125" y="310.5">customer</text></g></g><g transform="translate(-78,-86) scale(1,1)"><g><path fill="none" stroke="none"/><text fill="#000000" stroke="none" font-family="Arial" font-size="13px" font-style="normal" font-weight="normal" text-decoration="none" x="-40.5" y="44.5"></text></g></g><g transform="translate(-78,-86) scale(1,1)"><path fill="none" stroke="#000000" d="M 376 264 L 376 184 M 376 184 A 8 8 0 0 0 368 176 L 144 176 M 144 176 A 8 8 0 0 0 136 184 L 136 232" stroke-miterlimit="10"/></g><g transform="translate(-78,-86) scale(1,1)"><path fill="#000000" stroke="none" d="M 131.790482243984 221.83732514237585 L 136 232 L 140.209517756016 221.83732514237585"/></g><g transform="translate(-78,-86) scale(1,1)"><path fill="none" stroke="#000000" d="M 131.790482243984 221.83732514237585 L 136 232 L 140.209517756016 221.83732514237585 L 131.790482243984 221.83732514237585" stroke-miterlimit="10"/></g><g transform="translate(-78,-86) scale(1,1)"><g><path fill="none" stroke="none"/><text fill="#000000" stroke="none" font-family="Arial" font-size="13px" font-style="normal" font-weight="normal" text-decoration="none" x="181.5" y="197.5">Accomodation Infomation</text></g></g><g transform="translate(-78,-86) scale(1,1)"><path fill="none" stroke="#000000" d="M 304 264 L 304 256 M 304 256 A 8 8 0 0 0 296 248 L 194 248" stroke-miterlimit="10"/></g><g transform="translate(-78,-86) scale(1,1)"><path fill="#000000" stroke="none" d="M 204.16267485762415 243.790482243984 L 194 248 L 204.16267485762415 252.209517756016"/></g><g transform="translate(-78,-86) scale(1,1)"><path fill="none" stroke="#000000" d="M 204.16267485762415 243.790482243984 L 194 248 L 204.16267485762415 252.209517756016 L 204.16267485762415 243.790482243984" stroke-miterlimit="10"/></g><g transform="translate(-78,-86) scale(1,1)"><g><path fill="none" stroke="none"/><text fill="#000000" stroke="none" font-family="Arial" font-size="13px" font-style="normal" font-weight="normal" text-decoration="none" x="206.5" y="243.5">Customer Information</text></g></g><g transform="translate(-78,-86) scale(1,1)"><path fill="none" stroke="#000000" d="M 304 344 L 304 408 M 304 408 A 8 8 0 0 1 296 416 L 160 416 M 160 416 A 8 8 0 0 1 152 408 L 152 384" stroke-miterlimit="10"/></g><g transform="translate(-78,-86) scale(1,1)"><path fill="#000000" stroke="none" d="M 156.209517756016 394.16267485762415 L 152 384 L 147.790482243984 394.16267485762415"/></g><g transform="translate(-78,-86) scale(1,1)"><path fill="none" stroke="#000000" d="M 156.209517756016 394.16267485762415 L 152 384 L 147.790482243984 394.16267485762415 L 156.209517756016 394.16267485762415" stroke-miterlimit="10"/></g><g transform="translate(-78,-86) scale(1,1)"><g><path fill="none" stroke="none"/><text fill="#000000" stroke="none" font-family="Arial" font-size="13px" font-style="normal" font-weight="normal" text-decoration="none" x="179.5" y="437.5">List of Customer</text></g></g><g transform="translate(-78,-86) scale(1,1)"><path fill="none" stroke="#000000" d="M 376 344 L 376 464 M 376 464 A 8 8 0 0 1 368 472 L 136 472 M 136 472 A 8 8 0 0 1 128 464 L 128 384" stroke-miterlimit="10"/></g><g transform="translate(-78,-86) scale(1,1)"><path fill="#000000" stroke="none" d="M 132.209517756016 394.16267485762415 L 128 384 L 123.79048224398402 394.16267485762415"/></g><g transform="translate(-78,-86) scale(1,1)"><path fill="none" stroke="#000000" d="M 132.209517756016 394.16267485762415 L 128 384 L 123.79048224398402 394.16267485762415 L 132.209517756016 394.16267485762415" stroke-miterlimit="10"/></g><g transform="translate(-78,-86) scale(1,1)"><g><path fill="none" stroke="none"/><text fill="#000000" stroke="none" font-family="Arial" font-size="13px" font-style="normal" font-weight="normal" text-decoration="none" x="190.5" y="493.5">List of Accomodation</text></g></g><g transform="translate(-78,-86) scale(1,1)"><path fill="none" stroke="#000000" d="M 400 264 L 400 224 M 400 224 A 8 8 0 0 1 408 216 L 624 216 M 624 216 A 8 8 0 0 1 632 224 L 632 288" stroke-miterlimit="10"/></g><g transform="translate(-78,-86) scale(1,1)"><path fill="#000000" stroke="none" d="M 627.790482243984 277.83732514237585 L 632 288 L 636.209517756016 277.83732514237585"/></g><g transform="translate(-78,-86) scale(1,1)"><path fill="none" stroke="#000000" d="M 627.790482243984 277.83732514237585 L 632 288 L 636.209517756016 277.83732514237585 L 627.790482243984 277.83732514237585" stroke-miterlimit="10"/></g><g transform="translate(-78,-86) scale(1,1)"><g><path fill="none" stroke="none"/><text fill="#000000" stroke="none" font-family="Arial" font-size="13px" font-style="normal" font-weight="normal" text-decoration="none" x="442.5" y="207.5">Accomodation Infomation</text></g></g><g transform="translate(-78,-86) scale(1,1)"><path fill="none" stroke="#000000" d="M 584 304 L 448 304" stroke-miterlimit="10"/></g><g transform="translate(-78,-86) scale(1,1)"><path fill="#000000" stroke="none" d="M 458.16267485762415 299.790482243984 L 448 304 L 458.16267485762415 308.209517756016"/></g><g transform="translate(-78,-86) scale(1,1)"><path fill="none" stroke="#000000" d="M 458.16267485762415 299.790482243984 L 448 304 L 458.16267485762415 308.209517756016 L 458.16267485762415 299.790482243984" stroke-miterlimit="10"/></g><g transform="translate(-78,-86) scale(1,1)"><g><path fill="none" stroke="none"/><text fill="#000000" stroke="none" font-family="Arial" font-size="13px" font-style="normal" font-weight="normal" text-decoration="none" x="452.5" y="325.5">Customer Information</text></g></g><g transform="translate(-78,-86) scale(1,1)"><path fill="none" stroke="#000000" d="M 400 344 L 400 376 M 400 376 A 8 8 0 0 0 408 384 L 624 384 M 624 384 A 8 8 0 0 0 632 376 L 632 320" stroke-miterlimit="10"/></g><g transform="translate(-78,-86) scale(1,1)"><path fill="#000000" stroke="none" d="M 636.209517756016 330.16267485762415 L 632 320 L 627.790482243984 330.16267485762415"/></g><g transform="translate(-78,-86) scale(1,1)"><path fill="none" stroke="#000000" d="M 636.209517756016 330.16267485762415 L 632 320 L 627.790482243984 330.16267485762415 L 636.209517756016 330.16267485762415" stroke-miterlimit="10"/></g><g transform="translate(-78,-86) scale(1,1)"><g><path fill="none" stroke="none"/><text fill="#000000" stroke="none" font-family="Arial" font-size="13px" font-style="normal" font-weight="normal" text-decoration="none" x="475.5" y="375.5">Bill Infomation</text></g></g></g></svg>