<svg version="1.1" xmlns="http://www.w3.org/2000/svg" xmlns:xlink="http://www.w3.org/1999/xlink" width="702.4326171875" height="325"><defs/><g><text fill="#eeeeee" stroke="none" font-family="Arial" font-size="24px" font-style="normal" font-weight="normal" text-decoration="none" x="0" y="0">UNREGISTERED</text><text fill="#eeeeee" stroke="none" font-family="Arial" font-size="24px" font-style="normal" font-weight="normal" text-decoration="none" x="0" y="30">UNREGISTERED</text><text fill="#eeeeee" stroke="none" font-family="Arial" font-size="24px" font-style="normal" font-weight="normal" text-decoration="none" x="0" y="60">UNREGISTERED</text><text fill="#eeeeee" stroke="none" font-family="Arial" font-size="24px" font-style="normal" font-weight="normal" text-decoration="none" x="0" y="90">UNREGISTERED</text><text fill="#eeeeee" stroke="none" font-family="Arial" font-size="24px" font-style="normal" font-weight="normal" text-decoration="none" x="0" y="120">UNREGISTERED</text><text fill="#eeeeee" stroke="none" font-family="Arial" font-size="24px" font-style="normal" font-weight="normal" text-decoration="none" x="0" y="150">UNREGISTERED</text><text fill="#eeeeee" stroke="none" font-family="Arial" font-size="24px" font-style="normal" font-weight="normal" text-decoration="none" x="0" y="180">UNREGISTERED</text><text fill="#eeeeee" stroke="none" font-family="Arial" font-size="24px" font-style="normal" font-weight="normal" text-decoration="none" x="0" y="210">UNREGISTERED</text><text fill="#eeeeee" stroke="none" font-family="Arial" font-size="24px" font-style="normal" font-weight="normal" text-decoration="none" x="0" y="240">UNREGISTERED</text><text fill="#eeeeee" stroke="none" font-family="Arial" font-size="24px" font-style="normal" font-weight="normal" text-decoration="none" x="0" y="270">UNREGISTERED</text><text fill="#eeeeee" stroke="none" font-family="Arial" font-size="24px" font-style="normal" font-weight="normal" text-decoration="none" x="0" y="300">UNREGISTERED</text><text fill="#eeeeee" stroke="none" font-family="Arial" font-size="24px" font-style="normal" font-weight="normal" text-decoration="none" x="200" y="0">UNREGISTERED</text><text fill="#eeeeee" stroke="none" font-family="Arial" font-size="24px" font-style="normal" font-weight="normal" text-decoration="none" x="200" y="30">UNREGISTERED</text><text fill="#eeeeee" stroke="none" font-family="Arial" font-size="24px" font-style="normal" font-weight="normal" text-decoration="none" x="200" y="60">UNREGISTERED</text><text fill="#eeeeee" stroke="none" font-family="Arial" font-size="24px" font-style="normal" font-weight="normal" text-decoration="none" x="200" y="90">UNREGISTERED</text><text fill="#eeeeee" stroke="none" font-family="Arial" font-size="24px" font-style="normal" font-weight="normal" text-decoration="none" x="200" y="120">UNREGISTERED</text><text fill="#eeeeee" stroke="none" font-family="Arial" font-size="24px" font-style="normal" font-weight="normal" text-decoration="none" x="200" y="150">UNREGISTERED</text><text fill="#eeeeee" stroke="none" font-family="Arial" font-size="24px" font-style="normal" font-weight="normal" text-decoration="none" x="200" y="180">UNREGISTERED</text><text fill="#eeeeee" stroke="none" font-family="Arial" font-size="24px" font-style="normal" font-weight="normal" text-decoration="none" x="200" y="210">UNREGISTERED</text><text fill="#eeeeee" stroke="none" font-family="Arial" font-size="24px" font-style="normal" font-weight="normal" text-decoration="none" x="200" y="240">UNREGISTERED</text><text fill="#eeeeee" stroke="none" font-family="Arial" font-size="24px" font-style="normal" font-weight="normal" text-decoration="none" x="200" y="270">UNREGISTERED</text><text fill="#eeeeee" stroke="none" font-family="Arial" font-size="24px" font-style="normal" font-weight="normal" text-decoration="none" x="200" y="300">UNREGISTERED</text><text fill="#eeeeee" stroke="none" font-family="Arial" font-size="24px" font-style="normal" font-weight="normal" text-decoration="none" x="400" y="0">UNREGISTERED</text><text fill="#eeeeee" stroke="none" font-family="Arial" font-size="24px" font-style="normal" font-weight="normal" text-decoration="none" x="400" y="30">UNREGISTERED</text><text fill="#eeeeee" stroke="none" font-family="Arial" font-size="24px" font-style="normal" font-weight="normal" text-decoration="none" x="400" y="60">UNREGISTERED</text><text fill="#eeeeee" stroke="none" font-family="Arial" font-size="24px" font-style="normal" font-weight="normal" text-decoration="none" x="400" y="90">UNREGISTERED</text><text fill="#eeeeee" stroke="none" font-family="Arial" font-size="24px" font-style="normal" font-weight="normal" text-decoration="none" x="400" y="120">UNREGISTERED</text><text fill="#eeeeee" stroke="none" font-family="Arial" font-size="24px" font-style="normal" font-weight="normal" text-decoration="none" x="400" y="150">UNREGISTERED</text><text fill="#eeeeee" stroke="none" font-family="Arial" font-size="24px" font-style="normal" font-weight="normal" text-decoration="none" x="400" y="180">UNREGISTERED</text><text fill="#eeeeee" stroke="none" font-family="Arial" font-size="24px" font-style="normal" font-weight="normal" text-decoration="none" x="400" y="210">UNREGISTERED</text><text fill="#eeeeee" stroke="none" font-family="Arial" font-size="24px" font-style="normal" font-weight="normal" text-decoration="none" x="400" y="240">UNREGISTERED</text><text fill="#eeeeee" stroke="none" font-family="Arial" font-size="24px" font-style="normal" font-weight="normal" text-decoration="none" x="400" y="270">UNREGISTERED</text><text fill="#eeeeee" stroke="none" font-family="Arial" font-size="24px" font-style="normal" font-weight="normal" text-decoration="none" x="400" y="300">UNREGISTERED</text><text fill="#eeeeee" stroke="none" font-family="Arial" font-size="24px" font-style="normal" font-weight="normal" text-decoration="none" x="600" y="0">UNREGISTERED</text><text fill="#eeeeee" stroke="none" font-family="Arial" font-size="24px" font-style="normal" font-weight="normal" text-decoration="none" x="600" y="30">UNREGISTERED</text><text fill="#eeeeee" stroke="none" font-family="Arial" font-size="24px" font-style="normal" font-weight="normal" text-decoration="none" x="600" y="60">UNREGISTERED</text><text fill="#eeeeee" stroke="none" font-family="Arial" font-size="24px" font-style="normal" font-weight="normal" text-decoration="none" x="600" y="90">UNREGISTERED</text><text fill="#eeeeee" stroke="none" font-family="Arial" font-size="24px" font-style="normal" font-weight="normal" text-decoration="none" x="600" y="120">UNREGISTERED</text><text fill="#eeeeee" stroke="none" font-family="Arial" font-size="24px" font-style="normal" font-weight="normal" text-decoration="none" x="600" y="150">UNREGISTERED</text><text fill="#eeeeee" stroke="none" font-family="Arial" font-size="24px" font-style="normal" font-weight="normal" text-decoration="none" x="600" y="180">UNREGISTERED</text><text fill="#eeeeee" stroke="none" font-family="Arial" font-size="24px" font-style="normal" font-weight="normal" text-decoration="none" x="600" y="210">UNREGISTERED</text><text fill="#eeeeee" stroke="none" font-family="Arial" font-size="24px" font-style="normal" font-weight="normal" text-decoration="none" x="600" y="240">UNREGISTERED</text><text fill="#eeeeee" stroke="none" font-family="Arial" font-size="24px" font-style="normal" font-weight="normal" text-decoration="none" x="600" y="270">UNREGISTERED</text><text fill="#eeeeee" stroke="none" font-family="Arial" font-size="24px" font-style="normal" font-weight="normal" text-decoration="none" x="600" y="300">UNREGISTERED</text><g transform="translate(-174,-78) scale(1,1)"><path fill="#C0C0C0" stroke="none" d="M 441 183 L 597 183 Q 607 183 607 193 L 607 253 Q 607 263 597 263 L 441 263 Q 431 263 431 253 L 431 193 Q 431 183 441 183 Z" opacity="0.2"/></g><g transform="translate(-174,-78) scale(1,1)"><path fill="#ffffff" stroke="none" d="M 434 176 L 590 176 Q 600 176 600 186 L 600 246 Q 600 256 590 256 L 434 256 Q 424 256 424 246 L 424 186 Q 424 176 434 176 Z"/></g><g transform="translate(-174,-78) scale(1,1)"><path fill="none" stroke="#000000" d="M 434 176 L 590 176 Q 600 176 600 186 L 600 246 Q 600 256 590 256 L 434 256 Q 424 256 424 246 L 424 186 Q 424 176 434 176 Z" stroke-miterlimit="10"/></g><g transform="translate(-174,-78) scale(1,1)"><path fill="none" stroke="#000000" d="M 424 199 L 600 199" stroke-miterlimit="10"/></g><g transform="translate(-174,-78) scale(1,1)"><g><path fill="none" stroke="none"/><text fill="#000000" stroke="none" font-family="Arial" font-size="13px" font-style="normal" font-weight="normal" text-decoration="none" x="457.080078125" y="220.5">Hotel Management</text><text fill="#000000" stroke="none" font-family="Arial" font-size="13px" font-style="normal" font-weight="normal" text-decoration="none" x="490.3291015625" y="233.5">System</text></g></g><g transform="translate(-174,-78) scale(1,1)"><g><path fill="none" stroke="none"/><text fill="#000000" stroke="none" font-family="Arial" font-size="13px" font-style="normal" font-weight="normal" text-decoration="none" x="512" y="193.5"></text></g></g><g transform="translate(-174,-78) scale(1,1)"><g><path fill="none" stroke="none"/><text fill="#000000" stroke="none" font-family="Arial" font-size="13px" font-style="normal" font-weight="normal" text-decoration="none" x="501" y="194">0.0</text></g></g><g transform="translate(-174,-78) scale(1,1)"><rect fill="#C0C0C0" stroke="none" x="191" y="215" width="106.4326171875" height="32" opacity="0.2"/></g><g transform="translate(-174,-78) scale(1,1)"><rect fill="#ffffff" stroke="none" x="184" y="208" width="106.4326171875" height="32"/></g><g transform="translate(-174,-78) scale(1,1)"><path fill="none" stroke="#000000" d="M 184 208 L 290.4326171875 208 L 290.4326171875 240 L 184 240 L 184 208 Z Z" stroke-miterlimit="10"/></g><g transform="translate(-174,-78) scale(1,1)"><g><path fill="none" stroke="none"/><text fill="#000000" stroke="none" font-family="Arial" font-size="13px" font-style="normal" font-weight="normal" text-decoration="none" x="237.21630859375" y="225.5"></text></g></g><g transform="translate(-174,-78) scale(1,1)"><g><path fill="none" stroke="none"/><text fill="#000000" stroke="none" font-family="Arial" font-size="13px" font-style="normal" font-weight="normal" text-decoration="none" x="208.312255859375" y="230.5">Employee</text></g></g><g transform="translate(-174,-78) scale(1,1)"><g><path fill="none" stroke="none"/><text fill="#000000" stroke="none" font-family="Arial" font-size="13px" font-style="normal" font-weight="normal" text-decoration="none" x="-0.5" y="12.5"></text></g></g><g transform="translate(-174,-78) scale(1,1)"><rect fill="#C0C0C0" stroke="none" x="767" y="215" width="106.4326171875" height="32" opacity="0.2"/></g><g transform="translate(-174,-78) scale(1,1)"><rect fill="#ffffff" stroke="none" x="760" y="208" width="106.4326171875" height="32"/></g><g transform="translate(-174,-78) scale(1,1)"><path fill="none" stroke="#000000" d="M 760 208 L 866.4326171875 208 L 866.4326171875 240 L 760 240 L 760 208 Z Z" stroke-miterlimit="10"/></g><g transform="translate(-174,-78) scale(1,1)"><g><path fill="none" stroke="none"/><text fill="#000000" stroke="none" font-family="Arial" font-size="13px" font-style="normal" font-weight="normal" text-decoration="none" x="813.21630859375" y="225.5"></text></g></g><g transform="translate(-174,-78) scale(1,1)"><g><path fill="none" stroke="none"/><text fill="#000000" stroke="none" font-family="Arial" font-size="13px" font-style="normal" font-weight="normal" text-decoration="none" x="787.562255859375" y="230.5">Manager</text></g></g><g transform="translate(-174,-78) scale(1,1)"><g><path fill="none" stroke="none"/><text fill="#000000" stroke="none" font-family="Arial" font-size="13px" font-style="normal" font-weight="normal" text-decoration="none" x="-0.5" y="12.5"></text></g></g><g transform="translate(-174,-78) scale(1,1)"><path fill="none" stroke="#000000" d="M 216 208 L 216 160 M 216 160 A 8 8 0 0 1 224 152 L 416 152 M 416 152 A 8 8 0 0 1 424 160 L 424 176" stroke-miterlimit="10"/></g><g transform="translate(-174,-78) scale(1,1)"><path fill="#000000" stroke="none" d="M 419.790482243984 165.83732514237585 L 424 176 L 428.209517756016 165.83732514237585"/></g><g transform="translate(-174,-78) scale(1,1)"><path fill="none" stroke="#000000" d="M 419.790482243984 165.83732514237585 L 424 176 L 428.209517756016 165.83732514237585 L 419.790482243984 165.83732514237585" stroke-miterlimit="10"/></g><g transform="translate(-174,-78) scale(1,1)"><g><path fill="none" stroke="none"/><text fill="#000000" stroke="none" font-family="Arial" font-size="13px" font-style="normal" font-weight="normal" text-decoration="none" x="304.5" y="143.5">Login</text></g></g><g transform="translate(-174,-78) scale(1,1)"><path fill="none" stroke="#000000" d="M 290 208 L 290 192 M 290 192 A 8 8 0 0 1 298 184 L 424 184" stroke-miterlimit="10"/></g><g transform="translate(-174,-78) scale(1,1)"><path fill="#000000" stroke="none" d="M 413.83732514237585 188.209517756016 L 424 184 L 413.83732514237585 179.790482243984"/></g><g transform="translate(-174,-78) scale(1,1)"><path fill="none" stroke="#000000" d="M 413.83732514237585 188.209517756016 L 424 184 L 413.83732514237585 179.790482243984 L 413.83732514237585 188.209517756016" stroke-miterlimit="10"/></g><g transform="translate(-174,-78) scale(1,1)"><g><path fill="none" stroke="none"/><text fill="#000000" stroke="none" font-family="Arial" font-size="13px" font-style="normal" font-weight="normal" text-decoration="none" x="326.5" y="203.5">View Task</text></g></g><g transform="translate(-174,-78) scale(1,1)"><path fill="none" stroke="#000000" d="M 800 208 L 800 96 M 800 96 A 8 8 0 0 0 792 88 L 552 88 M 552 88 A 8 8 0 0 0 544 96 L 544 176" stroke-miterlimit="10"/></g><g transform="translate(-174,-78) scale(1,1)"><path fill="#000000" stroke="none" d="M 539.790482243984 165.83732514237585 L 544 176 L 548.209517756016 165.83732514237585"/></g><g transform="translate(-174,-78) scale(1,1)"><path fill="none" stroke="#000000" d="M 539.790482243984 165.83732514237585 L 544 176 L 548.209517756016 165.83732514237585 L 539.790482243984 165.83732514237585" stroke-miterlimit="10"/></g><g transform="translate(-174,-78) scale(1,1)"><g><path fill="none" stroke="none"/><text fill="#000000" stroke="none" font-family="Arial" font-size="13px" font-style="normal" font-weight="normal" text-decoration="none" x="638.5" y="109.5">Add Room </text></g></g><g transform="translate(-174,-78) scale(1,1)"><path fill="none" stroke="#000000" d="M 776 208 L 776 136 M 776 136 A 8 8 0 0 0 768 128 L 584 128 M 584 128 A 8 8 0 0 0 576 136 L 576 176" stroke-miterlimit="10"/></g><g transform="translate(-174,-78) scale(1,1)"><path fill="#000000" stroke="none" d="M 571.790482243984 165.83732514237585 L 576 176 L 580.209517756016 165.83732514237585"/></g><g transform="translate(-174,-78) scale(1,1)"><path fill="none" stroke="#000000" d="M 571.790482243984 165.83732514237585 L 576 176 L 580.209517756016 165.83732514237585 L 571.790482243984 165.83732514237585" stroke-miterlimit="10"/></g><g transform="translate(-174,-78) scale(1,1)"><g><path fill="none" stroke="none"/><text fill="#000000" stroke="none" font-family="Arial" font-size="13px" font-style="normal" font-weight="normal" text-decoration="none" x="632.5" y="149.5">Add Employee</text></g></g><g transform="translate(-174,-78) scale(1,1)"><path fill="none" stroke="#000000" d="M 760 208 L 760 168 M 760 168 A 8 8 0 0 0 752 160 L 608 160 M 608 160 A 8 8 0 0 0 600 168 L 600 176" stroke-miterlimit="10"/></g><g transform="translate(-174,-78) scale(1,1)"><path fill="#000000" stroke="none" d="M 595.790482243984 165.83732514237585 L 600 176 L 604.209517756016 165.83732514237585"/></g><g transform="translate(-174,-78) scale(1,1)"><path fill="none" stroke="#000000" d="M 595.790482243984 165.83732514237585 L 600 176 L 604.209517756016 165.83732514237585 L 595.790482243984 165.83732514237585" stroke-miterlimit="10"/></g><g transform="translate(-174,-78) scale(1,1)"><g><path fill="none" stroke="none"/><text fill="#000000" stroke="none" font-family="Arial" font-size="13px" font-style="normal" font-weight="normal" text-decoration="none" x="639.5" y="180.5">Add Drivers</text></g></g><g transform="translate(-174,-78) scale(1,1)"><path fill="none" stroke="#000000" d="M 600 223 L 760 223" stroke-miterlimit="10"/></g><g transform="translate(-174,-78) scale(1,1)"><path fill="#000000" stroke="none" d="M 749.8373251423759 227.209517756016 L 760 223 L 749.8373251423758 218.790482243984"/></g><g transform="translate(-174,-78) scale(1,1)"><path fill="none" stroke="#000000" d="M 749.8373251423759 227.209517756016 L 760 223 L 749.8373251423758 218.790482243984 L 749.8373251423759 227.209517756016" stroke-miterlimit="10"/></g><g transform="translate(-174,-78) scale(1,1)"><g><path fill="none" stroke="none"/><text fill="#000000" stroke="none" font-family="Arial" font-size="13px" font-style="normal" font-weight="normal" text-decoration="none" x="642.6572265625" y="219.5">Display Task</text></g></g><g transform="translate(-174,-78) scale(1,1)"><path fill="none" stroke="#000000" d="M 424 216 L 290 216" stroke-miterlimit="10"/></g><g transform="translate(-174,-78) scale(1,1)"><path fill="#000000" stroke="none" d="M 300.16267485762415 211.790482243984 L 290 216 L 300.16267485762415 220.209517756016"/></g><g transform="translate(-174,-78) scale(1,1)"><path fill="none" stroke="#000000" d="M 300.16267485762415 211.790482243984 L 290 216 L 300.16267485762415 220.209517756016 L 300.16267485762415 211.790482243984" stroke-miterlimit="10"/></g><g transform="translate(-174,-78) scale(1,1)"><g><path fill="none" stroke="none"/><text fill="#000000" stroke="none" font-family="Arial" font-size="13px" font-style="normal" font-weight="normal" text-decoration="none" x="330.6572265625" y="237.5">Display Task</text></g></g><g transform="translate(-174,-78) scale(1,1)"><path fill="none" stroke="#000000" d="M 424 256 L 424 272 L 280 272 L 280 240" stroke-miterlimit="10"/></g><g transform="translate(-174,-78) scale(1,1)"><path fill="#000000" stroke="none" d="M 284.209517756016 250.16267485762415 L 280 240 L 275.790482243984 250.16267485762415"/></g><g transform="translate(-174,-78) scale(1,1)"><path fill="none" stroke="#000000" d="M 284.209517756016 250.16267485762415 L 280 240 L 275.790482243984 250.16267485762415 L 284.209517756016 250.16267485762415" stroke-miterlimit="10"/></g><g transform="translate(-174,-78) scale(1,1)"><g><path fill="none" stroke="none"/><text fill="#000000" stroke="none" font-family="Arial" font-size="13px" font-style="normal" font-weight="normal" text-decoration="none" x="296.5" y="267.5">View Room Details</text></g></g><g transform="translate(-174,-78) scale(1,1)"><path fill="none" stroke="#000000" d="M 264 240 L 264 288 M 264 288 A 8 8 0 0 0 272 296 L 448 296 M 448 296 A 8 8 0 0 0 456 288 L 456 256" stroke-miterlimit="10"/></g><g transform="translate(-174,-78) scale(1,1)"><path fill="#000000" stroke="none" d="M 460.209517756016 266.16267485762415 L 456 256 L 451.790482243984 266.16267485762415"/></g><g transform="translate(-174,-78) scale(1,1)"><path fill="none" stroke="#000000" d="M 460.209517756016 266.16267485762415 L 456 256 L 451.790482243984 266.16267485762415 L 460.209517756016 266.16267485762415" stroke-miterlimit="10"/></g><g transform="translate(-174,-78) scale(1,1)"><g><path fill="none" stroke="none"/><text fill="#000000" stroke="none" font-family="Arial" font-size="13px" font-style="normal" font-weight="normal" text-decoration="none" x="314.641357421875" y="292.5">check-In Room </text></g></g><g transform="translate(-174,-78) scale(1,1)"><path fill="none" stroke="#000000" d="M 248 240 L 248 312 M 248 312 A 8 8 0 0 0 256 320 L 464 320 M 464 320 A 8 8 0 0 0 472 312 L 472 256" stroke-miterlimit="10"/></g><g transform="translate(-174,-78) scale(1,1)"><path fill="#000000" stroke="none" d="M 476.209517756016 266.16267485762415 L 472 256 L 467.790482243984 266.16267485762415"/></g><g transform="translate(-174,-78) scale(1,1)"><path fill="none" stroke="#000000" d="M 476.209517756016 266.16267485762415 L 472 256 L 467.790482243984 266.16267485762415 L 476.209517756016 266.16267485762415" stroke-miterlimit="10"/></g><g transform="translate(-174,-78) scale(1,1)"><g><path fill="none" stroke="none"/><text fill="#000000" stroke="none" font-family="Arial" font-size="13px" font-style="normal" font-weight="normal" text-decoration="none" x="311.5" y="311.5">Check-out Room</text></g></g><g transform="translate(-174,-78) scale(1,1)"><path fill="none" stroke="#000000" d="M 232 240 L 232 336 M 232 336 A 8 8 0 0 0 240 344 L 480 344 M 480 344 A 8 8 0 0 0 488 336 L 488 256" stroke-miterlimit="10"/></g><g transform="translate(-174,-78) scale(1,1)"><path fill="#000000" stroke="none" d="M 492.209517756016 266.16267485762415 L 488 256 L 483.790482243984 266.16267485762415"/></g><g transform="translate(-174,-78) scale(1,1)"><path fill="none" stroke="#000000" d="M 492.209517756016 266.16267485762415 L 488 256 L 483.790482243984 266.16267485762415 L 492.209517756016 266.16267485762415" stroke-miterlimit="10"/></g><g transform="translate(-174,-78) scale(1,1)"><g><path fill="none" stroke="none"/><text fill="#000000" stroke="none" font-family="Arial" font-size="13px" font-style="normal" font-weight="normal" text-decoration="none" x="298.74365234375" y="340.5">AddCustomer Details</text></g></g><g transform="translate(-174,-78) scale(1,1)"><path fill="none" stroke="#000000" d="M 504 256 L 504 360 M 504 360 A 8 8 0 0 1 496 368 L 224 368 M 224 368 A 8 8 0 0 1 216 360 L 216 240" stroke-miterlimit="10"/></g><g transform="translate(-174,-78) scale(1,1)"><path fill="#000000" stroke="none" d="M 220.209517756016 250.16267485762415 L 216 240 L 211.790482243984 250.16267485762415"/></g><g transform="translate(-174,-78) scale(1,1)"><path fill="none" stroke="#000000" d="M 220.209517756016 250.16267485762415 L 216 240 L 211.790482243984 250.16267485762415 L 220.209517756016 250.16267485762415" stroke-miterlimit="10"/></g><g transform="translate(-174,-78) scale(1,1)"><g><path fill="none" stroke="none"/><text fill="#000000" stroke="none" font-family="Arial" font-size="13px" font-style="normal" font-weight="normal" text-decoration="none" x="295.5" y="364.5">view Customer Details</text></g></g><g transform="translate(-174,-78) scale(1,1)"><path fill="none" stroke="#000000" d="M 200 240 L 200 384 M 200 384 A 8 8 0 0 0 208 392 L 512 392 M 512 392 A 8 8 0 0 0 520 384 L 520 256" stroke-miterlimit="10"/></g><g transform="translate(-174,-78) scale(1,1)"><path fill="#000000" stroke="none" d="M 524.209517756016 266.16267485762415 L 520 256 L 515.790482243984 266.16267485762415"/></g><g transform="translate(-174,-78) scale(1,1)"><path fill="none" stroke="#000000" d="M 524.209517756016 266.16267485762415 L 520 256 L 515.790482243984 266.16267485762415 L 524.209517756016 266.16267485762415" stroke-miterlimit="10"/></g><g transform="translate(-174,-78) scale(1,1)"><g><path fill="none" stroke="none"/><text fill="#000000" stroke="none" font-family="Arial" font-size="13px" font-style="normal" font-weight="normal" text-decoration="none" x="319.5" y="387.5">Search Room</text></g></g><g transform="translate(-174,-78) scale(1,1)"><path fill="none" stroke="#000000" d="M 600 256 L 600 272 M 600 272 A 8 8 0 0 0 608 280 L 768 280 M 768 280 A 8 8 0 0 0 776 272 L 776 240" stroke-miterlimit="10"/></g><g transform="translate(-174,-78) scale(1,1)"><path fill="#000000" stroke="none" d="M 780.209517756016 250.16267485762415 L 776 240 L 771.790482243984 250.16267485762415"/></g><g transform="translate(-174,-78) scale(1,1)"><path fill="none" stroke="#000000" d="M 780.209517756016 250.16267485762415 L 776 240 L 771.790482243984 250.16267485762415 L 780.209517756016 250.16267485762415" stroke-miterlimit="10"/></g><g transform="translate(-174,-78) scale(1,1)"><g><path fill="none" stroke="none"/><text fill="#000000" stroke="none" font-family="Arial" font-size="13px" font-style="normal" font-weight="normal" text-decoration="none" x="626.5" y="271.5">Update Room Details</text></g></g><g transform="translate(-174,-78) scale(1,1)"><path fill="none" stroke="#000000" d="M 584 256 L 584 304 M 584 304 A 8 8 0 0 0 592 312 L 784 312 M 784 312 A 8 8 0 0 0 792 304 L 792 240" stroke-miterlimit="10"/></g><g transform="translate(-174,-78) scale(1,1)"><path fill="#000000" stroke="none" d="M 796.209517756016 250.16267485762415 L 792 240 L 787.790482243984 250.16267485762415"/></g><g transform="translate(-174,-78) scale(1,1)"><path fill="none" stroke="#000000" d="M 796.209517756016 250.16267485762415 L 792 240 L 787.790482243984 250.16267485762415 L 796.209517756016 250.16267485762415" stroke-miterlimit="10"/></g><g transform="translate(-174,-78) scale(1,1)"><g><path fill="none" stroke="none"/><text fill="#000000" stroke="none" font-family="Arial" font-size="13px" font-style="normal" font-weight="normal" text-decoration="none" x="614.5" y="303.5">Update Employee Details</text></g></g><g transform="translate(-174,-78) scale(1,1)"><path fill="none" stroke="#000000" d="M 560 256 L 560 336 M 560 336 A 8 8 0 0 0 568 344 L 816 344 M 816 344 A 8 8 0 0 0 824 336 L 824 240" stroke-miterlimit="10"/></g><g transform="translate(-174,-78) scale(1,1)"><path fill="#000000" stroke="none" d="M 828.209517756016 250.16267485762415 L 824 240 L 819.790482243984 250.16267485762415"/></g><g transform="translate(-174,-78) scale(1,1)"><path fill="none" stroke="#000000" d="M 828.209517756016 250.16267485762415 L 824 240 L 819.790482243984 250.16267485762415 L 828.209517756016 250.16267485762415" stroke-miterlimit="10"/></g><g transform="translate(-174,-78) scale(1,1)"><g><path fill="none" stroke="none"/><text fill="#000000" stroke="none" font-family="Arial" font-size="13px" font-style="normal" font-weight="normal" text-decoration="none" x="564.5" y="331.5">view the Room,Employee,Customer Details</text></g></g></g></svg>