<svg version="1.1" xmlns="http://www.w3.org/2000/svg" xmlns:xlink="http://www.w3.org/1999/xlink" width="884" height="593"><defs/><g><text fill="#eeeeee" stroke="none" font-family="Arial" font-size="24px" font-style="normal" font-weight="normal" text-decoration="none" x="0" y="0">UNREGISTERED</text><text fill="#eeeeee" stroke="none" font-family="Arial" font-size="24px" font-style="normal" font-weight="normal" text-decoration="none" x="0" y="30">UNREGISTERED</text><text fill="#eeeeee" stroke="none" font-family="Arial" font-size="24px" font-style="normal" font-weight="normal" text-decoration="none" x="0" y="60">UNREGISTERED</text><text fill="#eeeeee" stroke="none" font-family="Arial" font-size="24px" font-style="normal" font-weight="normal" text-decoration="none" x="0" y="90">UNREGISTERED</text><text fill="#eeeeee" stroke="none" font-family="Arial" font-size="24px" font-style="normal" font-weight="normal" text-decoration="none" x="0" y="120">UNREGISTERED</text><text fill="#eeeeee" stroke="none" font-family="Arial" font-size="24px" font-style="normal" font-weight="normal" text-decoration="none" x="0" y="150">UNREGISTERED</text><text fill="#eeeeee" stroke="none" font-family="Arial" font-size="24px" font-style="normal" font-weight="normal" text-decoration="none" x="0" y="180">UNREGISTERED</text><text fill="#eeeeee" stroke="none" font-family="Arial" font-size="24px" font-style="normal" font-weight="normal" text-decoration="none" x="0" y="210">UNREGISTERED</text><text fill="#eeeeee" stroke="none" font-family="Arial" font-size="24px" font-style="normal" font-weight="normal" text-decoration="none" x="0" y="240">UNREGISTERED</text><text fill="#eeeeee" stroke="none" font-family="Arial" font-size="24px" font-style="normal" font-weight="normal" text-decoration="none" x="0" y="270">UNREGISTERED</text><text fill="#eeeeee" stroke="none" font-family="Arial" font-size="24px" font-style="normal" font-weight="normal" text-decoration="none" x="0" y="300">UNREGISTERED</text><text fill="#eeeeee" stroke="none" font-family="Arial" font-size="24px" font-style="normal" font-weight="normal" text-decoration="none" x="0" y="330">UNREGISTERED</text><text fill="#eeeeee" stroke="none" font-family="Arial" font-size="24px" font-style="normal" font-weight="normal" text-decoration="none" x="0" y="360">UNREGISTERED</text><text fill="#eeeeee" stroke="none" font-family="Arial" font-size="24px" font-style="normal" font-weight="normal" text-decoration="none" x="0" y="390">UNREGISTERED</text><text fill="#eeeeee" stroke="none" font-family="Arial" font-size="24px" font-style="normal" font-weight="normal" text-decoration="none" x="0" y="420">UNREGISTERED</text><text fill="#eeeeee" stroke="none" font-family="Arial" font-size="24px" font-style="normal" font-weight="normal" text-decoration="none" x="0" y="450">UNREGISTERED</text><text fill="#eeeeee" stroke="none" font-family="Arial" font-size="24px" font-style="normal" font-weight="normal" text-decoration="none" x="0" y="480">UNREGISTERED</text><text fill="#eeeeee" stroke="none" font-family="Arial" font-size="24px" font-style="normal" font-weight="normal" text-decoration="none" x="0" y="510">UNREGISTERED</text><text fill="#eeeeee" stroke="none" font-family="Arial" font-size="24px" font-style="normal" font-weight="normal" text-decoration="none" x="0" y="540">UNREGISTERED</text><text fill="#eeeeee" stroke="none" font-family="Arial" font-size="24px" font-style="normal" font-weight="normal" text-decoration="none" x="0" y="570">UNREGISTERED</text><text fill="#eeeeee" stroke="none" font-family="Arial" font-size="24px" font-style="normal" font-weight="normal" text-decoration="none" x="200" y="0">UNREGISTERED</text><text fill="#eeeeee" stroke="none" font-family="Arial" font-size="24px" font-style="normal" font-weight="normal" text-decoration="none" x="200" y="30">UNREGISTERED</text><text fill="#eeeeee" stroke="none" font-family="Arial" font-size="24px" font-style="normal" font-weight="normal" text-decoration="none" x="200" y="60">UNREGISTERED</text><text fill="#eeeeee" stroke="none" font-family="Arial" font-size="24px" font-style="normal" font-weight="normal" text-decoration="none" x="200" y="90">UNREGISTERED</text><text fill="#eeeeee" stroke="none" font-family="Arial" font-size="24px" font-style="normal" font-weight="normal" text-decoration="none" x="200" y="120">UNREGISTERED</text><text fill="#eeeeee" stroke="none" font-family="Arial" font-size="24px" font-style="normal" font-weight="normal" text-decoration="none" x="200" y="150">UNREGISTERED</text><text fill="#eeeeee" stroke="none" font-family="Arial" font-size="24px" font-style="normal" font-weight="normal" text-decoration="none" x="200" y="180">UNREGISTERED</text><text fill="#eeeeee" stroke="none" font-family="Arial" font-size="24px" font-style="normal" font-weight="normal" text-decoration="none" x="200" y="210">UNREGISTERED</text><text fill="#eeeeee" stroke="none" font-family="Arial" font-size="24px" font-style="normal" font-weight="normal" text-decoration="none" x="200" y="240">UNREGISTERED</text><text fill="#eeeeee" stroke="none" font-family="Arial" font-size="24px" font-style="normal" font-weight="normal" text-decoration="none" x="200" y="270">UNREGISTERED</text><text fill="#eeeeee" stroke="none" font-family="Arial" font-size="24px" font-style="normal" font-weight="normal" text-decoration="none" x="200" y="300">UNREGISTERED</text><text fill="#eeeeee" stroke="none" font-family="Arial" font-size="24px" font-style="normal" font-weight="normal" text-decoration="none" x="200" y="330">UNREGISTERED</text><text fill="#eeeeee" stroke="none" font-family="Arial" font-size="24px" font-style="normal" font-weight="normal" text-decoration="none" x="200" y="360">UNREGISTERED</text><text fill="#eeeeee" stroke="none" font-family="Arial" font-size="24px" font-style="normal" font-weight="normal" text-decoration="none" x="200" y="390">UNREGISTERED</text><text fill="#eeeeee" stroke="none" font-family="Arial" font-size="24px" font-style="normal" font-weight="normal" text-decoration="none" x="200" y="420">UNREGISTERED</text><text fill="#eeeeee" stroke="none" font-family="Arial" font-size="24px" font-style="normal" font-weight="normal" text-decoration="none" x="200" y="450">UNREGISTERED</text><text fill="#eeeeee" stroke="none" font-family="Arial" font-size="24px" font-style="normal" font-weight="normal" text-decoration="none" x="200" y="480">UNREGISTERED</text><text fill="#eeeeee" stroke="none" font-family="Arial" font-size="24px" font-style="normal" font-weight="normal" text-decoration="none" x="200" y="510">UNREGISTERED</text><text fill="#eeeeee" stroke="none" font-family="Arial" font-size="24px" font-style="normal" font-weight="normal" text-decoration="none" x="200" y="540">UNREGISTERED</text><text fill="#eeeeee" stroke="none" font-family="Arial" font-size="24px" font-style="normal" font-weight="normal" text-decoration="none" x="200" y="570">UNREGISTERED</text><text fill="#eeeeee" stroke="none" font-family="Arial" font-size="24px" font-style="normal" font-weight="normal" text-decoration="none" x="400" y="0">UNREGISTERED</text><text fill="#eeeeee" stroke="none" font-family="Arial" font-size="24px" font-style="normal" font-weight="normal" text-decoration="none" x="400" y="30">UNREGISTERED</text><text fill="#eeeeee" stroke="none" font-family="Arial" font-size="24px" font-style="normal" font-weight="normal" text-decoration="none" x="400" y="60">UNREGISTERED</text><text fill="#eeeeee" stroke="none" font-family="Arial" font-size="24px" font-style="normal" font-weight="normal" text-decoration="none" x="400" y="90">UNREGISTERED</text><text fill="#eeeeee" stroke="none" font-family="Arial" font-size="24px" font-style="normal" font-weight="normal" text-decoration="none" x="400" y="120">UNREGISTERED</text><text fill="#eeeeee" stroke="none" font-family="Arial" font-size="24px" font-style="normal" font-weight="normal" text-decoration="none" x="400" y="150">UNREGISTERED</text><text fill="#eeeeee" stroke="none" font-family="Arial" font-size="24px" font-style="normal" font-weight="normal" text-decoration="none" x="400" y="180">UNREGISTERED</text><text fill="#eeeeee" stroke="none" font-family="Arial" font-size="24px" font-style="normal" font-weight="normal" text-decoration="none" x="400" y="210">UNREGISTERED</text><text fill="#eeeeee" stroke="none" font-family="Arial" font-size="24px" font-style="normal" font-weight="normal" text-decoration="none" x="400" y="240">UNREGISTERED</text><text fill="#eeeeee" stroke="none" font-family="Arial" font-size="24px" font-style="normal" font-weight="normal" text-decoration="none" x="400" y="270">UNREGISTERED</text><text fill="#eeeeee" stroke="none" font-family="Arial" font-size="24px" font-style="normal" font-weight="normal" text-decoration="none" x="400" y="300">UNREGISTERED</text><text fill="#eeeeee" stroke="none" font-family="Arial" font-size="24px" font-style="normal" font-weight="normal" text-decoration="none" x="400" y="330">UNREGISTERED</text><text fill="#eeeeee" stroke="none" font-family="Arial" font-size="24px" font-style="normal" font-weight="normal" text-decoration="none" x="400" y="360">UNREGISTERED</text><text fill="#eeeeee" stroke="none" font-family="Arial" font-size="24px" font-style="normal" font-weight="normal" text-decoration="none" x="400" y="390">UNREGISTERED</text><text fill="#eeeeee" stroke="none" font-family="Arial" font-size="24px" font-style="normal" font-weight="normal" text-decoration="none" x="400" y="420">UNREGISTERED</text><text fill="#eeeeee" stroke="none" font-family="Arial" font-size="24px" font-style="normal" font-weight="normal" text-decoration="none" x="400" y="450">UNREGISTERED</text><text fill="#eeeeee" stroke="none" font-family="Arial" font-size="24px" font-style="normal" font-weight="normal" text-decoration="none" x="400" y="480">UNREGISTERED</text><text fill="#eeeeee" stroke="none" font-family="Arial" font-size="24px" font-style="normal" font-weight="normal" text-decoration="none" x="400" y="510">UNREGISTERED</text><text fill="#eeeeee" stroke="none" font-family="Arial" font-size="24px" font-style="normal" font-weight="normal" text-decoration="none" x="400" y="540">UNREGISTERED</text><text fill="#eeeeee" stroke="none" font-family="Arial" font-size="24px" font-style="normal" font-weight="normal" text-decoration="none" x="400" y="570">UNREGISTERED</text><text fill="#eeeeee" stroke="none" font-family="Arial" font-size="24px" font-style="normal" font-weight="normal" text-decoration="none" x="600" y="0">UNREGISTERED</text><text fill="#eeeeee" stroke="none" font-family="Arial" font-size="24px" font-style="normal" font-weight="normal" text-decoration="none" x="600" y="30">UNREGISTERED</text><text fill="#eeeeee" stroke="none" font-family="Arial" font-size="24px" font-style="normal" font-weight="normal" text-decoration="none" x="600" y="60">UNREGISTERED</text><text fill="#eeeeee" stroke="none" font-family="Arial" font-size="24px" font-style="normal" font-weight="normal" text-decoration="none" x="600" y="90">UNREGISTERED</text><text fill="#eeeeee" stroke="none" font-family="Arial" font-size="24px" font-style="normal" font-weight="normal" text-decoration="none" x="600" y="120">UNREGISTERED</text><text fill="#eeeeee" stroke="none" font-family="Arial" font-size="24px" font-style="normal" font-weight="normal" text-decoration="none" x="600" y="150">UNREGISTERED</text><text fill="#eeeeee" stroke="none" font-family="Arial" font-size="24px" font-style="normal" font-weight="normal" text-decoration="none" x="600" y="180">UNREGISTERED</text><text fill="#eeeeee" stroke="none" font-family="Arial" font-size="24px" font-style="normal" font-weight="normal" text-decoration="none" x="600" y="210">UNREGISTERED</text><text fill="#eeeeee" stroke="none" font-family="Arial" font-size="24px" font-style="normal" font-weight="normal" text-decoration="none" x="600" y="240">UNREGISTERED</text><text fill="#eeeeee" stroke="none" font-family="Arial" font-size="24px" font-style="normal" font-weight="normal" text-decoration="none" x="600" y="270">UNREGISTERED</text><text fill="#eeeeee" stroke="none" font-family="Arial" font-size="24px" font-style="normal" font-weight="normal" text-decoration="none" x="600" y="300">UNREGISTERED</text><text fill="#eeeeee" stroke="none" font-family="Arial" font-size="24px" font-style="normal" font-weight="normal" text-decoration="none" x="600" y="330">UNREGISTERED</text><text fill="#eeeeee" stroke="none" font-family="Arial" font-size="24px" font-style="normal" font-weight="normal" text-decoration="none" x="600" y="360">UNREGISTERED</text><text fill="#eeeeee" stroke="none" font-family="Arial" font-size="24px" font-style="normal" font-weight="normal" text-decoration="none" x="600" y="390">UNREGISTERED</text><text fill="#eeeeee" stroke="none" font-family="Arial" font-size="24px" font-style="normal" font-weight="normal" text-decoration="none" x="600" y="420">UNREGISTERED</text><text fill="#eeeeee" stroke="none" font-family="Arial" font-size="24px" font-style="normal" font-weight="normal" text-decoration="none" x="600" y="450">UNREGISTERED</text><text fill="#eeeeee" stroke="none" font-family="Arial" font-size="24px" font-style="normal" font-weight="normal" text-decoration="none" x="600" y="480">UNREGISTERED</text><text fill="#eeeeee" stroke="none" font-family="Arial" font-size="24px" font-style="normal" font-weight="normal" text-decoration="none" x="600" y="510">UNREGISTERED</text><text fill="#eeeeee" stroke="none" font-family="Arial" font-size="24px" font-style="normal" font-weight="normal" text-decoration="none" x="600" y="540">UNREGISTERED</text><text fill="#eeeeee" stroke="none" font-family="Arial" font-size="24px" font-style="normal" font-weight="normal" text-decoration="none" x="600" y="570">UNREGISTERED</text><text fill="#eeeeee" stroke="none" font-family="Arial" font-size="24px" font-style="normal" font-weight="normal" text-decoration="none" x="800" y="0">UNREGISTERED</text><text fill="#eeeeee" stroke="none" font-family="Arial" font-size="24px" font-style="normal" font-weight="normal" text-decoration="none" x="800" y="30">UNREGISTERED</text><text fill="#eeeeee" stroke="none" font-family="Arial" font-size="24px" font-style="normal" font-weight="normal" text-decoration="none" x="800" y="60">UNREGISTERED</text><text fill="#eeeeee" stroke="none" font-family="Arial" font-size="24px" font-style="normal" font-weight="normal" text-decoration="none" x="800" y="90">UNREGISTERED</text><text fill="#eeeeee" stroke="none" font-family="Arial" font-size="24px" font-style="normal" font-weight="normal" text-decoration="none" x="800" y="120">UNREGISTERED</text><text fill="#eeeeee" stroke="none" font-family="Arial" font-size="24px" font-style="normal" font-weight="normal" text-decoration="none" x="800" y="150">UNREGISTERED</text><text fill="#eeeeee" stroke="none" font-family="Arial" font-size="24px" font-style="normal" font-weight="normal" text-decoration="none" x="800" y="180">UNREGISTERED</text><text fill="#eeeeee" stroke="none" font-family="Arial" font-size="24px" font-style="normal" font-weight="normal" text-decoration="none" x="800" y="210">UNREGISTERED</text><text fill="#eeeeee" stroke="none" font-family="Arial" font-size="24px" font-style="normal" font-weight="normal" text-decoration="none" x="800" y="240">UNREGISTERED</text><text fill="#eeeeee" stroke="none" font-family="Arial" font-size="24px" font-style="normal" font-weight="normal" text-decoration="none" x="800" y="270">UNREGISTERED</text><text fill="#eeeeee" stroke="none" font-family="Arial" font-size="24px" font-style="normal" font-weight="normal" text-decoration="none" x="800" y="300">UNREGISTERED</text><text fill="#eeeeee" stroke="none" font-family="Arial" font-size="24px" font-style="normal" font-weight="normal" text-decoration="none" x="800" y="330">UNREGISTERED</text><text fill="#eeeeee" stroke="none" font-family="Arial" font-size="24px" font-style="normal" font-weight="normal" text-decoration="none" x="800" y="360">UNREGISTERED</text><text fill="#eeeeee" stroke="none" font-family="Arial" font-size="24px" font-style="normal" font-weight="normal" text-decoration="none" x="800" y="390">UNREGISTERED</text><text fill="#eeeeee" stroke="none" font-family="Arial" font-size="24px" font-style="normal" font-weight="normal" text-decoration="none" x="800" y="420">UNREGISTERED</text><text fill="#eeeeee" stroke="none" font-family="Arial" font-size="24px" font-style="normal" font-weight="normal" text-decoration="none" x="800" y="450">UNREGISTERED</text><text fill="#eeeeee" stroke="none" font-family="Arial" font-size="24px" font-style="normal" font-weight="normal" text-decoration="none" x="800" y="480">UNREGISTERED</text><text fill="#eeeeee" stroke="none" font-family="Arial" font-size="24px" font-style="normal" font-weight="normal" text-decoration="none" x="800" y="510">UNREGISTERED</text><text fill="#eeeeee" stroke="none" font-family="Arial" font-size="24px" font-style="normal" font-weight="normal" text-decoration="none" x="800" y="540">UNREGISTERED</text><text fill="#eeeeee" stroke="none" font-family="Arial" font-size="24px" font-style="normal" font-weight="normal" text-decoration="none" x="800" y="570">UNREGISTERED</text><g transform="translate(-30,-65) scale(1,1)"><path fill="#C0C0C0" stroke="none" d="M 177 455 L 301 455 Q 311 455 311 465 L 311 525 Q 311 535 301 535 L 177 535 Q 167 535 167 525 L 167 465 Q 167 455 177 455 Z" opacity="0.2"/></g><g transform="translate(-30,-65) scale(1,1)"><path fill="#ffffff" stroke="none" d="M 170 448 L 294 448 Q 304 448 304 458 L 304 518 Q 304 528 294 528 L 170 528 Q 160 528 160 518 L 160 458 Q 160 448 170 448 Z"/></g><g transform="translate(-30,-65) scale(1,1)"><path fill="none" stroke="#000000" d="M 170 448 L 294 448 Q 304 448 304 458 L 304 518 Q 304 528 294 528 L 170 528 Q 160 528 160 518 L 160 458 Q 160 448 170 448 Z" stroke-miterlimit="10"/></g><g transform="translate(-30,-65) scale(1,1)"><path fill="none" stroke="#000000" d="M 160 471 L 304 471" stroke-miterlimit="10"/></g><g transform="translate(-30,-65) scale(1,1)"><g><path fill="none" stroke="none"/><text fill="#000000" stroke="none" font-family="Arial" font-size="13px" font-style="normal" font-weight="normal" text-decoration="none" x="180.695068359375" y="492.5">Assing Room and</text><text fill="#000000" stroke="none" font-family="Arial" font-size="13px" font-style="normal" font-weight="normal" text-decoration="none" x="205.273193359375" y="505.5">Faciilities</text></g></g><g transform="translate(-30,-65) scale(1,1)"><g><path fill="none" stroke="none"/><text fill="#000000" stroke="none" font-family="Arial" font-size="13px" font-style="normal" font-weight="normal" text-decoration="none" x="232" y="465.5"></text></g></g><g transform="translate(-30,-65) scale(1,1)"><path fill="#C0C0C0" stroke="none" d="M 185 151 L 301 151 Q 311 151 311 161 L 311 222 Q 311 232 301 232 L 185 232 Q 175 232 175 222 L 175 161 Q 175 151 185 151 Z" opacity="0.2"/></g><g transform="translate(-30,-65) scale(1,1)"><path fill="#ffffff" stroke="none" d="M 178 144 L 294 144 Q 304 144 304 154 L 304 215 Q 304 225 294 225 L 178 225 Q 168 225 168 215 L 168 154 Q 168 144 178 144 Z"/></g><g transform="translate(-30,-65) scale(1,1)"><path fill="none" stroke="#000000" d="M 178 144 L 294 144 Q 304 144 304 154 L 304 215 Q 304 225 294 225 L 178 225 Q 168 225 168 215 L 168 154 Q 168 144 178 144 Z" stroke-miterlimit="10"/></g><g transform="translate(-30,-65) scale(1,1)"><path fill="none" stroke="#000000" d="M 168 167 L 304 167" stroke-miterlimit="10"/></g><g transform="translate(-30,-65) scale(1,1)"><g><path fill="none" stroke="none"/><text fill="#000000" stroke="none" font-family="Arial" font-size="13px" font-style="normal" font-weight="normal" text-decoration="none" x="182.530517578125" y="188.5">Manage Customer</text><text fill="#000000" stroke="none" font-family="Arial" font-size="13px" font-style="normal" font-weight="normal" text-decoration="none" x="203.484130859375" y="201.5">Information</text></g></g><g transform="translate(-30,-65) scale(1,1)"><g><path fill="none" stroke="none"/><text fill="#000000" stroke="none" font-family="Arial" font-size="13px" font-style="normal" font-weight="normal" text-decoration="none" x="236" y="161.5"></text></g></g><g transform="translate(-30,-65) scale(1,1)"><path fill="#C0C0C0" stroke="none" d="M 721 455 L 845 455 Q 855 455 855 465 L 855 525 Q 855 535 845 535 L 721 535 Q 711 535 711 525 L 711 465 Q 711 455 721 455 Z" opacity="0.2"/></g><g transform="translate(-30,-65) scale(1,1)"><path fill="#ffffff" stroke="none" d="M 714 448 L 838 448 Q 848 448 848 458 L 848 518 Q 848 528 838 528 L 714 528 Q 704 528 704 518 L 704 458 Q 704 448 714 448 Z"/></g><g transform="translate(-30,-65) scale(1,1)"><path fill="none" stroke="#000000" d="M 714 448 L 838 448 Q 848 448 848 458 L 848 518 Q 848 528 838 528 L 714 528 Q 704 528 704 518 L 704 458 Q 704 448 714 448 Z" stroke-miterlimit="10"/></g><g transform="translate(-30,-65) scale(1,1)"><path fill="none" stroke="#000000" d="M 704 471 L 848 471" stroke-miterlimit="10"/></g><g transform="translate(-30,-65) scale(1,1)"><g><path fill="none" stroke="none"/><text fill="#000000" stroke="none" font-family="Arial" font-size="13px" font-style="normal" font-weight="normal" text-decoration="none" x="750.345947265625" y="492.5">Manager</text></g></g><g transform="translate(-30,-65) scale(1,1)"><g><path fill="none" stroke="none"/><text fill="#000000" stroke="none" font-family="Arial" font-size="13px" font-style="normal" font-weight="normal" text-decoration="none" x="776" y="465.5"></text></g></g><g transform="translate(-30,-65) scale(1,1)"><rect fill="#C0C0C0" stroke="none" x="447" y="215" width="120" height="45" opacity="0.2"/></g><g transform="translate(-30,-65) scale(1,1)"><rect fill="#ffffff" stroke="none" x="440" y="208" width="120" height="45"/></g><g transform="translate(-30,-65) scale(1,1)"><path fill="none" stroke="#000000" d="M 440 208 L 440 253" stroke-miterlimit="10"/></g><g transform="translate(-30,-65) scale(1,1)"><path fill="none" stroke="#000000" d="M 440 208 L 560 208" stroke-miterlimit="10"/></g><g transform="translate(-30,-65) scale(1,1)"><path fill="none" stroke="#000000" d="M 440 253 L 560 253" stroke-miterlimit="10"/></g><g transform="translate(-30,-65) scale(1,1)"><path fill="none" stroke="#000000" d="M 450 208 L 450 253" stroke-miterlimit="10"/></g><g transform="translate(-30,-65) scale(1,1)"><g><path fill="none" stroke="none"/><text fill="#000000" stroke="none" font-family="Arial" font-size="13px" font-style="normal" font-weight="normal" text-decoration="none" x="476.825927734375" y="230.5">Customer</text><text fill="#000000" stroke="none" font-family="Arial" font-size="13px" font-style="normal" font-weight="normal" text-decoration="none" x="480.425048828125" y="243.5">Databae</text></g></g><g transform="translate(-30,-65) scale(1,1)"><g><path fill="none" stroke="none"/><text fill="#000000" stroke="none" font-family="Arial" font-size="13px" font-style="normal" font-weight="normal" text-decoration="none" x="444.5" y="230.5"></text></g></g><g transform="translate(-30,-65) scale(1,1)"><rect fill="#C0C0C0" stroke="none" x="447" y="311" width="120" height="45" opacity="0.2"/></g><g transform="translate(-30,-65) scale(1,1)"><rect fill="#ffffff" stroke="none" x="440" y="304" width="120" height="45"/></g><g transform="translate(-30,-65) scale(1,1)"><path fill="none" stroke="#000000" d="M 440 304 L 440 349" stroke-miterlimit="10"/></g><g transform="translate(-30,-65) scale(1,1)"><path fill="none" stroke="#000000" d="M 440 304 L 560 304" stroke-miterlimit="10"/></g><g transform="translate(-30,-65) scale(1,1)"><path fill="none" stroke="#000000" d="M 440 349 L 560 349" stroke-miterlimit="10"/></g><g transform="translate(-30,-65) scale(1,1)"><path fill="none" stroke="#000000" d="M 450 304 L 450 349" stroke-miterlimit="10"/></g><g transform="translate(-30,-65) scale(1,1)"><g><path fill="none" stroke="none"/><text fill="#000000" stroke="none" font-family="Arial" font-size="13px" font-style="normal" font-weight="normal" text-decoration="none" x="470.31640625" y="326.5">Reservation</text><text fill="#000000" stroke="none" font-family="Arial" font-size="13px" font-style="normal" font-weight="normal" text-decoration="none" x="478.254150390625" y="339.5">database</text></g></g><g transform="translate(-30,-65) scale(1,1)"><g><path fill="none" stroke="none"/><text fill="#000000" stroke="none" font-family="Arial" font-size="13px" font-style="normal" font-weight="normal" text-decoration="none" x="444.5" y="326.5"></text></g></g><g transform="translate(-30,-65) scale(1,1)"><rect fill="#C0C0C0" stroke="none" x="447" y="407" width="120" height="48" opacity="0.2"/></g><g transform="translate(-30,-65) scale(1,1)"><rect fill="#ffffff" stroke="none" x="440" y="400" width="120" height="48"/></g><g transform="translate(-30,-65) scale(1,1)"><path fill="none" stroke="#000000" d="M 440 400 L 440 448" stroke-miterlimit="10"/></g><g transform="translate(-30,-65) scale(1,1)"><path fill="none" stroke="#000000" d="M 440 400 L 560 400" stroke-miterlimit="10"/></g><g transform="translate(-30,-65) scale(1,1)"><path fill="none" stroke="#000000" d="M 440 448 L 560 448" stroke-miterlimit="10"/></g><g transform="translate(-30,-65) scale(1,1)"><path fill="none" stroke="#000000" d="M 450 400 L 450 448" stroke-miterlimit="10"/></g><g transform="translate(-30,-65) scale(1,1)"><g><path fill="none" stroke="none"/><text fill="#000000" stroke="none" font-family="Arial" font-size="13px" font-style="normal" font-weight="normal" text-decoration="none" x="476.095947265625" y="422.5">Employee</text><text fill="#000000" stroke="none" font-family="Arial" font-size="13px" font-style="normal" font-weight="normal" text-decoration="none" x="477.175048828125" y="435.5">Database</text></g></g><g transform="translate(-30,-65) scale(1,1)"><g><path fill="none" stroke="none"/><text fill="#000000" stroke="none" font-family="Arial" font-size="13px" font-style="normal" font-weight="normal" text-decoration="none" x="444.5" y="422.5"></text></g></g><g transform="translate(-30,-65) scale(1,1)"><rect fill="#C0C0C0" stroke="none" x="447" y="503" width="120" height="45" opacity="0.2"/></g><g transform="translate(-30,-65) scale(1,1)"><rect fill="#ffffff" stroke="none" x="440" y="496" width="120" height="45"/></g><g transform="translate(-30,-65) scale(1,1)"><path fill="none" stroke="#000000" d="M 440 496 L 440 541" stroke-miterlimit="10"/></g><g transform="translate(-30,-65) scale(1,1)"><path fill="none" stroke="#000000" d="M 440 496 L 560 496" stroke-miterlimit="10"/></g><g transform="translate(-30,-65) scale(1,1)"><path fill="none" stroke="#000000" d="M 440 541 L 560 541" stroke-miterlimit="10"/></g><g transform="translate(-30,-65) scale(1,1)"><path fill="none" stroke="#000000" d="M 450 496 L 450 541" stroke-miterlimit="10"/></g><g transform="translate(-30,-65) scale(1,1)"><g><path fill="none" stroke="none"/><text fill="#000000" stroke="none" font-family="Arial" font-size="13px" font-style="normal" font-weight="normal" text-decoration="none" x="487.661376953125" y="518.5">Room</text><text fill="#000000" stroke="none" font-family="Arial" font-size="13px" font-style="normal" font-weight="normal" text-decoration="none" x="477.175048828125" y="531.5">Database</text></g></g><g transform="translate(-30,-65) scale(1,1)"><g><path fill="none" stroke="none"/><text fill="#000000" stroke="none" font-family="Arial" font-size="13px" font-style="normal" font-weight="normal" text-decoration="none" x="444.5" y="518.5"></text></g></g><g transform="translate(-30,-65) scale(1,1)"><path fill="#C0C0C0" stroke="none" d="M 713 151 L 837 151 Q 847 151 847 161 L 847 213 Q 847 223 837 223 L 713 223 Q 703 223 703 213 L 703 161 Q 703 151 713 151 Z" opacity="0.2"/></g><g transform="translate(-30,-65) scale(1,1)"><path fill="#ffffff" stroke="none" d="M 706 144 L 830 144 Q 840 144 840 154 L 840 206 Q 840 216 830 216 L 706 216 Q 696 216 696 206 L 696 154 Q 696 144 706 144 Z"/></g><g transform="translate(-30,-65) scale(1,1)"><path fill="none" stroke="#000000" d="M 706 144 L 830 144 Q 840 144 840 154 L 840 206 Q 840 216 830 216 L 706 216 Q 696 216 696 206 L 696 154 Q 696 144 706 144 Z" stroke-miterlimit="10"/></g><g transform="translate(-30,-65) scale(1,1)"><path fill="none" stroke="#000000" d="M 696 167 L 840 167" stroke-miterlimit="10"/></g><g transform="translate(-30,-65) scale(1,1)"><g><path fill="none" stroke="none"/><text fill="#000000" stroke="none" font-family="Arial" font-size="13px" font-style="normal" font-weight="normal" text-decoration="none" x="708.02099609375" y="188.5">Manage Reservation</text></g></g><g transform="translate(-30,-65) scale(1,1)"><g><path fill="none" stroke="none"/><text fill="#000000" stroke="none" font-family="Arial" font-size="13px" font-style="normal" font-weight="normal" text-decoration="none" x="768" y="161.5"></text></g></g><g transform="translate(-30,-65) scale(1,1)"><path fill="none" stroke="#000000" d="M 264 144 L 264 104 M 264 104 A 8 8 0 0 1 272 96 L 432 96 M 432 96 A 8 8 0 0 1 440 104 L 440 208" stroke-miterlimit="10"/></g><g transform="translate(-30,-65) scale(1,1)"><path fill="#000000" stroke="none" d="M 435.790482243984 197.83732514237585 L 440 208 L 444.209517756016 197.83732514237585"/></g><g transform="translate(-30,-65) scale(1,1)"><path fill="none" stroke="#000000" d="M 435.790482243984 197.83732514237585 L 440 208 L 444.209517756016 197.83732514237585 L 435.790482243984 197.83732514237585" stroke-miterlimit="10"/></g><g transform="translate(-30,-65) scale(1,1)"><g><path fill="none" stroke="none"/><text fill="#000000" stroke="none" font-family="Arial" font-size="13px" font-style="normal" font-weight="normal" text-decoration="none" x="282.5" y="87.5">Assigned Accomodation</text></g></g><g transform="translate(-30,-65) scale(1,1)"><path fill="none" stroke="#000000" d="M 440 304 L 384 304 M 384 304 A 8 8 0 0 1 376 296 L 376 233 M 376 233 A 8 8 0 0 0 368 225 L 304 225" stroke-miterlimit="10"/></g><g transform="translate(-30,-65) scale(1,1)"><path fill="#000000" stroke="none" d="M 314.16267485762415 220.790482243984 L 304 225 L 314.16267485762415 229.209517756016"/></g><g transform="translate(-30,-65) scale(1,1)"><path fill="none" stroke="#000000" d="M 314.16267485762415 220.790482243984 L 304 225 L 314.16267485762415 229.209517756016 L 314.16267485762415 220.790482243984" stroke-miterlimit="10"/></g><g transform="translate(-30,-65) scale(1,1)"><g><path fill="none" stroke="none"/><text fill="#000000" stroke="none" font-family="Arial" font-size="13px" font-style="normal" font-weight="normal" text-decoration="none" x="271.5" y="276.5">Reservation List</text></g></g><g transform="translate(-30,-65) scale(1,1)"><path fill="none" stroke="#000000" d="M 235 448 L 235 225" stroke-miterlimit="10"/></g><g transform="translate(-30,-65) scale(1,1)"><path fill="#000000" stroke="none" d="M 239.209517756016 235.16267485762415 L 235 225 L 230.790482243984 235.16267485762415"/></g><g transform="translate(-30,-65) scale(1,1)"><path fill="none" stroke="#000000" d="M 239.209517756016 235.16267485762415 L 235 225 L 230.790482243984 235.16267485762415 L 239.209517756016 235.16267485762415" stroke-miterlimit="10"/></g><g transform="translate(-30,-65) scale(1,1)"><g><path fill="none" stroke="none"/><text fill="#000000" stroke="none" font-family="Arial" font-size="13px" font-style="normal" font-weight="normal" text-decoration="none" x="239.5" y="355.5">Customer Info</text></g></g><g transform="translate(-30,-65) scale(1,1)"><path fill="none" stroke="#000000" d="M 160 472 L 136 472 M 136 472 A 8 8 0 0 1 128 464 L 128 208 M 128 208 A 8 8 0 0 1 136 200 L 168 200" stroke-miterlimit="10"/></g><g transform="translate(-30,-65) scale(1,1)"><path fill="#000000" stroke="none" d="M 157.83732514237585 204.209517756016 L 168 200 L 157.83732514237585 195.790482243984"/></g><g transform="translate(-30,-65) scale(1,1)"><path fill="none" stroke="#000000" d="M 157.83732514237585 204.209517756016 L 168 200 L 157.83732514237585 195.790482243984 L 157.83732514237585 204.209517756016" stroke-miterlimit="10"/></g><g transform="translate(-30,-65) scale(1,1)"><g><path fill="none" stroke="none"/><text fill="#000000" stroke="none" font-family="Arial" font-size="13px" font-style="normal" font-weight="normal" text-decoration="none" x="39.5" y="356.5">List of Avaliable Rooms</text></g></g><g transform="translate(-30,-65) scale(1,1)"><path fill="none" stroke="#000000" d="M 440 349 L 368 349 M 368 349 A 8 8 0 0 0 360 357 L 360 440 M 360 440 A 8 8 0 0 1 352 448 L 304 448" stroke-miterlimit="10"/></g><g transform="translate(-30,-65) scale(1,1)"><path fill="#000000" stroke="none" d="M 314.16267485762415 443.790482243984 L 304 448 L 314.16267485762415 452.209517756016"/></g><g transform="translate(-30,-65) scale(1,1)"><path fill="none" stroke="#000000" d="M 314.16267485762415 443.790482243984 L 304 448 L 314.16267485762415 452.209517756016 L 314.16267485762415 443.790482243984" stroke-miterlimit="10"/></g><g transform="translate(-30,-65) scale(1,1)"><g><path fill="none" stroke="none"/><text fill="#000000" stroke="none" font-family="Arial" font-size="13px" font-style="normal" font-weight="normal" text-decoration="none" x="311.5" y="403.5">Assignd Employee</text></g></g><g transform="translate(-30,-65) scale(1,1)"><path fill="none" stroke="#000000" d="M 456 541 L 456 576 M 456 576 A 8 8 0 0 1 448 584 L 240 584 M 240 584 A 8 8 0 0 1 232 576 L 232 528" stroke-miterlimit="10"/></g><g transform="translate(-30,-65) scale(1,1)"><path fill="#000000" stroke="none" d="M 236.209517756016 538.1626748576241 L 232 528 L 227.790482243984 538.1626748576241"/></g><g transform="translate(-30,-65) scale(1,1)"><path fill="none" stroke="#000000" d="M 236.209517756016 538.1626748576241 L 232 528 L 227.790482243984 538.1626748576241 L 236.209517756016 538.1626748576241" stroke-miterlimit="10"/></g><g transform="translate(-30,-65) scale(1,1)"><g><path fill="none" stroke="none"/><text fill="#000000" stroke="none" font-family="Arial" font-size="13px" font-style="normal" font-weight="normal" text-decoration="none" x="271.5" y="604.5">List Of Available Rooms</text></g></g><g transform="translate(-30,-65) scale(1,1)"><path fill="none" stroke="#000000" d="M 760 144 L 760 120 M 760 120 A 8 8 0 0 0 752 112 L 528 112 M 528 112 A 8 8 0 0 0 520 120 L 520 208" stroke-miterlimit="10"/></g><g transform="translate(-30,-65) scale(1,1)"><path fill="#000000" stroke="none" d="M 515.790482243984 197.83732514237585 L 520 208 L 524.209517756016 197.83732514237585"/></g><g transform="translate(-30,-65) scale(1,1)"><path fill="none" stroke="#000000" d="M 515.790482243984 197.83732514237585 L 520 208 L 524.209517756016 197.83732514237585 L 515.790482243984 197.83732514237585" stroke-miterlimit="10"/></g><g transform="translate(-30,-65) scale(1,1)"><g><path fill="none" stroke="none"/><text fill="#000000" stroke="none" font-family="Arial" font-size="13px" font-style="normal" font-weight="normal" text-decoration="none" x="571.5" y="133.5">Requested Reservation</text></g></g><g transform="translate(-30,-65) scale(1,1)"><path fill="none" stroke="#000000" d="M 560 304 L 616 304 M 616 304 A 8 8 0 0 0 624 296 L 624 224 M 624 224 A 8 8 0 0 1 632 216 L 696 216" stroke-miterlimit="10"/></g><g transform="translate(-30,-65) scale(1,1)"><path fill="#000000" stroke="none" d="M 685.8373251423759 220.209517756016 L 696 216 L 685.8373251423758 211.790482243984"/></g><g transform="translate(-30,-65) scale(1,1)"><path fill="none" stroke="#000000" d="M 685.8373251423759 220.209517756016 L 696 216 L 685.8373251423758 211.790482243984 L 685.8373251423759 220.209517756016" stroke-miterlimit="10"/></g><g transform="translate(-30,-65) scale(1,1)"><g><path fill="none" stroke="none"/><text fill="#000000" stroke="none" font-family="Arial" font-size="13px" font-style="normal" font-weight="normal" text-decoration="none" x="631.5" y="282.5">Details</text></g></g><g transform="translate(-30,-65) scale(1,1)"><path fill="none" stroke="#000000" d="M 560 400 L 632 400 M 632 400 A 8 8 0 0 0 640 392 L 640 360 M 640 360 A 8 8 0 0 1 648 352 L 720 352 M 720 352 A 8 8 0 0 0 728 344 L 728 216" stroke-miterlimit="10"/></g><g transform="translate(-30,-65) scale(1,1)"><path fill="#000000" stroke="none" d="M 732.209517756016 226.16267485762415 L 728 216 L 723.790482243984 226.16267485762415"/></g><g transform="translate(-30,-65) scale(1,1)"><path fill="none" stroke="#000000" d="M 732.209517756016 226.16267485762415 L 728 216 L 723.790482243984 226.16267485762415 L 732.209517756016 226.16267485762415" stroke-miterlimit="10"/></g><g transform="translate(-30,-65) scale(1,1)"><g><path fill="none" stroke="none"/><text fill="#000000" stroke="none" font-family="Arial" font-size="13px" font-style="normal" font-weight="normal" text-decoration="none" x="622.5" y="340.5">List of Employee</text></g></g><g transform="translate(-30,-65) scale(1,1)"><rect fill="#C0C0C0" stroke="none" x="791" y="343" width="120" height="32" opacity="0.2"/></g><g transform="translate(-30,-65) scale(1,1)"><rect fill="#ffffff" stroke="none" x="784" y="336" width="120" height="32"/></g><g transform="translate(-30,-65) scale(1,1)"><path fill="none" stroke="#000000" d="M 784 336 L 904 336 L 904 368 L 784 368 L 784 336 Z Z" stroke-miterlimit="10"/></g><g transform="translate(-30,-65) scale(1,1)"><g><path fill="none" stroke="none"/><text fill="#000000" stroke="none" font-family="Arial" font-size="13px" font-style="normal" font-weight="normal" text-decoration="none" x="844" y="353.5"></text></g></g><g transform="translate(-30,-65) scale(1,1)"><g><path fill="none" stroke="none"/><text fill="#000000" stroke="none" font-family="Arial" font-size="13px" font-style="normal" font-weight="normal" text-decoration="none" x="815.095947265625" y="358.5">Employee</text></g></g><g transform="translate(-30,-65) scale(1,1)"><g><path fill="none" stroke="none"/><text fill="#000000" stroke="none" font-family="Arial" font-size="13px" font-style="normal" font-weight="normal" text-decoration="none" x="-0.5" y="12.5"></text></g></g><g transform="translate(-30,-65) scale(1,1)"><path fill="none" stroke="#000000" d="M 832 368 L 832 416 M 832 416 A 8 8 0 0 1 824 424 L 560 424" stroke-miterlimit="10"/></g><g transform="translate(-30,-65) scale(1,1)"><path fill="#000000" stroke="none" d="M 570.1626748576241 419.790482243984 L 560 424 L 570.1626748576241 428.209517756016"/></g><g transform="translate(-30,-65) scale(1,1)"><path fill="none" stroke="#000000" d="M 570.1626748576241 419.790482243984 L 560 424 L 570.1626748576241 428.209517756016 L 570.1626748576241 419.790482243984" stroke-miterlimit="10"/></g><g transform="translate(-30,-65) scale(1,1)"><g><path fill="none" stroke="none"/><text fill="#000000" stroke="none" font-family="Arial" font-size="13px" font-style="normal" font-weight="normal" text-decoration="none" x="679.5" y="419.5">Employee Info</text></g></g><g transform="translate(-30,-65) scale(1,1)"><path fill="none" stroke="#000000" d="M 872 368 L 872 568 M 872 568 A 8 8 0 0 1 864 576 L 552 576 M 552 576 A 8 8 0 0 1 544 568 L 544 541" stroke-miterlimit="10"/></g><g transform="translate(-30,-65) scale(1,1)"><path fill="#000000" stroke="none" d="M 548.209517756016 551.1626748576241 L 544 541 L 539.790482243984 551.1626748576241"/></g><g transform="translate(-30,-65) scale(1,1)"><path fill="none" stroke="#000000" d="M 548.209517756016 551.1626748576241 L 544 541 L 539.790482243984 551.1626748576241 L 548.209517756016 551.1626748576241" stroke-miterlimit="10"/></g><g transform="translate(-30,-65) scale(1,1)"><g><path fill="none" stroke="none"/><text fill="#000000" stroke="none" font-family="Arial" font-size="13px" font-style="normal" font-weight="normal" text-decoration="none" x="645.5" y="597.5">Room/Facility Details</text></g></g><g transform="translate(-30,-65) scale(1,1)"><path fill="none" stroke="#000000" d="M 888 368 L 888 616 L 512 618 L 512 544" stroke-miterlimit="10"/></g><g transform="translate(-30,-65) scale(1,1)"><g><path fill="none" stroke="none"/><text fill="#000000" stroke="none" font-family="Arial" font-size="13px" font-style="normal" font-weight="normal" text-decoration="none" x="645" y="642">List of Available Rooms</text></g></g></g></svg>