<svg version="1.1" xmlns="http://www.w3.org/2000/svg" xmlns:xlink="http://www.w3.org/1999/xlink" width="638.4326171875" height="440"><defs/><g><text fill="#eeeeee" stroke="none" font-family="Arial" font-size="24px" font-style="normal" font-weight="normal" text-decoration="none" x="0" y="0">UNREGISTERED</text><text fill="#eeeeee" stroke="none" font-family="Arial" font-size="24px" font-style="normal" font-weight="normal" text-decoration="none" x="0" y="30">UNREGISTERED</text><text fill="#eeeeee" stroke="none" font-family="Arial" font-size="24px" font-style="normal" font-weight="normal" text-decoration="none" x="0" y="60">UNREGISTERED</text><text fill="#eeeeee" stroke="none" font-family="Arial" font-size="24px" font-style="normal" font-weight="normal" text-decoration="none" x="0" y="90">UNREGISTERED</text><text fill="#eeeeee" stroke="none" font-family="Arial" font-size="24px" font-style="normal" font-weight="normal" text-decoration="none" x="0" y="120">UNREGISTERED</text><text fill="#eeeeee" stroke="none" font-family="Arial" font-size="24px" font-style="normal" font-weight="normal" text-decoration="none" x="0" y="150">UNREGISTERED</text><text fill="#eeeeee" stroke="none" font-family="Arial" font-size="24px" font-style="normal" font-weight="normal" text-decoration="none" x="0" y="180">UNREGISTERED</text><text fill="#eeeeee" stroke="none" font-family="Arial" font-size="24px" font-style="normal" font-weight="normal" text-decoration="none" x="0" y="210">UNREGISTERED</text><text fill="#eeeeee" stroke="none" font-family="Arial" font-size="24px" font-style="normal" font-weight="normal" text-decoration="none" x="0" y="240">UNREGISTERED</text><text fill="#eeeeee" stroke="none" font-family="Arial" font-size="24px" font-style="normal" font-weight="normal" text-decoration="none" x="0" y="270">UNREGISTERED</text><text fill="#eeeeee" stroke="none" font-family="Arial" font-size="24px" font-style="normal" font-weight="normal" text-decoration="none" x="0" y="300">UNREGISTERED</text><text fill="#eeeeee" stroke="none" font-family="Arial" font-size="24px" font-style="normal" font-weight="normal" text-decoration="none" x="0" y="330">UNREGISTERED</text><text fill="#eeeeee" stroke="none" font-family="Arial" font-size="24px" font-style="normal" font-weight="normal" text-decoration="none" x="0" y="360">UNREGISTERED</text><text fill="#eeeeee" stroke="none" font-family="Arial" font-size="24px" font-style="normal" font-weight="normal" text-decoration="none" x="0" y="390">UNREGISTERED</text><text fill="#eeeeee" stroke="none" font-family="Arial" font-size="24px" font-style="normal" font-weight="normal" text-decoration="none" x="0" y="420">UNREGISTERED</text><text fill="#eeeeee" stroke="none" font-family="Arial" font-size="24px" font-style="normal" font-weight="normal" text-decoration="none" x="200" y="0">UNREGISTERED</text><text fill="#eeeeee" stroke="none" font-family="Arial" font-size="24px" font-style="normal" font-weight="normal" text-decoration="none" x="200" y="30">UNREGISTERED</text><text fill="#eeeeee" stroke="none" font-family="Arial" font-size="24px" font-style="normal" font-weight="normal" text-decoration="none" x="200" y="60">UNREGISTERED</text><text fill="#eeeeee" stroke="none" font-family="Arial" font-size="24px" font-style="normal" font-weight="normal" text-decoration="none" x="200" y="90">UNREGISTERED</text><text fill="#eeeeee" stroke="none" font-family="Arial" font-size="24px" font-style="normal" font-weight="normal" text-decoration="none" x="200" y="120">UNREGISTERED</text><text fill="#eeeeee" stroke="none" font-family="Arial" font-size="24px" font-style="normal" font-weight="normal" text-decoration="none" x="200" y="150">UNREGISTERED</text><text fill="#eeeeee" stroke="none" font-family="Arial" font-size="24px" font-style="normal" font-weight="normal" text-decoration="none" x="200" y="180">UNREGISTERED</text><text fill="#eeeeee" stroke="none" font-family="Arial" font-size="24px" font-style="normal" font-weight="normal" text-decoration="none" x="200" y="210">UNREGISTERED</text><text fill="#eeeeee" stroke="none" font-family="Arial" font-size="24px" font-style="normal" font-weight="normal" text-decoration="none" x="200" y="240">UNREGISTERED</text><text fill="#eeeeee" stroke="none" font-family="Arial" font-size="24px" font-style="normal" font-weight="normal" text-decoration="none" x="200" y="270">UNREGISTERED</text><text fill="#eeeeee" stroke="none" font-family="Arial" font-size="24px" font-style="normal" font-weight="normal" text-decoration="none" x="200" y="300">UNREGISTERED</text><text fill="#eeeeee" stroke="none" font-family="Arial" font-size="24px" font-style="normal" font-weight="normal" text-decoration="none" x="200" y="330">UNREGISTERED</text><text fill="#eeeeee" stroke="none" font-family="Arial" font-size="24px" font-style="normal" font-weight="normal" text-decoration="none" x="200" y="360">UNREGISTERED</text><text fill="#eeeeee" stroke="none" font-family="Arial" font-size="24px" font-style="normal" font-weight="normal" text-decoration="none" x="200" y="390">UNREGISTERED</text><text fill="#eeeeee" stroke="none" font-family="Arial" font-size="24px" font-style="normal" font-weight="normal" text-decoration="none" x="200" y="420">UNREGISTERED</text><text fill="#eeeeee" stroke="none" font-family="Arial" font-size="24px" font-style="normal" font-weight="normal" text-decoration="none" x="400" y="0">UNREGISTERED</text><text fill="#eeeeee" stroke="none" font-family="Arial" font-size="24px" font-style="normal" font-weight="normal" text-decoration="none" x="400" y="30">UNREGISTERED</text><text fill="#eeeeee" stroke="none" font-family="Arial" font-size="24px" font-style="normal" font-weight="normal" text-decoration="none" x="400" y="60">UNREGISTERED</text><text fill="#eeeeee" stroke="none" font-family="Arial" font-size="24px" font-style="normal" font-weight="normal" text-decoration="none" x="400" y="90">UNREGISTERED</text><text fill="#eeeeee" stroke="none" font-family="Arial" font-size="24px" font-style="normal" font-weight="normal" text-decoration="none" x="400" y="120">UNREGISTERED</text><text fill="#eeeeee" stroke="none" font-family="Arial" font-size="24px" font-style="normal" font-weight="normal" text-decoration="none" x="400" y="150">UNREGISTERED</text><text fill="#eeeeee" stroke="none" font-family="Arial" font-size="24px" font-style="normal" font-weight="normal" text-decoration="none" x="400" y="180">UNREGISTERED</text><text fill="#eeeeee" stroke="none" font-family="Arial" font-size="24px" font-style="normal" font-weight="normal" text-decoration="none" x="400" y="210">UNREGISTERED</text><text fill="#eeeeee" stroke="none" font-family="Arial" font-size="24px" font-style="normal" font-weight="normal" text-decoration="none" x="400" y="240">UNREGISTERED</text><text fill="#eeeeee" stroke="none" font-family="Arial" font-size="24px" font-style="normal" font-weight="normal" text-decoration="none" x="400" y="270">UNREGISTERED</text><text fill="#eeeeee" stroke="none" font-family="Arial" font-size="24px" font-style="normal" font-weight="normal" text-decoration="none" x="400" y="300">UNREGISTERED</text><text fill="#eeeeee" stroke="none" font-family="Arial" font-size="24px" font-style="normal" font-weight="normal" text-decoration="none" x="400" y="330">UNREGISTERED</text><text fill="#eeeeee" stroke="none" font-family="Arial" font-size="24px" font-style="normal" font-weight="normal" text-decoration="none" x="400" y="360">UNREGISTERED</text><text fill="#eeeeee" stroke="none" font-family="Arial" font-size="24px" font-style="normal" font-weight="normal" text-decoration="none" x="400" y="390">UNREGISTERED</text><text fill="#eeeeee" stroke="none" font-family="Arial" font-size="24px" font-style="normal" font-weight="normal" text-decoration="none" x="400" y="420">UNREGISTERED</text><text fill="#eeeeee" stroke="none" font-family="Arial" font-size="24px" font-style="normal" font-weight="normal" text-decoration="none" x="600" y="0">UNREGISTERED</text><text fill="#eeeeee" stroke="none" font-family="Arial" font-size="24px" font-style="normal" font-weight="normal" text-decoration="none" x="600" y="30">UNREGISTERED</text><text fill="#eeeeee" stroke="none" font-family="Arial" font-size="24px" font-style="normal" font-weight="normal" text-decoration="none" x="600" y="60">UNREGISTERED</text><text fill="#eeeeee" stroke="none" font-family="Arial" font-size="24px" font-style="normal" font-weight="normal" text-decoration="none" x="600" y="90">UNREGISTERED</text><text fill="#eeeeee" stroke="none" font-family="Arial" font-size="24px" font-style="normal" font-weight="normal" text-decoration="none" x="600" y="120">UNREGISTERED</text><text fill="#eeeeee" stroke="none" font-family="Arial" font-size="24px" font-style="normal" font-weight="normal" text-decoration="none" x="600" y="150">UNREGISTERED</text><text fill="#eeeeee" stroke="none" font-family="Arial" font-size="24px" font-style="normal" font-weight="normal" text-decoration="none" x="600" y="180">UNREGISTERED</text><text fill="#eeeeee" stroke="none" font-family="Arial" font-size="24px" font-style="normal" font-weight="normal" text-decoration="none" x="600" y="210">UNREGISTERED</text><text fill="#eeeeee" stroke="none" font-family="Arial" font-size="24px" font-style="normal" font-weight="normal" text-decoration="none" x="600" y="240">UNREGISTERED</text><text fill="#eeeeee" stroke="none" font-family="Arial" font-size="24px" font-style="normal" font-weight="normal" text-decoration="none" x="600" y="270">UNREGISTERED</text><text fill="#eeeeee" stroke="none" font-family="Arial" font-size="24px" font-style="normal" font-weight="normal" text-decoration="none" x="600" y="300">UNREGISTERED</text><text fill="#eeeeee" stroke="none" font-family="Arial" font-size="24px" font-style="normal" font-weight="normal" text-decoration="none" x="600" y="330">UNREGISTERED</text><text fill="#eeeeee" stroke="none" font-family="Arial" font-size="24px" font-style="normal" font-weight="normal" text-decoration="none" x="600" y="360">UNREGISTERED</text><text fill="#eeeeee" stroke="none" font-family="Arial" font-size="24px" font-style="normal" font-weight="normal" text-decoration="none" x="600" y="390">UNREGISTERED</text><text fill="#eeeeee" stroke="none" font-family="Arial" font-size="24px" font-style="normal" font-weight="normal" text-decoration="none" x="600" y="420">UNREGISTERED</text><g transform="translate(-38,-102) scale(1,1)"><path fill="#C0C0C0" stroke="none" d="M 313 119 L 437 119 Q 447 119 447 129 L 447 190 Q 447 200 437 200 L 313 200 Q 303 200 303 190 L 303 129 Q 303 119 313 119 Z" opacity="0.2"/></g><g transform="translate(-38,-102) scale(1,1)"><path fill="#ffffff" stroke="none" d="M 306 112 L 430 112 Q 440 112 440 122 L 440 183 Q 440 193 430 193 L 306 193 Q 296 193 296 183 L 296 122 Q 296 112 306 112 Z"/></g><g transform="translate(-38,-102) scale(1,1)"><path fill="none" stroke="#000000" d="M 306 112 L 430 112 Q 440 112 440 122 L 440 183 Q 440 193 430 193 L 306 193 Q 296 193 296 183 L 296 122 Q 296 112 306 112 Z" stroke-miterlimit="10"/></g><g transform="translate(-38,-102) scale(1,1)"><path fill="none" stroke="#000000" d="M 296 135 L 440 135" stroke-miterlimit="10"/></g><g transform="translate(-38,-102) scale(1,1)"><g><path fill="none" stroke="none"/><text fill="#000000" stroke="none" font-family="Arial" font-size="13px" font-style="normal" font-weight="normal" text-decoration="none" x="314.530517578125" y="156.5">Manage Customer</text><text fill="#000000" stroke="none" font-family="Arial" font-size="13px" font-style="normal" font-weight="normal" text-decoration="none" x="335.484130859375" y="169.5">Information</text></g></g><g transform="translate(-38,-102) scale(1,1)"><g><path fill="none" stroke="none"/><text fill="#000000" stroke="none" font-family="Arial" font-size="13px" font-style="normal" font-weight="normal" text-decoration="none" x="368" y="129.5"></text></g></g><g transform="translate(-38,-102) scale(1,1)"><path fill="#C0C0C0" stroke="none" d="M 313 231 L 437 231 Q 447 231 447 241 L 447 302 Q 447 312 437 312 L 313 312 Q 303 312 303 302 L 303 241 Q 303 231 313 231 Z" opacity="0.2"/></g><g transform="translate(-38,-102) scale(1,1)"><path fill="#ffffff" stroke="none" d="M 306 224 L 430 224 Q 440 224 440 234 L 440 295 Q 440 305 430 305 L 306 305 Q 296 305 296 295 L 296 234 Q 296 224 306 224 Z"/></g><g transform="translate(-38,-102) scale(1,1)"><path fill="none" stroke="#000000" d="M 306 224 L 430 224 Q 440 224 440 234 L 440 295 Q 440 305 430 305 L 306 305 Q 296 305 296 295 L 296 234 Q 296 224 306 224 Z" stroke-miterlimit="10"/></g><g transform="translate(-38,-102) scale(1,1)"><path fill="none" stroke="#000000" d="M 296 247 L 440 247" stroke-miterlimit="10"/></g><g transform="translate(-38,-102) scale(1,1)"><g><path fill="none" stroke="none"/><text fill="#000000" stroke="none" font-family="Arial" font-size="13px" font-style="normal" font-weight="normal" text-decoration="none" x="314.530517578125" y="268.5">Manage Customer</text><text fill="#000000" stroke="none" font-family="Arial" font-size="13px" font-style="normal" font-weight="normal" text-decoration="none" x="335.845947265625" y="281.5">lnformation</text></g></g><g transform="translate(-38,-102) scale(1,1)"><g><path fill="none" stroke="none"/><text fill="#000000" stroke="none" font-family="Arial" font-size="13px" font-style="normal" font-weight="normal" text-decoration="none" x="368" y="241.5"></text></g></g><g transform="translate(-38,-102) scale(1,1)"><path fill="#C0C0C0" stroke="none" d="M 313 351 L 437 351 Q 447 351 447 361 L 447 421 Q 447 431 437 431 L 313 431 Q 303 431 303 421 L 303 361 Q 303 351 313 351 Z" opacity="0.2"/></g><g transform="translate(-38,-102) scale(1,1)"><path fill="#ffffff" stroke="none" d="M 306 344 L 430 344 Q 440 344 440 354 L 440 414 Q 440 424 430 424 L 306 424 Q 296 424 296 414 L 296 354 Q 296 344 306 344 Z"/></g><g transform="translate(-38,-102) scale(1,1)"><path fill="none" stroke="#000000" d="M 306 344 L 430 344 Q 440 344 440 354 L 440 414 Q 440 424 430 424 L 306 424 Q 296 424 296 414 L 296 354 Q 296 344 306 344 Z" stroke-miterlimit="10"/></g><g transform="translate(-38,-102) scale(1,1)"><path fill="none" stroke="#000000" d="M 296 367 L 440 367" stroke-miterlimit="10"/></g><g transform="translate(-38,-102) scale(1,1)"><g><path fill="none" stroke="none"/><text fill="#000000" stroke="none" font-family="Arial" font-size="13px" font-style="normal" font-weight="normal" text-decoration="none" x="308.02099609375" y="388.5">Manage Reservation</text></g></g><g transform="translate(-38,-102) scale(1,1)"><g><path fill="none" stroke="none"/><text fill="#000000" stroke="none" font-family="Arial" font-size="13px" font-style="normal" font-weight="normal" text-decoration="none" x="368" y="361.5"></text></g></g><g transform="translate(-38,-102) scale(1,1)"><path fill="#C0C0C0" stroke="none" d="M 313 463 L 437 463 Q 447 463 447 473 L 447 525 Q 447 535 437 535 L 313 535 Q 303 535 303 525 L 303 473 Q 303 463 313 463 Z" opacity="0.2"/></g><g transform="translate(-38,-102) scale(1,1)"><path fill="#ffffff" stroke="none" d="M 306 456 L 430 456 Q 440 456 440 466 L 440 518 Q 440 528 430 528 L 306 528 Q 296 528 296 518 L 296 466 Q 296 456 306 456 Z"/></g><g transform="translate(-38,-102) scale(1,1)"><path fill="none" stroke="#000000" d="M 306 456 L 430 456 Q 440 456 440 466 L 440 518 Q 440 528 430 528 L 306 528 Q 296 528 296 518 L 296 466 Q 296 456 306 456 Z" stroke-miterlimit="10"/></g><g transform="translate(-38,-102) scale(1,1)"><path fill="none" stroke="#000000" d="M 296 479 L 440 479" stroke-miterlimit="10"/></g><g transform="translate(-38,-102) scale(1,1)"><g><path fill="none" stroke="none"/><text fill="#000000" stroke="none" font-family="Arial" font-size="13px" font-style="normal" font-weight="normal" text-decoration="none" x="317.06640625" y="500.5">Mfllhye Emloyees</text></g></g><g transform="translate(-38,-102) scale(1,1)"><g><path fill="none" stroke="none"/><text fill="#000000" stroke="none" font-family="Arial" font-size="13px" font-style="normal" font-weight="normal" text-decoration="none" x="368" y="473.5"></text></g></g><g transform="translate(-38,-102) scale(1,1)"><g><path fill="none" stroke="none"/><text fill="#000000" stroke="none" font-family="Arial" font-size="13px" font-style="normal" font-weight="normal" text-decoration="none" x="357" y="130">1.1</text></g></g><g transform="translate(-38,-102) scale(1,1)"><g><path fill="none" stroke="none"/><text fill="#000000" stroke="none" font-family="Arial" font-size="13px" font-style="normal" font-weight="normal" text-decoration="none" x="357" y="242">1.2</text></g></g><g transform="translate(-38,-102) scale(1,1)"><g><path fill="none" stroke="none"/><text fill="#000000" stroke="none" font-family="Arial" font-size="13px" font-style="normal" font-weight="normal" text-decoration="none" x="357" y="362">1.3</text></g></g><g transform="translate(-38,-102) scale(1,1)"><g><path fill="none" stroke="none"/><text fill="#000000" stroke="none" font-family="Arial" font-size="13px" font-style="normal" font-weight="normal" text-decoration="none" x="357" y="474">1.4</text></g></g><g transform="translate(-38,-102) scale(1,1)"><rect fill="#C0C0C0" stroke="none" x="55" y="327" width="106.4326171875" height="32" opacity="0.2"/></g><g transform="translate(-38,-102) scale(1,1)"><rect fill="#ffffff" stroke="none" x="48" y="320" width="106.4326171875" height="32"/></g><g transform="translate(-38,-102) scale(1,1)"><path fill="none" stroke="#000000" d="M 48 320 L 154.4326171875 320 L 154.4326171875 352 L 48 352 L 48 320 Z Z" stroke-miterlimit="10"/></g><g transform="translate(-38,-102) scale(1,1)"><g><path fill="none" stroke="none"/><text fill="#000000" stroke="none" font-family="Arial" font-size="13px" font-style="normal" font-weight="normal" text-decoration="none" x="101.21630859375" y="337.5"></text></g></g><g transform="translate(-38,-102) scale(1,1)"><g><path fill="none" stroke="none"/><text fill="#000000" stroke="none" font-family="Arial" font-size="13px" font-style="normal" font-weight="normal" text-decoration="none" x="101.21630859375" y="337.5"></text></g></g><g transform="translate(-38,-102) scale(1,1)"><g><path fill="none" stroke="none"/><text fill="#000000" stroke="none" font-family="Arial" font-size="13px" font-style="normal" font-weight="normal" text-decoration="none" x="73.042236328125" y="342.5">Customer</text></g></g><g transform="translate(-38,-102) scale(1,1)"><g><path fill="none" stroke="none"/><text fill="#000000" stroke="none" font-family="Arial" font-size="13px" font-style="normal" font-weight="normal" text-decoration="none" x="-0.5" y="-43.5"></text></g></g><g transform="translate(-38,-102) scale(1,1)"><rect fill="#C0C0C0" stroke="none" x="567" y="311" width="106.4326171875" height="32" opacity="0.2"/></g><g transform="translate(-38,-102) scale(1,1)"><rect fill="#ffffff" stroke="none" x="560" y="304" width="106.4326171875" height="32"/></g><g transform="translate(-38,-102) scale(1,1)"><path fill="none" stroke="#000000" d="M 560 304 L 666.4326171875 304 L 666.4326171875 336 L 560 336 L 560 304 Z Z" stroke-miterlimit="10"/></g><g transform="translate(-38,-102) scale(1,1)"><g><path fill="none" stroke="none"/><text fill="#000000" stroke="none" font-family="Arial" font-size="13px" font-style="normal" font-weight="normal" text-decoration="none" x="613.21630859375" y="321.5"></text></g></g><g transform="translate(-38,-102) scale(1,1)"><g><path fill="none" stroke="none"/><text fill="#000000" stroke="none" font-family="Arial" font-size="13px" font-style="normal" font-weight="normal" text-decoration="none" x="613.21630859375" y="321.5"></text></g></g><g transform="translate(-38,-102) scale(1,1)"><g><path fill="none" stroke="none"/><text fill="#000000" stroke="none" font-family="Arial" font-size="13px" font-style="normal" font-weight="normal" text-decoration="none" x="584.312255859375" y="326.5">Employee</text></g></g><g transform="translate(-38,-102) scale(1,1)"><g><path fill="none" stroke="none"/><text fill="#000000" stroke="none" font-family="Arial" font-size="13px" font-style="normal" font-weight="normal" text-decoration="none" x="-8.5" y="-67.5"></text></g></g><g transform="translate(-38,-102) scale(1,1)"><path fill="none" stroke="#000000" d="M 72 320 L 72 136 M 72 136 A 8 8 0 0 1 80 128 L 296 128" stroke-miterlimit="10"/></g><g transform="translate(-38,-102) scale(1,1)"><path fill="#000000" stroke="none" d="M 285.83732514237585 132.209517756016 L 296 128 L 285.83732514237585 123.79048224398402"/></g><g transform="translate(-38,-102) scale(1,1)"><path fill="none" stroke="#000000" d="M 285.83732514237585 132.209517756016 L 296 128 L 285.83732514237585 123.79048224398402 L 285.83732514237585 132.209517756016" stroke-miterlimit="10"/></g><g transform="translate(-38,-102) scale(1,1)"><g><path fill="none" stroke="none"/><text fill="#000000" stroke="none" font-family="Arial" font-size="13px" font-style="normal" font-weight="normal" text-decoration="none" x="104.66455078125" y="124.5">Customer lnformation</text></g></g><g transform="translate(-38,-102) scale(1,1)"><path fill="none" stroke="#000000" d="M 296 168 L 128 168 M 128 168 A 8 8 0 0 0 120 176 L 120 320" stroke-miterlimit="10"/></g><g transform="translate(-38,-102) scale(1,1)"><path fill="#000000" stroke="none" d="M 115.79048224398402 309.83732514237585 L 120 320 L 124.20951775601598 309.83732514237585"/></g><g transform="translate(-38,-102) scale(1,1)"><path fill="none" stroke="#000000" d="M 115.79048224398402 309.83732514237585 L 120 320 L 124.20951775601598 309.83732514237585 L 115.79048224398402 309.83732514237585" stroke-miterlimit="10"/></g><g transform="translate(-38,-102) scale(1,1)"><g><path fill="none" stroke="none"/><text fill="#000000" stroke="none" font-family="Arial" font-size="13px" font-style="normal" font-weight="normal" text-decoration="none" x="142.5" y="164.5">Customer Status</text></g></g><g transform="translate(-38,-102) scale(1,1)"><path fill="none" stroke="#000000" d="M 154 322 L 168 322 M 168 322 A 8 8 0 0 0 176 314 L 176 256 M 176 256 A 8 8 0 0 1 184 248 L 296 248" stroke-miterlimit="10"/></g><g transform="translate(-38,-102) scale(1,1)"><path fill="#000000" stroke="none" d="M 285.83732514237585 252.209517756016 L 296 248 L 285.83732514237585 243.790482243984"/></g><g transform="translate(-38,-102) scale(1,1)"><path fill="none" stroke="#000000" d="M 285.83732514237585 252.209517756016 L 296 248 L 285.83732514237585 243.790482243984 L 285.83732514237585 252.209517756016" stroke-miterlimit="10"/></g><g transform="translate(-38,-102) scale(1,1)"><g><path fill="none" stroke="none"/><text fill="#000000" stroke="none" font-family="Arial" font-size="13px" font-style="normal" font-weight="normal" text-decoration="none" x="189.5" y="266.5">Customer Status</text></g></g><g transform="translate(-38,-102) scale(1,1)"><path fill="none" stroke="#000000" d="M 296 305 L 296 320 M 296 320 A 8 8 0 0 1 288 328 L 154 328" stroke-miterlimit="10"/></g><g transform="translate(-38,-102) scale(1,1)"><path fill="#000000" stroke="none" d="M 164.16267485762415 323.790482243984 L 154 328 L 164.16267485762415 332.209517756016"/></g><g transform="translate(-38,-102) scale(1,1)"><path fill="none" stroke="#000000" d="M 164.16267485762415 323.790482243984 L 154 328 L 164.16267485762415 332.209517756016 L 164.16267485762415 323.790482243984" stroke-miterlimit="10"/></g><g transform="translate(-38,-102) scale(1,1)"><g><path fill="none" stroke="none"/><text fill="#000000" stroke="none" font-family="Arial" font-size="13px" font-style="normal" font-weight="normal" text-decoration="none" x="175.5" y="349.5">Asslgned Facilities</text></g></g><g transform="translate(-38,-102) scale(1,1)"><path fill="none" stroke="#000000" d="M 154 352 L 154 363 M 154 363 A 8 8 0 0 0 162 371 L 296 371" stroke-miterlimit="10"/></g><g transform="translate(-38,-102) scale(1,1)"><path fill="#000000" stroke="none" d="M 285.83732514237585 375.209517756016 L 296 371 L 285.83732514237585 366.790482243984"/></g><g transform="translate(-38,-102) scale(1,1)"><path fill="none" stroke="#000000" d="M 285.83732514237585 375.209517756016 L 296 371 L 285.83732514237585 366.790482243984 L 285.83732514237585 375.209517756016" stroke-miterlimit="10"/></g><g transform="translate(-38,-102) scale(1,1)"><g><path fill="none" stroke="none"/><text fill="#000000" stroke="none" font-family="Arial" font-size="13px" font-style="normal" font-weight="normal" text-decoration="none" x="219.6572265625" y="395.5">c</text></g></g><g transform="translate(-38,-102) scale(1,1)"><path fill="none" stroke="#000000" d="M 296 416 L 104 416 M 104 416 A 8 8 0 0 1 96 408 L 96 352" stroke-miterlimit="10"/></g><g transform="translate(-38,-102) scale(1,1)"><path fill="#000000" stroke="none" d="M 100.20951775601598 362.16267485762415 L 96 352 L 91.79048224398402 362.16267485762415"/></g><g transform="translate(-38,-102) scale(1,1)"><path fill="none" stroke="#000000" d="M 100.20951775601598 362.16267485762415 L 96 352 L 91.79048224398402 362.16267485762415 L 100.20951775601598 362.16267485762415" stroke-miterlimit="10"/></g><g transform="translate(-38,-102) scale(1,1)"><g><path fill="none" stroke="none"/><text fill="#000000" stroke="none" font-family="Arial" font-size="13px" font-style="normal" font-weight="normal" text-decoration="none" x="118.5" y="435.5">Reservation Information</text></g></g><g transform="translate(-38,-102) scale(1,1)"><path fill="none" stroke="#000000" d="M 440 144 L 624 144 M 624 144 A 8 8 0 0 1 632 152 L 632 304" stroke-miterlimit="10"/></g><g transform="translate(-38,-102) scale(1,1)"><path fill="#000000" stroke="none" d="M 627.790482243984 293.83732514237585 L 632 304 L 636.209517756016 293.83732514237585"/></g><g transform="translate(-38,-102) scale(1,1)"><path fill="none" stroke="#000000" d="M 627.790482243984 293.83732514237585 L 632 304 L 636.209517756016 293.83732514237585 L 627.790482243984 293.83732514237585" stroke-miterlimit="10"/></g><g transform="translate(-38,-102) scale(1,1)"><g><path fill="none" stroke="none"/><text fill="#000000" stroke="none" font-family="Arial" font-size="13px" font-style="normal" font-weight="normal" text-decoration="none" x="478.5" y="139.5">Customer Information</text></g></g><g transform="translate(-38,-102) scale(1,1)"><path fill="none" stroke="#000000" d="M 592 304 L 592 176 M 592 176 A 8 8 0 0 0 584 168 L 440 168" stroke-miterlimit="10"/></g><g transform="translate(-38,-102) scale(1,1)"><path fill="#000000" stroke="none" d="M 450.16267485762415 163.790482243984 L 440 168 L 450.16267485762415 172.209517756016"/></g><g transform="translate(-38,-102) scale(1,1)"><path fill="none" stroke="#000000" d="M 450.16267485762415 163.790482243984 L 440 168 L 450.16267485762415 172.209517756016 L 450.16267485762415 163.790482243984" stroke-miterlimit="10"/></g><g transform="translate(-38,-102) scale(1,1)"><g><path fill="none" stroke="none"/><text fill="#000000" stroke="none" font-family="Arial" font-size="13px" font-style="normal" font-weight="normal" text-decoration="none" x="470.5" y="188.5">Customer Status</text></g></g><g transform="translate(-38,-102) scale(1,1)"><path fill="none" stroke="#000000" d="M 560 304 L 560 232 M 560 232 A 8 8 0 0 0 552 224 L 440 224" stroke-miterlimit="10"/></g><g transform="translate(-38,-102) scale(1,1)"><path fill="#000000" stroke="none" d="M 450.16267485762415 219.790482243984 L 440 224 L 450.16267485762415 228.209517756016"/></g><g transform="translate(-38,-102) scale(1,1)"><path fill="none" stroke="#000000" d="M 450.16267485762415 219.790482243984 L 440 224 L 450.16267485762415 228.209517756016 L 450.16267485762415 219.790482243984" stroke-miterlimit="10"/></g><g transform="translate(-38,-102) scale(1,1)"><g><path fill="none" stroke="none"/><text fill="#000000" stroke="none" font-family="Arial" font-size="13px" font-style="normal" font-weight="normal" text-decoration="none" x="499.5" y="245.5">Facilities Information</text></g></g><g transform="translate(-38,-102) scale(1,1)"><path fill="none" stroke="#000000" d="M 584 336 L 584 464 M 584 464 A 8 8 0 0 1 576 472 L 440 472" stroke-miterlimit="10"/></g><g transform="translate(-38,-102) scale(1,1)"><path fill="#000000" stroke="none" d="M 450.16267485762415 467.790482243984 L 440 472 L 450.16267485762415 476.209517756016"/></g><g transform="translate(-38,-102) scale(1,1)"><path fill="none" stroke="#000000" d="M 450.16267485762415 467.790482243984 L 440 472 L 450.16267485762415 476.209517756016 L 450.16267485762415 467.790482243984" stroke-miterlimit="10"/></g><g transform="translate(-38,-102) scale(1,1)"><g><path fill="none" stroke="none"/><text fill="#000000" stroke="none" font-family="Arial" font-size="13px" font-style="normal" font-weight="normal" text-decoration="none" x="446.5" y="459.5">Employee Information</text></g></g><g transform="translate(-38,-102) scale(1,1)"><path fill="none" stroke="#000000" d="M 440 496 L 608 496 M 608 496 A 8 8 0 0 0 616 488 L 616 336" stroke-miterlimit="10"/></g><g transform="translate(-38,-102) scale(1,1)"><path fill="#000000" stroke="none" d="M 620.209517756016 346.16267485762415 L 616 336 L 611.790482243984 346.16267485762415"/></g><g transform="translate(-38,-102) scale(1,1)"><path fill="none" stroke="#000000" d="M 620.209517756016 346.16267485762415 L 616 336 L 611.790482243984 346.16267485762415 L 620.209517756016 346.16267485762415" stroke-miterlimit="10"/></g><g transform="translate(-38,-102) scale(1,1)"><g><path fill="none" stroke="none"/><text fill="#000000" stroke="none" font-family="Arial" font-size="13px" font-style="normal" font-weight="normal" text-decoration="none" x="461.5" y="492.5">List of Customer</text></g></g><g transform="translate(-38,-102) scale(1,1)"><path fill="none" stroke="#000000" d="M 440 512 L 640 512 M 640 512 A 8 8 0 0 0 648 504 L 648 336" stroke-miterlimit="10"/></g><g transform="translate(-38,-102) scale(1,1)"><path fill="#000000" stroke="none" d="M 652.209517756016 346.16267485762415 L 648 336 L 643.790482243984 346.16267485762415"/></g><g transform="translate(-38,-102) scale(1,1)"><path fill="none" stroke="#000000" d="M 652.209517756016 346.16267485762415 L 648 336 L 643.790482243984 346.16267485762415 L 652.209517756016 346.16267485762415" stroke-miterlimit="10"/></g><g transform="translate(-38,-102) scale(1,1)"><g><path fill="none" stroke="none"/><text fill="#000000" stroke="none" font-family="Arial" font-size="13px" font-style="normal" font-weight="normal" text-decoration="none" x="455.5" y="532.5">Assigned Department</text></g></g></g></svg>