<svg version="1.1" xmlns="http://www.w3.org/2000/svg" xmlns:xlink="http://www.w3.org/1999/xlink" width="650.41357421875" height="710"><defs/><g><text fill="#eeeeee" stroke="none" font-family="Arial" font-size="24px" font-style="normal" font-weight="normal" text-decoration="none" x="0" y="0">UNREGISTERED</text><text fill="#eeeeee" stroke="none" font-family="Arial" font-size="24px" font-style="normal" font-weight="normal" text-decoration="none" x="0" y="30">UNREGISTERED</text><text fill="#eeeeee" stroke="none" font-family="Arial" font-size="24px" font-style="normal" font-weight="normal" text-decoration="none" x="0" y="60">UNREGISTERED</text><text fill="#eeeeee" stroke="none" font-family="Arial" font-size="24px" font-style="normal" font-weight="normal" text-decoration="none" x="0" y="90">UNREGISTERED</text><text fill="#eeeeee" stroke="none" font-family="Arial" font-size="24px" font-style="normal" font-weight="normal" text-decoration="none" x="0" y="120">UNREGISTERED</text><text fill="#eeeeee" stroke="none" font-family="Arial" font-size="24px" font-style="normal" font-weight="normal" text-decoration="none" x="0" y="150">UNREGISTERED</text><text fill="#eeeeee" stroke="none" font-family="Arial" font-size="24px" font-style="normal" font-weight="normal" text-decoration="none" x="0" y="180">UNREGISTERED</text><text fill="#eeeeee" stroke="none" font-family="Arial" font-size="24px" font-style="normal" font-weight="normal" text-decoration="none" x="0" y="210">UNREGISTERED</text><text fill="#eeeeee" stroke="none" font-family="Arial" font-size="24px" font-style="normal" font-weight="normal" text-decoration="none" x="0" y="240">UNREGISTERED</text><text fill="#eeeeee" stroke="none" font-family="Arial" font-size="24px" font-style="normal" font-weight="normal" text-decoration="none" x="0" y="270">UNREGISTERED</text><text fill="#eeeeee" stroke="none" font-family="Arial" font-size="24px" font-style="normal" font-weight="normal" text-decoration="none" x="0" y="300">UNREGISTERED</text><text fill="#eeeeee" stroke="none" font-family="Arial" font-size="24px" font-style="normal" font-weight="normal" text-decoration="none" x="0" y="330">UNREGISTERED</text><text fill="#eeeeee" stroke="none" font-family="Arial" font-size="24px" font-style="normal" font-weight="normal" text-decoration="none" x="0" y="360">UNREGISTERED</text><text fill="#eeeeee" stroke="none" font-family="Arial" font-size="24px" font-style="normal" font-weight="normal" text-decoration="none" x="0" y="390">UNREGISTERED</text><text fill="#eeeeee" stroke="none" font-family="Arial" font-size="24px" font-style="normal" font-weight="normal" text-decoration="none" x="0" y="420">UNREGISTERED</text><text fill="#eeeeee" stroke="none" font-family="Arial" font-size="24px" font-style="normal" font-weight="normal" text-decoration="none" x="0" y="450">UNREGISTERED</text><text fill="#eeeeee" stroke="none" font-family="Arial" font-size="24px" font-style="normal" font-weight="normal" text-decoration="none" x="0" y="480">UNREGISTERED</text><text fill="#eeeeee" stroke="none" font-family="Arial" font-size="24px" font-style="normal" font-weight="normal" text-decoration="none" x="0" y="510">UNREGISTERED</text><text fill="#eeeeee" stroke="none" font-family="Arial" font-size="24px" font-style="normal" font-weight="normal" text-decoration="none" x="0" y="540">UNREGISTERED</text><text fill="#eeeeee" stroke="none" font-family="Arial" font-size="24px" font-style="normal" font-weight="normal" text-decoration="none" x="0" y="570">UNREGISTERED</text><text fill="#eeeeee" stroke="none" font-family="Arial" font-size="24px" font-style="normal" font-weight="normal" text-decoration="none" x="0" y="600">UNREGISTERED</text><text fill="#eeeeee" stroke="none" font-family="Arial" font-size="24px" font-style="normal" font-weight="normal" text-decoration="none" x="0" y="630">UNREGISTERED</text><text fill="#eeeeee" stroke="none" font-family="Arial" font-size="24px" font-style="normal" font-weight="normal" text-decoration="none" x="0" y="660">UNREGISTERED</text><text fill="#eeeeee" stroke="none" font-family="Arial" font-size="24px" font-style="normal" font-weight="normal" text-decoration="none" x="0" y="690">UNREGISTERED</text><text fill="#eeeeee" stroke="none" font-family="Arial" font-size="24px" font-style="normal" font-weight="normal" text-decoration="none" x="200" y="0">UNREGISTERED</text><text fill="#eeeeee" stroke="none" font-family="Arial" font-size="24px" font-style="normal" font-weight="normal" text-decoration="none" x="200" y="30">UNREGISTERED</text><text fill="#eeeeee" stroke="none" font-family="Arial" font-size="24px" font-style="normal" font-weight="normal" text-decoration="none" x="200" y="60">UNREGISTERED</text><text fill="#eeeeee" stroke="none" font-family="Arial" font-size="24px" font-style="normal" font-weight="normal" text-decoration="none" x="200" y="90">UNREGISTERED</text><text fill="#eeeeee" stroke="none" font-family="Arial" font-size="24px" font-style="normal" font-weight="normal" text-decoration="none" x="200" y="120">UNREGISTERED</text><text fill="#eeeeee" stroke="none" font-family="Arial" font-size="24px" font-style="normal" font-weight="normal" text-decoration="none" x="200" y="150">UNREGISTERED</text><text fill="#eeeeee" stroke="none" font-family="Arial" font-size="24px" font-style="normal" font-weight="normal" text-decoration="none" x="200" y="180">UNREGISTERED</text><text fill="#eeeeee" stroke="none" font-family="Arial" font-size="24px" font-style="normal" font-weight="normal" text-decoration="none" x="200" y="210">UNREGISTERED</text><text fill="#eeeeee" stroke="none" font-family="Arial" font-size="24px" font-style="normal" font-weight="normal" text-decoration="none" x="200" y="240">UNREGISTERED</text><text fill="#eeeeee" stroke="none" font-family="Arial" font-size="24px" font-style="normal" font-weight="normal" text-decoration="none" x="200" y="270">UNREGISTERED</text><text fill="#eeeeee" stroke="none" font-family="Arial" font-size="24px" font-style="normal" font-weight="normal" text-decoration="none" x="200" y="300">UNREGISTERED</text><text fill="#eeeeee" stroke="none" font-family="Arial" font-size="24px" font-style="normal" font-weight="normal" text-decoration="none" x="200" y="330">UNREGISTERED</text><text fill="#eeeeee" stroke="none" font-family="Arial" font-size="24px" font-style="normal" font-weight="normal" text-decoration="none" x="200" y="360">UNREGISTERED</text><text fill="#eeeeee" stroke="none" font-family="Arial" font-size="24px" font-style="normal" font-weight="normal" text-decoration="none" x="200" y="390">UNREGISTERED</text><text fill="#eeeeee" stroke="none" font-family="Arial" font-size="24px" font-style="normal" font-weight="normal" text-decoration="none" x="200" y="420">UNREGISTERED</text><text fill="#eeeeee" stroke="none" font-family="Arial" font-size="24px" font-style="normal" font-weight="normal" text-decoration="none" x="200" y="450">UNREGISTERED</text><text fill="#eeeeee" stroke="none" font-family="Arial" font-size="24px" font-style="normal" font-weight="normal" text-decoration="none" x="200" y="480">UNREGISTERED</text><text fill="#eeeeee" stroke="none" font-family="Arial" font-size="24px" font-style="normal" font-weight="normal" text-decoration="none" x="200" y="510">UNREGISTERED</text><text fill="#eeeeee" stroke="none" font-family="Arial" font-size="24px" font-style="normal" font-weight="normal" text-decoration="none" x="200" y="540">UNREGISTERED</text><text fill="#eeeeee" stroke="none" font-family="Arial" font-size="24px" font-style="normal" font-weight="normal" text-decoration="none" x="200" y="570">UNREGISTERED</text><text fill="#eeeeee" stroke="none" font-family="Arial" font-size="24px" font-style="normal" font-weight="normal" text-decoration="none" x="200" y="600">UNREGISTERED</text><text fill="#eeeeee" stroke="none" font-family="Arial" font-size="24px" font-style="normal" font-weight="normal" text-decoration="none" x="200" y="630">UNREGISTERED</text><text fill="#eeeeee" stroke="none" font-family="Arial" font-size="24px" font-style="normal" font-weight="normal" text-decoration="none" x="200" y="660">UNREGISTERED</text><text fill="#eeeeee" stroke="none" font-family="Arial" font-size="24px" font-style="normal" font-weight="normal" text-decoration="none" x="200" y="690">UNREGISTERED</text><text fill="#eeeeee" stroke="none" font-family="Arial" font-size="24px" font-style="normal" font-weight="normal" text-decoration="none" x="400" y="0">UNREGISTERED</text><text fill="#eeeeee" stroke="none" font-family="Arial" font-size="24px" font-style="normal" font-weight="normal" text-decoration="none" x="400" y="30">UNREGISTERED</text><text fill="#eeeeee" stroke="none" font-family="Arial" font-size="24px" font-style="normal" font-weight="normal" text-decoration="none" x="400" y="60">UNREGISTERED</text><text fill="#eeeeee" stroke="none" font-family="Arial" font-size="24px" font-style="normal" font-weight="normal" text-decoration="none" x="400" y="90">UNREGISTERED</text><text fill="#eeeeee" stroke="none" font-family="Arial" font-size="24px" font-style="normal" font-weight="normal" text-decoration="none" x="400" y="120">UNREGISTERED</text><text fill="#eeeeee" stroke="none" font-family="Arial" font-size="24px" font-style="normal" font-weight="normal" text-decoration="none" x="400" y="150">UNREGISTERED</text><text fill="#eeeeee" stroke="none" font-family="Arial" font-size="24px" font-style="normal" font-weight="normal" text-decoration="none" x="400" y="180">UNREGISTERED</text><text fill="#eeeeee" stroke="none" font-family="Arial" font-size="24px" font-style="normal" font-weight="normal" text-decoration="none" x="400" y="210">UNREGISTERED</text><text fill="#eeeeee" stroke="none" font-family="Arial" font-size="24px" font-style="normal" font-weight="normal" text-decoration="none" x="400" y="240">UNREGISTERED</text><text fill="#eeeeee" stroke="none" font-family="Arial" font-size="24px" font-style="normal" font-weight="normal" text-decoration="none" x="400" y="270">UNREGISTERED</text><text fill="#eeeeee" stroke="none" font-family="Arial" font-size="24px" font-style="normal" font-weight="normal" text-decoration="none" x="400" y="300">UNREGISTERED</text><text fill="#eeeeee" stroke="none" font-family="Arial" font-size="24px" font-style="normal" font-weight="normal" text-decoration="none" x="400" y="330">UNREGISTERED</text><text fill="#eeeeee" stroke="none" font-family="Arial" font-size="24px" font-style="normal" font-weight="normal" text-decoration="none" x="400" y="360">UNREGISTERED</text><text fill="#eeeeee" stroke="none" font-family="Arial" font-size="24px" font-style="normal" font-weight="normal" text-decoration="none" x="400" y="390">UNREGISTERED</text><text fill="#eeeeee" stroke="none" font-family="Arial" font-size="24px" font-style="normal" font-weight="normal" text-decoration="none" x="400" y="420">UNREGISTERED</text><text fill="#eeeeee" stroke="none" font-family="Arial" font-size="24px" font-style="normal" font-weight="normal" text-decoration="none" x="400" y="450">UNREGISTERED</text><text fill="#eeeeee" stroke="none" font-family="Arial" font-size="24px" font-style="normal" font-weight="normal" text-decoration="none" x="400" y="480">UNREGISTERED</text><text fill="#eeeeee" stroke="none" font-family="Arial" font-size="24px" font-style="normal" font-weight="normal" text-decoration="none" x="400" y="510">UNREGISTERED</text><text fill="#eeeeee" stroke="none" font-family="Arial" font-size="24px" font-style="normal" font-weight="normal" text-decoration="none" x="400" y="540">UNREGISTERED</text><text fill="#eeeeee" stroke="none" font-family="Arial" font-size="24px" font-style="normal" font-weight="normal" text-decoration="none" x="400" y="570">UNREGISTERED</text><text fill="#eeeeee" stroke="none" font-family="Arial" font-size="24px" font-style="normal" font-weight="normal" text-decoration="none" x="400" y="600">UNREGISTERED</text><text fill="#eeeeee" stroke="none" font-family="Arial" font-size="24px" font-style="normal" font-weight="normal" text-decoration="none" x="400" y="630">UNREGISTERED</text><text fill="#eeeeee" stroke="none" font-family="Arial" font-size="24px" font-style="normal" font-weight="normal" text-decoration="none" x="400" y="660">UNREGISTERED</text><text fill="#eeeeee" stroke="none" font-family="Arial" font-size="24px" font-style="normal" font-weight="normal" text-decoration="none" x="400" y="690">UNREGISTERED</text><text fill="#eeeeee" stroke="none" font-family="Arial" font-size="24px" font-style="normal" font-weight="normal" text-decoration="none" x="600" y="0">UNREGISTERED</text><text fill="#eeeeee" stroke="none" font-family="Arial" font-size="24px" font-style="normal" font-weight="normal" text-decoration="none" x="600" y="30">UNREGISTERED</text><text fill="#eeeeee" stroke="none" font-family="Arial" font-size="24px" font-style="normal" font-weight="normal" text-decoration="none" x="600" y="60">UNREGISTERED</text><text fill="#eeeeee" stroke="none" font-family="Arial" font-size="24px" font-style="normal" font-weight="normal" text-decoration="none" x="600" y="90">UNREGISTERED</text><text fill="#eeeeee" stroke="none" font-family="Arial" font-size="24px" font-style="normal" font-weight="normal" text-decoration="none" x="600" y="120">UNREGISTERED</text><text fill="#eeeeee" stroke="none" font-family="Arial" font-size="24px" font-style="normal" font-weight="normal" text-decoration="none" x="600" y="150">UNREGISTERED</text><text fill="#eeeeee" stroke="none" font-family="Arial" font-size="24px" font-style="normal" font-weight="normal" text-decoration="none" x="600" y="180">UNREGISTERED</text><text fill="#eeeeee" stroke="none" font-family="Arial" font-size="24px" font-style="normal" font-weight="normal" text-decoration="none" x="600" y="210">UNREGISTERED</text><text fill="#eeeeee" stroke="none" font-family="Arial" font-size="24px" font-style="normal" font-weight="normal" text-decoration="none" x="600" y="240">UNREGISTERED</text><text fill="#eeeeee" stroke="none" font-family="Arial" font-size="24px" font-style="normal" font-weight="normal" text-decoration="none" x="600" y="270">UNREGISTERED</text><text fill="#eeeeee" stroke="none" font-family="Arial" font-size="24px" font-style="normal" font-weight="normal" text-decoration="none" x="600" y="300">UNREGISTERED</text><text fill="#eeeeee" stroke="none" font-family="Arial" font-size="24px" font-style="normal" font-weight="normal" text-decoration="none" x="600" y="330">UNREGISTERED</text><text fill="#eeeeee" stroke="none" font-family="Arial" font-size="24px" font-style="normal" font-weight="normal" text-decoration="none" x="600" y="360">UNREGISTERED</text><text fill="#eeeeee" stroke="none" font-family="Arial" font-size="24px" font-style="normal" font-weight="normal" text-decoration="none" x="600" y="390">UNREGISTERED</text><text fill="#eeeeee" stroke="none" font-family="Arial" font-size="24px" font-style="normal" font-weight="normal" text-decoration="none" x="600" y="420">UNREGISTERED</text><text fill="#eeeeee" stroke="none" font-family="Arial" font-size="24px" font-style="normal" font-weight="normal" text-decoration="none" x="600" y="450">UNREGISTERED</text><text fill="#eeeeee" stroke="none" font-family="Arial" font-size="24px" font-style="normal" font-weight="normal" text-decoration="none" x="600" y="480">UNREGISTERED</text><text fill="#eeeeee" stroke="none" font-family="Arial" font-size="24px" font-style="normal" font-weight="normal" text-decoration="none" x="600" y="510">UNREGISTERED</text><text fill="#eeeeee" stroke="none" font-family="Arial" font-size="24px" font-style="normal" font-weight="normal" text-decoration="none" x="600" y="540">UNREGISTERED</text><text fill="#eeeeee" stroke="none" font-family="Arial" font-size="24px" font-style="normal" font-weight="normal" text-decoration="none" x="600" y="570">UNREGISTERED</text><text fill="#eeeeee" stroke="none" font-family="Arial" font-size="24px" font-style="normal" font-weight="normal" text-decoration="none" x="600" y="600">UNREGISTERED</text><text fill="#eeeeee" stroke="none" font-family="Arial" font-size="24px" font-style="normal" font-weight="normal" text-decoration="none" x="600" y="630">UNREGISTERED</text><text fill="#eeeeee" stroke="none" font-family="Arial" font-size="24px" font-style="normal" font-weight="normal" text-decoration="none" x="600" y="660">UNREGISTERED</text><text fill="#eeeeee" stroke="none" font-family="Arial" font-size="24px" font-style="normal" font-weight="normal" text-decoration="none" x="600" y="690">UNREGISTERED</text><g transform="translate(-70,-6) scale(1,1)"><rect fill="#C0C0C0" stroke="none" x="207" y="23" width="392" height="688" opacity="0.2"/></g><g transform="translate(-70,-6) scale(1,1)"><rect fill="#ffffff" stroke="none" x="200" y="16" width="392" height="688"/></g><g transform="translate(-70,-6) scale(1,1)"><path fill="none" stroke="#000000" d="M 200 16 L 592 16 L 592 704 L 200 704 L 200 16 Z Z" stroke-miterlimit="10"/></g><g transform="translate(-70,-6) scale(1,1)"><g><path fill="none" stroke="none"/><text fill="#000000" stroke="none" font-family="Arial" font-size="13px" font-style="normal" font-weight="bold" text-decoration="none" x="353.36279296875" y="35.5">Rajdhani Hotel</text></g></g><g transform="translate(-70,-6) scale(1,1)"><path fill="#ffffff" stroke="none" d="M 102.55070774147727 345.68 C 102.55070774147727 340.886167936 106.43655006642273 337 111.22998046875 337 C 116.02341087107727 337 119.90925319602273 340.886167936 119.90925319602273 345.68 C 119.90925319602273 350.473832064 116.02341087107727 354.36 111.22998046875 354.36 C 106.43655006642273 354.36 102.55070774147727 350.473832064 102.55070774147727 345.68 Z"/></g><g transform="translate(-70,-6) scale(1,1)"><path fill="none" stroke="#000000" d="M 102.55070774147727 345.68 C 102.55070774147727 340.886167936 106.43655006642273 337 111.22998046875 337 C 116.02341087107727 337 119.90925319602273 340.886167936 119.90925319602273 345.68 C 119.90925319602273 350.473832064 116.02341087107727 354.36 111.22998046875 354.36 C 106.43655006642273 354.36 102.55070774147727 350.473832064 102.55070774147727 345.68 Z" stroke-miterlimit="10"/></g><g transform="translate(-70,-6) scale(1,1)"><path fill="none" stroke="#000000" d="M 111.22998046875 354.36 L 111.22998046875 371.64" stroke-miterlimit="10"/></g><g transform="translate(-70,-6) scale(1,1)"><path fill="none" stroke="#000000" d="M 102.04016228693182 360.84 L 120.41979865056818 360.84" stroke-miterlimit="10"/></g><g transform="translate(-70,-6) scale(1,1)"><path fill="none" stroke="#000000" d="M 111.22998046875 371.64 L 98.46634410511363 389" stroke-miterlimit="10"/></g><g transform="translate(-70,-6) scale(1,1)"><path fill="none" stroke="#000000" d="M 111.22998046875 371.64 L 123.99361683238637 389" stroke-miterlimit="10"/></g><g transform="translate(-70,-6) scale(1,1)"><g><path fill="none" stroke="none"/><text fill="#000000" stroke="none" font-family="Arial" font-size="13px" font-style="normal" font-weight="bold" text-decoration="none" x="85.575927734375" y="409.5">Manager</text></g></g><g transform="translate(-70,-6) scale(1,1)"><path fill="#ffffff" stroke="none" d="M 666.5275143821023 345.68 C 666.5275143821023 340.886167936 670.4133567070477 337 675.206787109375 337 C 680.0002175117023 337 683.8860598366477 340.886167936 683.8860598366477 345.68 C 683.8860598366477 350.473832064 680.0002175117023 354.36 675.206787109375 354.36 C 670.4133567070477 354.36 666.5275143821023 350.473832064 666.5275143821023 345.68 Z"/></g><g transform="translate(-70,-6) scale(1,1)"><path fill="none" stroke="#000000" d="M 666.5275143821023 345.68 C 666.5275143821023 340.886167936 670.4133567070477 337 675.206787109375 337 C 680.0002175117023 337 683.8860598366477 340.886167936 683.8860598366477 345.68 C 683.8860598366477 350.473832064 680.0002175117023 354.36 675.206787109375 354.36 C 670.4133567070477 354.36 666.5275143821023 350.473832064 666.5275143821023 345.68 Z" stroke-miterlimit="10"/></g><g transform="translate(-70,-6) scale(1,1)"><path fill="none" stroke="#000000" d="M 675.206787109375 354.36 L 675.206787109375 371.64" stroke-miterlimit="10"/></g><g transform="translate(-70,-6) scale(1,1)"><path fill="none" stroke="#000000" d="M 666.0169689275568 360.84 L 684.3966052911932 360.84" stroke-miterlimit="10"/></g><g transform="translate(-70,-6) scale(1,1)"><path fill="none" stroke="#000000" d="M 675.206787109375 371.64 L 662.4431507457386 389" stroke-miterlimit="10"/></g><g transform="translate(-70,-6) scale(1,1)"><path fill="none" stroke="#000000" d="M 675.206787109375 371.64 L 687.9704234730114 389" stroke-miterlimit="10"/></g><g transform="translate(-70,-6) scale(1,1)"><g><path fill="none" stroke="none"/><text fill="#000000" stroke="none" font-family="Arial" font-size="13px" font-style="normal" font-weight="bold" text-decoration="none" x="661.9560546875" y="409.5">Staff</text></g></g><g transform="translate(-70,-6) scale(1,1)"><path fill="#C0C0C0" stroke="none" d="M 319 304 C 319 294.6111584 351.45935199999997 287 391.5 287 C 431.54064800000003 287 464 294.6111584 464 304 C 464 313.3888416 431.54064800000003 321 391.5 321 C 351.45935199999997 321 319 313.3888416 319 304 Z" opacity="0.2"/></g><g transform="translate(-70,-6) scale(1,1)"><path fill="#ffffff" stroke="none" d="M 312 297 C 312 287.6111584 344.45935199999997 280 384.5 280 C 424.54064800000003 280 457 287.6111584 457 297 C 457 306.3888416 424.54064800000003 314 384.5 314 C 344.45935199999997 314 312 306.3888416 312 297 Z"/></g><g transform="translate(-70,-6) scale(1,1)"><path fill="none" stroke="#000000" d="M 312 297 C 312 287.6111584 344.45935199999997 280 384.5 280 C 424.54064800000003 280 457 287.6111584 457 297 C 457 306.3888416 424.54064800000003 314 384.5 314 C 344.45935199999997 314 312 306.3888416 312 297 Z" stroke-miterlimit="10"/></g><g transform="translate(-70,-6) scale(1,1)"><g><path fill="none" stroke="none"/><text fill="#000000" stroke="none" font-family="Arial" font-size="13px" font-style="normal" font-weight="bold" text-decoration="none" x="340.418701171875" y="304">Add  Employee</text></g></g><g transform="translate(-70,-6) scale(1,1)"><path fill="#C0C0C0" stroke="none" d="M 335 256 C 335 246.6111584 360.9674816 239 393 239 C 425.0325184 239 451 246.6111584 451 256 C 451 265.3888416 425.0325184 273 393 273 C 360.9674816 273 335 265.3888416 335 256 Z" opacity="0.2"/></g><g transform="translate(-70,-6) scale(1,1)"><path fill="#ffffff" stroke="none" d="M 328 249 C 328 239.6111584 353.9674816 232 386 232 C 418.0325184 232 444 239.6111584 444 249 C 444 258.3888416 418.0325184 266 386 266 C 353.9674816 266 328 258.3888416 328 249 Z"/></g><g transform="translate(-70,-6) scale(1,1)"><path fill="none" stroke="#000000" d="M 328 249 C 328 239.6111584 353.9674816 232 386 232 C 418.0325184 232 444 239.6111584 444 249 C 444 258.3888416 418.0325184 266 386 266 C 353.9674816 266 328 258.3888416 328 249 Z" stroke-miterlimit="10"/></g><g transform="translate(-70,-6) scale(1,1)"><g><path fill="none" stroke="none"/><text fill="#000000" stroke="none" font-family="Arial" font-size="13px" font-style="normal" font-weight="bold" text-decoration="none" x="352.0400390625" y="256">Add Rooms</text></g></g><g transform="translate(-70,-6) scale(1,1)"><path fill="#C0C0C0" stroke="none" d="M 295 400 C 295 390.6111584 335.9659408 383 386.5 383 C 437.0340592 383 478 390.6111584 478 400 C 478 409.3888416 437.0340592 417 386.5 417 C 335.9659408 417 295 409.3888416 295 400 Z" opacity="0.2"/></g><g transform="translate(-70,-6) scale(1,1)"><path fill="#ffffff" stroke="none" d="M 288 393 C 288 383.6111584 328.9659408 376 379.5 376 C 430.0340592 376 471 383.6111584 471 393 C 471 402.3888416 430.0340592 410 379.5 410 C 328.9659408 410 288 402.3888416 288 393 Z"/></g><g transform="translate(-70,-6) scale(1,1)"><path fill="none" stroke="#000000" d="M 288 393 C 288 383.6111584 328.9659408 376 379.5 376 C 430.0340592 376 471 383.6111584 471 393 C 471 402.3888416 430.0340592 410 379.5 410 C 328.9659408 410 288 402.3888416 288 393 Z" stroke-miterlimit="10"/></g><g transform="translate(-70,-6) scale(1,1)"><g><path fill="none" stroke="none"/><text fill="#000000" stroke="none" font-family="Arial" font-size="13px" font-style="normal" font-weight="bold" text-decoration="none" x="323.5009765625" y="400">Add Customer Info.</text></g></g><g transform="translate(-70,-6) scale(1,1)"><path fill="#C0C0C0" stroke="none" d="M 327 448 C 327 438.6111584 349.6096176 431 377.5 431 C 405.3903824 431 428 438.6111584 428 448 C 428 457.3888416 405.3903824 465 377.5 465 C 349.6096176 465 327 457.3888416 327 448 Z" opacity="0.2"/></g><g transform="translate(-70,-6) scale(1,1)"><path fill="#ffffff" stroke="none" d="M 320 441 C 320 431.6111584 342.6096176 424 370.5 424 C 398.3903824 424 421 431.6111584 421 441 C 421 450.3888416 398.3903824 458 370.5 458 C 342.6096176 458 320 450.3888416 320 441 Z"/></g><g transform="translate(-70,-6) scale(1,1)"><path fill="none" stroke="#000000" d="M 320 441 C 320 431.6111584 342.6096176 424 370.5 424 C 398.3903824 424 421 431.6111584 421 441 C 421 450.3888416 398.3903824 458 370.5 458 C 342.6096176 458 320 450.3888416 320 441 Z" stroke-miterlimit="10"/></g><g transform="translate(-70,-6) scale(1,1)"><g><path fill="none" stroke="none"/><text fill="#000000" stroke="none" font-family="Arial" font-size="13px" font-style="normal" font-weight="bold" text-decoration="none" x="344.845947265625" y="448">check_in</text></g></g><g transform="translate(-70,-6) scale(1,1)"><path fill="#C0C0C0" stroke="none" d="M 327 488 C 327 478.6111584 350.9527632 471 380.5 471 C 410.0472368 471 434 478.6111584 434 488 C 434 497.3888416 410.0472368 505 380.5 505 C 350.9527632 505 327 497.3888416 327 488 Z" opacity="0.2"/></g><g transform="translate(-70,-6) scale(1,1)"><path fill="#ffffff" stroke="none" d="M 320 481 C 320 471.6111584 343.9527632 464 373.5 464 C 403.0472368 464 427 471.6111584 427 481 C 427 490.3888416 403.0472368 498 373.5 498 C 343.9527632 498 320 490.3888416 320 481 Z"/></g><g transform="translate(-70,-6) scale(1,1)"><path fill="none" stroke="#000000" d="M 320 481 C 320 471.6111584 343.9527632 464 373.5 464 C 403.0472368 464 427 471.6111584 427 481 C 427 490.3888416 403.0472368 498 373.5 498 C 343.9527632 498 320 490.3888416 320 481 Z" stroke-miterlimit="10"/></g><g transform="translate(-70,-6) scale(1,1)"><g><path fill="none" stroke="none"/><text fill="#000000" stroke="none" font-family="Arial" font-size="13px" font-style="normal" font-weight="bold" text-decoration="none" x="342.425048828125" y="488">Check_out</text></g></g><g transform="translate(-70,-6) scale(1,1)"><path fill="#C0C0C0" stroke="none" d="M 279 598.5 C 279 589.9395856 329.8156752 583 392.5 583 C 455.1843248 583 506 589.9395856 506 598.5 C 506 607.0604144 455.1843248 614 392.5 614 C 329.8156752 614 279 607.0604144 279 598.5 Z" opacity="0.2"/></g><g transform="translate(-70,-6) scale(1,1)"><path fill="#ffffff" stroke="none" d="M 272 591.5 C 272 582.9395856 322.8156752 576 385.5 576 C 448.1843248 576 499 582.9395856 499 591.5 C 499 600.0604144 448.1843248 607 385.5 607 C 322.8156752 607 272 600.0604144 272 591.5 Z"/></g><g transform="translate(-70,-6) scale(1,1)"><path fill="none" stroke="#000000" d="M 272 591.5 C 272 582.9395856 322.8156752 576 385.5 576 C 448.1843248 576 499 582.9395856 499 591.5 C 499 600.0604144 448.1843248 607 385.5 607 C 322.8156752 607 272 600.0604144 272 591.5 Z" stroke-miterlimit="10"/></g><g transform="translate(-70,-6) scale(1,1)"><g><path fill="none" stroke="none"/><text fill="#000000" stroke="none" font-family="Arial" font-size="11px" font-style="normal" font-weight="bold" text-decoration="none" x="314.572021484375" y="597.5">Search Room availableor not</text></g></g><g transform="translate(-70,-6) scale(1,1)"><path fill="#C0C0C0" stroke="none" d="M 311 536 C 311 526.6111584 343.6832096 519 384 519 C 424.3167904 519 457 526.6111584 457 536 C 457 545.3888416 424.3167904 553 384 553 C 343.6832096 553 311 545.3888416 311 536 Z" opacity="0.2"/></g><g transform="translate(-70,-6) scale(1,1)"><path fill="#ffffff" stroke="none" d="M 304 529 C 304 519.6111584 336.6832096 512 377 512 C 417.3167904 512 450 519.6111584 450 529 C 450 538.3888416 417.3167904 546 377 546 C 336.6832096 546 304 538.3888416 304 529 Z"/></g><g transform="translate(-70,-6) scale(1,1)"><path fill="none" stroke="#000000" d="M 304 529 C 304 519.6111584 336.6832096 512 377 512 C 417.3167904 512 450 519.6111584 450 529 C 450 538.3888416 417.3167904 546 377 546 C 336.6832096 546 304 538.3888416 304 529 Z" stroke-miterlimit="10"/></g><g transform="translate(-70,-6) scale(1,1)"><g><path fill="none" stroke="none"/><text fill="#000000" stroke="none" font-family="Arial" font-size="13px" font-style="normal" font-weight="bold" text-decoration="none" x="332.931396484375" y="536">PickUp Service</text></g></g><g transform="translate(-70,-6) scale(1,1)"><path fill="#C0C0C0" stroke="none" d="M 295 656 C 295 646.6111584 338.2045168 639 391.5 639 C 444.7954832 639 488 646.6111584 488 656 C 488 665.3888416 444.7954832 673 391.5 673 C 338.2045168 673 295 665.3888416 295 656 Z" opacity="0.2"/></g><g transform="translate(-70,-6) scale(1,1)"><path fill="#ffffff" stroke="none" d="M 288 649 C 288 639.6111584 331.2045168 632 384.5 632 C 437.7954832 632 481 639.6111584 481 649 C 481 658.3888416 437.7954832 666 384.5 666 C 331.2045168 666 288 658.3888416 288 649 Z"/></g><g transform="translate(-70,-6) scale(1,1)"><path fill="none" stroke="#000000" d="M 288 649 C 288 639.6111584 331.2045168 632 384.5 632 C 437.7954832 632 481 639.6111584 481 649 C 481 658.3888416 437.7954832 666 384.5 666 C 331.2045168 666 288 658.3888416 288 649 Z" stroke-miterlimit="10"/></g><g transform="translate(-70,-6) scale(1,1)"><g><path fill="none" stroke="none"/><text fill="#000000" stroke="none" font-family="Arial" font-size="13px" font-style="normal" font-weight="bold" text-decoration="none" x="324.162353515625" y="656">Update Room Status</text></g></g><g transform="translate(-70,-6) scale(1,1)"><path fill="none" stroke="#000000" d="M 143 366 L 321 315" stroke-miterlimit="10"/></g><g transform="translate(-70,-6) scale(1,1)"><path fill="none" stroke="#000000" d="M 143 360 L 347 267" stroke-miterlimit="10"/></g><g transform="translate(-70,-6) scale(1,1)"><path fill="none" stroke="#000000" d="M 143 377 L 287 387" stroke-miterlimit="10"/></g><g transform="translate(-70,-6) scale(1,1)"><path fill="none" stroke="#000000" d="M 143 383 L 319 428" stroke-miterlimit="10"/></g><g transform="translate(-70,-6) scale(1,1)"><path fill="none" stroke="#000000" d="M 143 388 L 329 463" stroke-miterlimit="10"/></g><g transform="translate(-70,-6) scale(1,1)"><path fill="none" stroke="#000000" d="M 143 406 L 256 512 L 359 575" stroke-miterlimit="10"/></g><g transform="translate(-70,-6) scale(1,1)"><path fill="none" stroke="#000000" d="M 143 394 L 346 511" stroke-miterlimit="10"/></g><g transform="translate(-70,-6) scale(1,1)"><path fill="none" stroke="#000000" d="M 133 416 L 224 584 L 340 631" stroke-miterlimit="10"/></g><g transform="translate(-70,-6) scale(1,1)"><path fill="none" stroke="#000000" d="M 639 377 L 472 387" stroke-miterlimit="10"/></g><g transform="translate(-70,-6) scale(1,1)"><path fill="none" stroke="#000000" d="M 639 383 L 422 430" stroke-miterlimit="10"/></g><g transform="translate(-70,-6) scale(1,1)"><path fill="none" stroke="#000000" d="M 639 388 L 424 463" stroke-miterlimit="10"/></g><g transform="translate(-70,-6) scale(1,1)"><path fill="none" stroke="#000000" d="M 639 394 L 412 511" stroke-miterlimit="10"/></g><g transform="translate(-70,-6) scale(1,1)"><path fill="none" stroke="#000000" d="M 639 402 L 406 575" stroke-miterlimit="10"/></g><g transform="translate(-70,-6) scale(1,1)"><path fill="none" stroke="#000000" d="M 647 416 L 520 600 L 434 631" stroke-miterlimit="10"/></g><g transform="translate(-70,-6) scale(1,1)"><path fill="#C0C0C0" stroke="none" d="M 343 352 C 343 342.6111584 366.9527632 335 396.5 335 C 426.0472368 335 450 342.6111584 450 352 C 450 361.3888416 426.0472368 369 396.5 369 C 366.9527632 369 343 361.3888416 343 352 Z" opacity="0.2"/></g><g transform="translate(-70,-6) scale(1,1)"><path fill="#ffffff" stroke="none" d="M 336 345 C 336 335.6111584 359.9527632 328 389.5 328 C 419.0472368 328 443 335.6111584 443 345 C 443 354.3888416 419.0472368 362 389.5 362 C 359.9527632 362 336 354.3888416 336 345 Z"/></g><g transform="translate(-70,-6) scale(1,1)"><path fill="none" stroke="#000000" d="M 336 345 C 336 335.6111584 359.9527632 328 389.5 328 C 419.0472368 328 443 335.6111584 443 345 C 443 354.3888416 419.0472368 362 389.5 362 C 359.9527632 362 336 354.3888416 336 345 Z" stroke-miterlimit="10"/></g><g transform="translate(-70,-6) scale(1,1)"><g><path fill="none" stroke="none"/><text fill="#000000" stroke="none" font-family="Arial" font-size="13px" font-style="normal" font-weight="bold" text-decoration="none" x="358.79638671875" y="352">Add Driver</text></g></g><g transform="translate(-70,-6) scale(1,1)"><path fill="none" stroke="#000000" d="M 143 371 L 335 351" stroke-miterlimit="10"/></g><g transform="translate(-70,-6) scale(1,1)"><path fill="#C0C0C0" stroke="none" d="M 327 128 C 327 118.6111584 351.8481936 111 382.5 111 C 413.1518064 111 438 118.6111584 438 128 C 438 137.3888416 413.1518064 145 382.5 145 C 351.8481936 145 327 137.3888416 327 128 Z" opacity="0.2"/></g><g transform="translate(-70,-6) scale(1,1)"><path fill="#ffffff" stroke="none" d="M 320 121 C 320 111.6111584 344.8481936 104 375.5 104 C 406.1518064 104 431 111.6111584 431 121 C 431 130.3888416 406.1518064 138 375.5 138 C 344.8481936 138 320 130.3888416 320 121 Z"/></g><g transform="translate(-70,-6) scale(1,1)"><path fill="none" stroke="#000000" d="M 320 121 C 320 111.6111584 344.8481936 104 375.5 104 C 406.1518064 104 431 111.6111584 431 121 C 431 130.3888416 406.1518064 138 375.5 138 C 344.8481936 138 320 130.3888416 320 121 Z" stroke-miterlimit="10"/></g><g transform="translate(-70,-6) scale(1,1)"><g><path fill="none" stroke="none"/><text fill="#000000" stroke="none" font-family="Arial" font-size="13px" font-style="normal" font-weight="bold" text-decoration="none" x="359.595947265625" y="128">Login</text></g></g><g transform="translate(-70,-6) scale(1,1)"><path fill="none" stroke="#000000" d="M 356 139 L 143 344" stroke-miterlimit="10"/></g><g transform="translate(-70,-6) scale(1,1)"><path fill="#C0C0C0" stroke="none" d="M 439 174.5 C 439 165.9395856 473.0263552 159 515 159 C 556.9736448 159 591 165.9395856 591 174.5 C 591 183.0604144 556.9736448 190 515 190 C 473.0263552 190 439 183.0604144 439 174.5 Z" opacity="0.2"/></g><g transform="translate(-70,-6) scale(1,1)"><path fill="#ffffff" stroke="none" d="M 432 167.5 C 432 158.9395856 466.0263552 152 508 152 C 549.9736448 152 584 158.9395856 584 167.5 C 584 176.0604144 549.9736448 183 508 183 C 466.0263552 183 432 176.0604144 432 167.5 Z"/></g><g transform="translate(-70,-6) scale(1,1)"><path fill="none" stroke="#000000" d="M 432 167.5 C 432 158.9395856 466.0263552 152 508 152 C 549.9736448 152 584 158.9395856 584 167.5 C 584 176.0604144 549.9736448 183 508 183 C 466.0263552 183 432 176.0604144 432 167.5 Z" stroke-miterlimit="10"/></g><g transform="translate(-70,-6) scale(1,1)"><g><path fill="none" stroke="none"/><text fill="#000000" stroke="none" font-family="Arial" font-size="9px" font-style="normal" font-weight="bold" text-decoration="none" x="462.22216796875" y="172.5">Invaliddate Credentials</text></g></g><g transform="translate(-70,-6) scale(1,1)"><path fill="none" stroke="#000000" d="M 462 151 L 427 139" stroke-miterlimit="10" stroke-dasharray="3"/></g><g transform="translate(-70,-6) scale(1,1)"><path fill="none" stroke="#000000" d="M 437.9785900834875 138.31402640083596 L 427 139 L 435.2480920795852 146.27797891221755" stroke-miterlimit="10"/></g><g transform="translate(-70,-6) scale(1,1)"><g><path fill="none" stroke="none"/><text fill="#000000" stroke="none" font-family="Arial" font-size="13px" font-style="normal" font-weight="normal" text-decoration="none" x="480.5" y="140.5">«extend»</text></g></g><g transform="translate(-70,-6) scale(1,1)"><path fill="#C0C0C0" stroke="none" d="M 311 208 C 311 198.6111584 342.5639216 191 381.5 191 C 420.4360784 191 452 198.6111584 452 208 C 452 217.3888416 420.4360784 225 381.5 225 C 342.5639216 225 311 217.3888416 311 208 Z" opacity="0.2"/></g><g transform="translate(-70,-6) scale(1,1)"><path fill="#ffffff" stroke="none" d="M 304 201 C 304 191.6111584 335.5639216 184 374.5 184 C 413.4360784 184 445 191.6111584 445 201 C 445 210.3888416 413.4360784 218 374.5 218 C 335.5639216 218 304 210.3888416 304 201 Z"/></g><g transform="translate(-70,-6) scale(1,1)"><path fill="none" stroke="#000000" d="M 304 201 C 304 191.6111584 335.5639216 184 374.5 184 C 413.4360784 184 445 191.6111584 445 201 C 445 210.3888416 413.4360784 218 374.5 218 C 335.5639216 218 304 210.3888416 304 201 Z" stroke-miterlimit="10"/></g><g transform="translate(-70,-6) scale(1,1)"><g><path fill="none" stroke="none"/><text fill="#000000" stroke="none" font-family="Arial" font-size="13px" font-style="normal" font-weight="bold" text-decoration="none" x="333.3037109375" y="208">Authentication</text></g></g><g transform="translate(-70,-6) scale(1,1)"><path fill="none" stroke="#000000" d="M 375 139 L 374 183" stroke-miterlimit="10" stroke-dasharray="3"/></g><g transform="translate(-70,-6) scale(1,1)"><path fill="none" stroke="#000000" d="M 370.0224792467554 172.74430262451605 L 374 183 L 378.43934126307227 172.9355949430687" stroke-miterlimit="10"/></g><g transform="translate(-70,-6) scale(1,1)"><g><path fill="none" stroke="none"/><text fill="#000000" stroke="none" font-family="Arial" font-size="13px" font-style="normal" font-weight="normal" text-decoration="none" x="375.5" y="156.5">«include»</text></g></g><g transform="translate(-70,-6) scale(1,1)"><path fill="#C0C0C0" stroke="none" d="M 343 696 C 343 686.6111584 365.6096176 679 393.5 679 C 421.3903824 679 444 686.6111584 444 696 C 444 705.3888416 421.3903824 713 393.5 713 C 365.6096176 713 343 705.3888416 343 696 Z" opacity="0.2"/></g><g transform="translate(-70,-6) scale(1,1)"><path fill="#ffffff" stroke="none" d="M 336 689 C 336 679.6111584 358.6096176 672 386.5 672 C 414.3903824 672 437 679.6111584 437 689 C 437 698.3888416 414.3903824 706 386.5 706 C 358.6096176 706 336 698.3888416 336 689 Z"/></g><g transform="translate(-70,-6) scale(1,1)"><path fill="none" stroke="#000000" d="M 336 689 C 336 679.6111584 358.6096176 672 386.5 672 C 414.3903824 672 437 679.6111584 437 689 C 437 698.3888416 414.3903824 706 386.5 706 C 358.6096176 706 336 698.3888416 336 689 Z" stroke-miterlimit="10"/></g><g transform="translate(-70,-6) scale(1,1)"><g><path fill="none" stroke="none"/><text fill="#000000" stroke="none" font-family="Arial" font-size="13px" font-style="normal" font-weight="bold" text-decoration="none" x="366.619140625" y="696">Logout</text></g></g><g transform="translate(-70,-6) scale(1,1)"><path fill="none" stroke="#000000" d="M 126 416 L 216 656 L 335 679" stroke-miterlimit="10"/></g><g transform="translate(-70,-6) scale(1,1)"><path fill="none" stroke="#000000" d="M 658 416 L 560 648 L 438 677" stroke-miterlimit="10"/></g><g transform="translate(-70,-6) scale(1,1)"><path fill="none" stroke="#000000" d="M 396 139 L 639 345" stroke-miterlimit="10"/></g></g></svg>