<svg version="1.1" xmlns="http://www.w3.org/2000/svg" xmlns:xlink="http://www.w3.org/1999/xlink" width="674.4599609375" height="531"><defs/><g><text fill="#eeeeee" stroke="none" font-family="Arial" font-size="24px" font-style="normal" font-weight="normal" text-decoration="none" x="0" y="0">UNREGISTERED</text><text fill="#eeeeee" stroke="none" font-family="Arial" font-size="24px" font-style="normal" font-weight="normal" text-decoration="none" x="0" y="30">UNREGISTERED</text><text fill="#eeeeee" stroke="none" font-family="Arial" font-size="24px" font-style="normal" font-weight="normal" text-decoration="none" x="0" y="60">UNREGISTERED</text><text fill="#eeeeee" stroke="none" font-family="Arial" font-size="24px" font-style="normal" font-weight="normal" text-decoration="none" x="0" y="90">UNREGISTERED</text><text fill="#eeeeee" stroke="none" font-family="Arial" font-size="24px" font-style="normal" font-weight="normal" text-decoration="none" x="0" y="120">UNREGISTERED</text><text fill="#eeeeee" stroke="none" font-family="Arial" font-size="24px" font-style="normal" font-weight="normal" text-decoration="none" x="0" y="150">UNREGISTERED</text><text fill="#eeeeee" stroke="none" font-family="Arial" font-size="24px" font-style="normal" font-weight="normal" text-decoration="none" x="0" y="180">UNREGISTERED</text><text fill="#eeeeee" stroke="none" font-family="Arial" font-size="24px" font-style="normal" font-weight="normal" text-decoration="none" x="0" y="210">UNREGISTERED</text><text fill="#eeeeee" stroke="none" font-family="Arial" font-size="24px" font-style="normal" font-weight="normal" text-decoration="none" x="0" y="240">UNREGISTERED</text><text fill="#eeeeee" stroke="none" font-family="Arial" font-size="24px" font-style="normal" font-weight="normal" text-decoration="none" x="0" y="270">UNREGISTERED</text><text fill="#eeeeee" stroke="none" font-family="Arial" font-size="24px" font-style="normal" font-weight="normal" text-decoration="none" x="0" y="300">UNREGISTERED</text><text fill="#eeeeee" stroke="none" font-family="Arial" font-size="24px" font-style="normal" font-weight="normal" text-decoration="none" x="0" y="330">UNREGISTERED</text><text fill="#eeeeee" stroke="none" font-family="Arial" font-size="24px" font-style="normal" font-weight="normal" text-decoration="none" x="0" y="360">UNREGISTERED</text><text fill="#eeeeee" stroke="none" font-family="Arial" font-size="24px" font-style="normal" font-weight="normal" text-decoration="none" x="0" y="390">UNREGISTERED</text><text fill="#eeeeee" stroke="none" font-family="Arial" font-size="24px" font-style="normal" font-weight="normal" text-decoration="none" x="0" y="420">UNREGISTERED</text><text fill="#eeeeee" stroke="none" font-family="Arial" font-size="24px" font-style="normal" font-weight="normal" text-decoration="none" x="0" y="450">UNREGISTERED</text><text fill="#eeeeee" stroke="none" font-family="Arial" font-size="24px" font-style="normal" font-weight="normal" text-decoration="none" x="0" y="480">UNREGISTERED</text><text fill="#eeeeee" stroke="none" font-family="Arial" font-size="24px" font-style="normal" font-weight="normal" text-decoration="none" x="0" y="510">UNREGISTERED</text><text fill="#eeeeee" stroke="none" font-family="Arial" font-size="24px" font-style="normal" font-weight="normal" text-decoration="none" x="200" y="0">UNREGISTERED</text><text fill="#eeeeee" stroke="none" font-family="Arial" font-size="24px" font-style="normal" font-weight="normal" text-decoration="none" x="200" y="30">UNREGISTERED</text><text fill="#eeeeee" stroke="none" font-family="Arial" font-size="24px" font-style="normal" font-weight="normal" text-decoration="none" x="200" y="60">UNREGISTERED</text><text fill="#eeeeee" stroke="none" font-family="Arial" font-size="24px" font-style="normal" font-weight="normal" text-decoration="none" x="200" y="90">UNREGISTERED</text><text fill="#eeeeee" stroke="none" font-family="Arial" font-size="24px" font-style="normal" font-weight="normal" text-decoration="none" x="200" y="120">UNREGISTERED</text><text fill="#eeeeee" stroke="none" font-family="Arial" font-size="24px" font-style="normal" font-weight="normal" text-decoration="none" x="200" y="150">UNREGISTERED</text><text fill="#eeeeee" stroke="none" font-family="Arial" font-size="24px" font-style="normal" font-weight="normal" text-decoration="none" x="200" y="180">UNREGISTERED</text><text fill="#eeeeee" stroke="none" font-family="Arial" font-size="24px" font-style="normal" font-weight="normal" text-decoration="none" x="200" y="210">UNREGISTERED</text><text fill="#eeeeee" stroke="none" font-family="Arial" font-size="24px" font-style="normal" font-weight="normal" text-decoration="none" x="200" y="240">UNREGISTERED</text><text fill="#eeeeee" stroke="none" font-family="Arial" font-size="24px" font-style="normal" font-weight="normal" text-decoration="none" x="200" y="270">UNREGISTERED</text><text fill="#eeeeee" stroke="none" font-family="Arial" font-size="24px" font-style="normal" font-weight="normal" text-decoration="none" x="200" y="300">UNREGISTERED</text><text fill="#eeeeee" stroke="none" font-family="Arial" font-size="24px" font-style="normal" font-weight="normal" text-decoration="none" x="200" y="330">UNREGISTERED</text><text fill="#eeeeee" stroke="none" font-family="Arial" font-size="24px" font-style="normal" font-weight="normal" text-decoration="none" x="200" y="360">UNREGISTERED</text><text fill="#eeeeee" stroke="none" font-family="Arial" font-size="24px" font-style="normal" font-weight="normal" text-decoration="none" x="200" y="390">UNREGISTERED</text><text fill="#eeeeee" stroke="none" font-family="Arial" font-size="24px" font-style="normal" font-weight="normal" text-decoration="none" x="200" y="420">UNREGISTERED</text><text fill="#eeeeee" stroke="none" font-family="Arial" font-size="24px" font-style="normal" font-weight="normal" text-decoration="none" x="200" y="450">UNREGISTERED</text><text fill="#eeeeee" stroke="none" font-family="Arial" font-size="24px" font-style="normal" font-weight="normal" text-decoration="none" x="200" y="480">UNREGISTERED</text><text fill="#eeeeee" stroke="none" font-family="Arial" font-size="24px" font-style="normal" font-weight="normal" text-decoration="none" x="200" y="510">UNREGISTERED</text><text fill="#eeeeee" stroke="none" font-family="Arial" font-size="24px" font-style="normal" font-weight="normal" text-decoration="none" x="400" y="0">UNREGISTERED</text><text fill="#eeeeee" stroke="none" font-family="Arial" font-size="24px" font-style="normal" font-weight="normal" text-decoration="none" x="400" y="30">UNREGISTERED</text><text fill="#eeeeee" stroke="none" font-family="Arial" font-size="24px" font-style="normal" font-weight="normal" text-decoration="none" x="400" y="60">UNREGISTERED</text><text fill="#eeeeee" stroke="none" font-family="Arial" font-size="24px" font-style="normal" font-weight="normal" text-decoration="none" x="400" y="90">UNREGISTERED</text><text fill="#eeeeee" stroke="none" font-family="Arial" font-size="24px" font-style="normal" font-weight="normal" text-decoration="none" x="400" y="120">UNREGISTERED</text><text fill="#eeeeee" stroke="none" font-family="Arial" font-size="24px" font-style="normal" font-weight="normal" text-decoration="none" x="400" y="150">UNREGISTERED</text><text fill="#eeeeee" stroke="none" font-family="Arial" font-size="24px" font-style="normal" font-weight="normal" text-decoration="none" x="400" y="180">UNREGISTERED</text><text fill="#eeeeee" stroke="none" font-family="Arial" font-size="24px" font-style="normal" font-weight="normal" text-decoration="none" x="400" y="210">UNREGISTERED</text><text fill="#eeeeee" stroke="none" font-family="Arial" font-size="24px" font-style="normal" font-weight="normal" text-decoration="none" x="400" y="240">UNREGISTERED</text><text fill="#eeeeee" stroke="none" font-family="Arial" font-size="24px" font-style="normal" font-weight="normal" text-decoration="none" x="400" y="270">UNREGISTERED</text><text fill="#eeeeee" stroke="none" font-family="Arial" font-size="24px" font-style="normal" font-weight="normal" text-decoration="none" x="400" y="300">UNREGISTERED</text><text fill="#eeeeee" stroke="none" font-family="Arial" font-size="24px" font-style="normal" font-weight="normal" text-decoration="none" x="400" y="330">UNREGISTERED</text><text fill="#eeeeee" stroke="none" font-family="Arial" font-size="24px" font-style="normal" font-weight="normal" text-decoration="none" x="400" y="360">UNREGISTERED</text><text fill="#eeeeee" stroke="none" font-family="Arial" font-size="24px" font-style="normal" font-weight="normal" text-decoration="none" x="400" y="390">UNREGISTERED</text><text fill="#eeeeee" stroke="none" font-family="Arial" font-size="24px" font-style="normal" font-weight="normal" text-decoration="none" x="400" y="420">UNREGISTERED</text><text fill="#eeeeee" stroke="none" font-family="Arial" font-size="24px" font-style="normal" font-weight="normal" text-decoration="none" x="400" y="450">UNREGISTERED</text><text fill="#eeeeee" stroke="none" font-family="Arial" font-size="24px" font-style="normal" font-weight="normal" text-decoration="none" x="400" y="480">UNREGISTERED</text><text fill="#eeeeee" stroke="none" font-family="Arial" font-size="24px" font-style="normal" font-weight="normal" text-decoration="none" x="400" y="510">UNREGISTERED</text><text fill="#eeeeee" stroke="none" font-family="Arial" font-size="24px" font-style="normal" font-weight="normal" text-decoration="none" x="600" y="0">UNREGISTERED</text><text fill="#eeeeee" stroke="none" font-family="Arial" font-size="24px" font-style="normal" font-weight="normal" text-decoration="none" x="600" y="30">UNREGISTERED</text><text fill="#eeeeee" stroke="none" font-family="Arial" font-size="24px" font-style="normal" font-weight="normal" text-decoration="none" x="600" y="60">UNREGISTERED</text><text fill="#eeeeee" stroke="none" font-family="Arial" font-size="24px" font-style="normal" font-weight="normal" text-decoration="none" x="600" y="90">UNREGISTERED</text><text fill="#eeeeee" stroke="none" font-family="Arial" font-size="24px" font-style="normal" font-weight="normal" text-decoration="none" x="600" y="120">UNREGISTERED</text><text fill="#eeeeee" stroke="none" font-family="Arial" font-size="24px" font-style="normal" font-weight="normal" text-decoration="none" x="600" y="150">UNREGISTERED</text><text fill="#eeeeee" stroke="none" font-family="Arial" font-size="24px" font-style="normal" font-weight="normal" text-decoration="none" x="600" y="180">UNREGISTERED</text><text fill="#eeeeee" stroke="none" font-family="Arial" font-size="24px" font-style="normal" font-weight="normal" text-decoration="none" x="600" y="210">UNREGISTERED</text><text fill="#eeeeee" stroke="none" font-family="Arial" font-size="24px" font-style="normal" font-weight="normal" text-decoration="none" x="600" y="240">UNREGISTERED</text><text fill="#eeeeee" stroke="none" font-family="Arial" font-size="24px" font-style="normal" font-weight="normal" text-decoration="none" x="600" y="270">UNREGISTERED</text><text fill="#eeeeee" stroke="none" font-family="Arial" font-size="24px" font-style="normal" font-weight="normal" text-decoration="none" x="600" y="300">UNREGISTERED</text><text fill="#eeeeee" stroke="none" font-family="Arial" font-size="24px" font-style="normal" font-weight="normal" text-decoration="none" x="600" y="330">UNREGISTERED</text><text fill="#eeeeee" stroke="none" font-family="Arial" font-size="24px" font-style="normal" font-weight="normal" text-decoration="none" x="600" y="360">UNREGISTERED</text><text fill="#eeeeee" stroke="none" font-family="Arial" font-size="24px" font-style="normal" font-weight="normal" text-decoration="none" x="600" y="390">UNREGISTERED</text><text fill="#eeeeee" stroke="none" font-family="Arial" font-size="24px" font-style="normal" font-weight="normal" text-decoration="none" x="600" y="420">UNREGISTERED</text><text fill="#eeeeee" stroke="none" font-family="Arial" font-size="24px" font-style="normal" font-weight="normal" text-decoration="none" x="600" y="450">UNREGISTERED</text><text fill="#eeeeee" stroke="none" font-family="Arial" font-size="24px" font-style="normal" font-weight="normal" text-decoration="none" x="600" y="480">UNREGISTERED</text><text fill="#eeeeee" stroke="none" font-family="Arial" font-size="24px" font-style="normal" font-weight="normal" text-decoration="none" x="600" y="510">UNREGISTERED</text><g transform="translate(-22,-86) scale(1,1)"><rect fill="#C0C0C0" stroke="none" x="183" y="103" width="351" height="511" opacity="0.2"/></g><g transform="translate(-22,-86) scale(1,1)"><rect fill="#ffffff" stroke="none" x="176" y="96" width="351" height="511"/></g><g transform="translate(-22,-86) scale(1,1)"><path fill="none" stroke="#000000" d="M 176 96 L 527 96 L 527 607 L 176 607 L 176 96 Z Z" stroke-miterlimit="10"/></g><g transform="translate(-22,-86) scale(1,1)"><g><path fill="none" stroke="none"/><text fill="#000000" stroke="none" font-family="Arial" font-size="13px" font-style="normal" font-weight="bold" text-decoration="none" x="308.86279296875" y="115.5">Rajdhani Hotel</text></g></g><g transform="translate(-22,-86) scale(1,1)"><path fill="#ffffff" stroke="none" d="M 48.40935031960227 345.68 C 48.40935031960227 340.886167936 52.295192644547726 337 57.088623046875 337 C 61.882053449202274 337 65.76789577414773 340.886167936 65.76789577414773 345.68 C 65.76789577414773 350.473832064 61.882053449202274 354.36 57.088623046875 354.36 C 52.295192644547726 354.36 48.40935031960227 350.473832064 48.40935031960227 345.68 Z"/></g><g transform="translate(-22,-86) scale(1,1)"><path fill="none" stroke="#000000" d="M 48.40935031960227 345.68 C 48.40935031960227 340.886167936 52.295192644547726 337 57.088623046875 337 C 61.882053449202274 337 65.76789577414773 340.886167936 65.76789577414773 345.68 C 65.76789577414773 350.473832064 61.882053449202274 354.36 57.088623046875 354.36 C 52.295192644547726 354.36 48.40935031960227 350.473832064 48.40935031960227 345.68 Z" stroke-miterlimit="10"/></g><g transform="translate(-22,-86) scale(1,1)"><path fill="none" stroke="#000000" d="M 57.088623046875 354.36 L 57.088623046875 371.64" stroke-miterlimit="10"/></g><g transform="translate(-22,-86) scale(1,1)"><path fill="none" stroke="#000000" d="M 47.89880486505682 360.84 L 66.27844122869318 360.84" stroke-miterlimit="10"/></g><g transform="translate(-22,-86) scale(1,1)"><path fill="none" stroke="#000000" d="M 57.088623046875 371.64 L 44.324986683238635 389" stroke-miterlimit="10"/></g><g transform="translate(-22,-86) scale(1,1)"><path fill="none" stroke="#000000" d="M 57.088623046875 371.64 L 69.85225941051137 389" stroke-miterlimit="10"/></g><g transform="translate(-22,-86) scale(1,1)"><g><path fill="none" stroke="none"/><text fill="#000000" stroke="none" font-family="Arial" font-size="13px" font-style="normal" font-weight="bold" text-decoration="none" x="38.66455078125" y="409.5">Admin</text></g></g><g transform="translate(-22,-86) scale(1,1)"><path fill="#ffffff" stroke="none" d="M 642.5275143821023 337.68 C 642.5275143821023 332.886167936 646.4133567070477 329 651.206787109375 329 C 656.0002175117023 329 659.8860598366477 332.886167936 659.8860598366477 337.68 C 659.8860598366477 342.473832064 656.0002175117023 346.36 651.206787109375 346.36 C 646.4133567070477 346.36 642.5275143821023 342.473832064 642.5275143821023 337.68 Z"/></g><g transform="translate(-22,-86) scale(1,1)"><path fill="none" stroke="#000000" d="M 642.5275143821023 337.68 C 642.5275143821023 332.886167936 646.4133567070477 329 651.206787109375 329 C 656.0002175117023 329 659.8860598366477 332.886167936 659.8860598366477 337.68 C 659.8860598366477 342.473832064 656.0002175117023 346.36 651.206787109375 346.36 C 646.4133567070477 346.36 642.5275143821023 342.473832064 642.5275143821023 337.68 Z" stroke-miterlimit="10"/></g><g transform="translate(-22,-86) scale(1,1)"><path fill="none" stroke="#000000" d="M 651.206787109375 346.36 L 651.206787109375 363.64" stroke-miterlimit="10"/></g><g transform="translate(-22,-86) scale(1,1)"><path fill="none" stroke="#000000" d="M 642.0169689275568 352.84 L 660.3966052911932 352.84" stroke-miterlimit="10"/></g><g transform="translate(-22,-86) scale(1,1)"><path fill="none" stroke="#000000" d="M 651.206787109375 363.64 L 638.4431507457386 381" stroke-miterlimit="10"/></g><g transform="translate(-22,-86) scale(1,1)"><path fill="none" stroke="#000000" d="M 651.206787109375 363.64 L 663.9704234730114 381" stroke-miterlimit="10"/></g><g transform="translate(-22,-86) scale(1,1)"><g><path fill="none" stroke="none"/><text fill="#000000" stroke="none" font-family="Arial" font-size="13px" font-style="normal" font-weight="bold" text-decoration="none" x="637.9560546875" y="401.5">Staff</text></g></g><g transform="translate(-22,-86) scale(1,1)"><path fill="#C0C0C0" stroke="none" d="M 287 184 C 287 174.6111584 319.45935199999997 167 359.5 167 C 399.54064800000003 167 432 174.6111584 432 184 C 432 193.3888416 399.54064800000003 201 359.5 201 C 319.45935199999997 201 287 193.3888416 287 184 Z" opacity="0.2"/></g><g transform="translate(-22,-86) scale(1,1)"><path fill="#ffffff" stroke="none" d="M 280 177 C 280 167.6111584 312.45935199999997 160 352.5 160 C 392.54064800000003 160 425 167.6111584 425 177 C 425 186.3888416 392.54064800000003 194 352.5 194 C 312.45935199999997 194 280 186.3888416 280 177 Z"/></g><g transform="translate(-22,-86) scale(1,1)"><path fill="none" stroke="#000000" d="M 280 177 C 280 167.6111584 312.45935199999997 160 352.5 160 C 392.54064800000003 160 425 167.6111584 425 177 C 425 186.3888416 392.54064800000003 194 352.5 194 C 312.45935199999997 194 280 186.3888416 280 177 Z" stroke-miterlimit="10"/></g><g transform="translate(-22,-86) scale(1,1)"><g><path fill="none" stroke="none"/><text fill="#000000" stroke="none" font-family="Arial" font-size="13px" font-style="normal" font-weight="bold" text-decoration="none" x="308.418701171875" y="184">Add  Employee</text></g></g><g transform="translate(-22,-86) scale(1,1)"><path fill="#C0C0C0" stroke="none" d="M 303 232 C 303 222.6111584 328.9674816 215 361 215 C 393.0325184 215 419 222.6111584 419 232 C 419 241.3888416 393.0325184 249 361 249 C 328.9674816 249 303 241.3888416 303 232 Z" opacity="0.2"/></g><g transform="translate(-22,-86) scale(1,1)"><path fill="#ffffff" stroke="none" d="M 296 225 C 296 215.6111584 321.9674816 208 354 208 C 386.0325184 208 412 215.6111584 412 225 C 412 234.3888416 386.0325184 242 354 242 C 321.9674816 242 296 234.3888416 296 225 Z"/></g><g transform="translate(-22,-86) scale(1,1)"><path fill="none" stroke="#000000" d="M 296 225 C 296 215.6111584 321.9674816 208 354 208 C 386.0325184 208 412 215.6111584 412 225 C 412 234.3888416 386.0325184 242 354 242 C 321.9674816 242 296 234.3888416 296 225 Z" stroke-miterlimit="10"/></g><g transform="translate(-22,-86) scale(1,1)"><g><path fill="none" stroke="none"/><text fill="#000000" stroke="none" font-family="Arial" font-size="13px" font-style="normal" font-weight="bold" text-decoration="none" x="320.0400390625" y="232">Add Rooms</text></g></g><g transform="translate(-22,-86) scale(1,1)"><path fill="#C0C0C0" stroke="none" d="M 303 280 C 303 270.6111584 326.9527632 263 356.5 263 C 386.0472368 263 410 270.6111584 410 280 C 410 289.3888416 386.0472368 297 356.5 297 C 326.9527632 297 303 289.3888416 303 280 Z" opacity="0.2"/></g><g transform="translate(-22,-86) scale(1,1)"><path fill="#ffffff" stroke="none" d="M 296 273 C 296 263.6111584 319.9527632 256 349.5 256 C 379.0472368 256 403 263.6111584 403 273 C 403 282.3888416 379.0472368 290 349.5 290 C 319.9527632 290 296 282.3888416 296 273 Z"/></g><g transform="translate(-22,-86) scale(1,1)"><path fill="none" stroke="#000000" d="M 296 273 C 296 263.6111584 319.9527632 256 349.5 256 C 379.0472368 256 403 263.6111584 403 273 C 403 282.3888416 379.0472368 290 349.5 290 C 319.9527632 290 296 282.3888416 296 273 Z" stroke-miterlimit="10"/></g><g transform="translate(-22,-86) scale(1,1)"><g><path fill="none" stroke="none"/><text fill="#000000" stroke="none" font-family="Arial" font-size="13px" font-style="normal" font-weight="bold" text-decoration="none" x="318.79638671875" y="280">Add Driver</text></g></g><g transform="translate(-22,-86) scale(1,1)"><path fill="#C0C0C0" stroke="none" d="M 271 328 C 271 318.6111584 311.9659408 311 362.5 311 C 413.0340592 311 454 318.6111584 454 328 C 454 337.3888416 413.0340592 345 362.5 345 C 311.9659408 345 271 337.3888416 271 328 Z" opacity="0.2"/></g><g transform="translate(-22,-86) scale(1,1)"><path fill="#ffffff" stroke="none" d="M 264 321 C 264 311.6111584 304.9659408 304 355.5 304 C 406.0340592 304 447 311.6111584 447 321 C 447 330.3888416 406.0340592 338 355.5 338 C 304.9659408 338 264 330.3888416 264 321 Z"/></g><g transform="translate(-22,-86) scale(1,1)"><path fill="none" stroke="#000000" d="M 264 321 C 264 311.6111584 304.9659408 304 355.5 304 C 406.0340592 304 447 311.6111584 447 321 C 447 330.3888416 406.0340592 338 355.5 338 C 304.9659408 338 264 330.3888416 264 321 Z" stroke-miterlimit="10"/></g><g transform="translate(-22,-86) scale(1,1)"><g><path fill="none" stroke="none"/><text fill="#000000" stroke="none" font-family="Arial" font-size="13px" font-style="normal" font-weight="bold" text-decoration="none" x="299.5009765625" y="328">Add Customer Info.</text></g></g><g transform="translate(-22,-86) scale(1,1)"><path fill="#C0C0C0" stroke="none" d="M 311 376 C 311 366.6111584 333.6096176 359 361.5 359 C 389.3903824 359 412 366.6111584 412 376 C 412 385.3888416 389.3903824 393 361.5 393 C 333.6096176 393 311 385.3888416 311 376 Z" opacity="0.2"/></g><g transform="translate(-22,-86) scale(1,1)"><path fill="#ffffff" stroke="none" d="M 304 369 C 304 359.6111584 326.6096176 352 354.5 352 C 382.3903824 352 405 359.6111584 405 369 C 405 378.3888416 382.3903824 386 354.5 386 C 326.6096176 386 304 378.3888416 304 369 Z"/></g><g transform="translate(-22,-86) scale(1,1)"><path fill="none" stroke="#000000" d="M 304 369 C 304 359.6111584 326.6096176 352 354.5 352 C 382.3903824 352 405 359.6111584 405 369 C 405 378.3888416 382.3903824 386 354.5 386 C 326.6096176 386 304 378.3888416 304 369 Z" stroke-miterlimit="10"/></g><g transform="translate(-22,-86) scale(1,1)"><g><path fill="none" stroke="none"/><text fill="#000000" stroke="none" font-family="Arial" font-size="13px" font-style="normal" font-weight="bold" text-decoration="none" x="328.845947265625" y="376">check_in</text></g></g><g transform="translate(-22,-86) scale(1,1)"><path fill="#C0C0C0" stroke="none" d="M 303 424 C 303 414.6111584 326.9527632 407 356.5 407 C 386.0472368 407 410 414.6111584 410 424 C 410 433.3888416 386.0472368 441 356.5 441 C 326.9527632 441 303 433.3888416 303 424 Z" opacity="0.2"/></g><g transform="translate(-22,-86) scale(1,1)"><path fill="#ffffff" stroke="none" d="M 296 417 C 296 407.6111584 319.9527632 400 349.5 400 C 379.0472368 400 403 407.6111584 403 417 C 403 426.3888416 379.0472368 434 349.5 434 C 319.9527632 434 296 426.3888416 296 417 Z"/></g><g transform="translate(-22,-86) scale(1,1)"><path fill="none" stroke="#000000" d="M 296 417 C 296 407.6111584 319.9527632 400 349.5 400 C 379.0472368 400 403 407.6111584 403 417 C 403 426.3888416 379.0472368 434 349.5 434 C 319.9527632 434 296 426.3888416 296 417 Z" stroke-miterlimit="10"/></g><g transform="translate(-22,-86) scale(1,1)"><g><path fill="none" stroke="none"/><text fill="#000000" stroke="none" font-family="Arial" font-size="13px" font-style="normal" font-weight="bold" text-decoration="none" x="318.425048828125" y="424">Check_out</text></g></g><g transform="translate(-22,-86) scale(1,1)"><path fill="#C0C0C0" stroke="none" d="M 255 502.5 C 255 493.9395856 305.8156752 487 368.5 487 C 431.1843248 487 482 493.9395856 482 502.5 C 482 511.0604144 431.1843248 518 368.5 518 C 305.8156752 518 255 511.0604144 255 502.5 Z" opacity="0.2"/></g><g transform="translate(-22,-86) scale(1,1)"><path fill="#ffffff" stroke="none" d="M 248 495.5 C 248 486.9395856 298.8156752 480 361.5 480 C 424.1843248 480 475 486.9395856 475 495.5 C 475 504.0604144 424.1843248 511 361.5 511 C 298.8156752 511 248 504.0604144 248 495.5 Z"/></g><g transform="translate(-22,-86) scale(1,1)"><path fill="none" stroke="#000000" d="M 248 495.5 C 248 486.9395856 298.8156752 480 361.5 480 C 424.1843248 480 475 486.9395856 475 495.5 C 475 504.0604144 424.1843248 511 361.5 511 C 298.8156752 511 248 504.0604144 248 495.5 Z" stroke-miterlimit="10"/></g><g transform="translate(-22,-86) scale(1,1)"><g><path fill="none" stroke="none"/><text fill="#000000" stroke="none" font-family="Arial" font-size="11px" font-style="normal" font-weight="bold" text-decoration="none" x="290.572021484375" y="501.5">Search Room availableor not</text></g></g><g transform="translate(-22,-86) scale(1,1)"><path fill="#C0C0C0" stroke="none" d="M 287 464 C 287 454.6111584 319.6832096 447 360 447 C 400.3167904 447 433 454.6111584 433 464 C 433 473.3888416 400.3167904 481 360 481 C 319.6832096 481 287 473.3888416 287 464 Z" opacity="0.2"/></g><g transform="translate(-22,-86) scale(1,1)"><path fill="#ffffff" stroke="none" d="M 280 457 C 280 447.6111584 312.6832096 440 353 440 C 393.3167904 440 426 447.6111584 426 457 C 426 466.3888416 393.3167904 474 353 474 C 312.6832096 474 280 466.3888416 280 457 Z"/></g><g transform="translate(-22,-86) scale(1,1)"><path fill="none" stroke="#000000" d="M 280 457 C 280 447.6111584 312.6832096 440 353 440 C 393.3167904 440 426 447.6111584 426 457 C 426 466.3888416 393.3167904 474 353 474 C 312.6832096 474 280 466.3888416 280 457 Z" stroke-miterlimit="10"/></g><g transform="translate(-22,-86) scale(1,1)"><g><path fill="none" stroke="none"/><text fill="#000000" stroke="none" font-family="Arial" font-size="13px" font-style="normal" font-weight="bold" text-decoration="none" x="308.931396484375" y="464">PickUp Service</text></g></g><g transform="translate(-22,-86) scale(1,1)"><path fill="#C0C0C0" stroke="none" d="M 255 576 C 255 566.6111584 298.2045168 559 351.5 559 C 404.7954832 559 448 566.6111584 448 576 C 448 585.3888416 404.7954832 593 351.5 593 C 298.2045168 593 255 585.3888416 255 576 Z" opacity="0.2"/></g><g transform="translate(-22,-86) scale(1,1)"><path fill="#ffffff" stroke="none" d="M 248 569 C 248 559.6111584 291.2045168 552 344.5 552 C 397.7954832 552 441 559.6111584 441 569 C 441 578.3888416 397.7954832 586 344.5 586 C 291.2045168 586 248 578.3888416 248 569 Z"/></g><g transform="translate(-22,-86) scale(1,1)"><path fill="none" stroke="#000000" d="M 248 569 C 248 559.6111584 291.2045168 552 344.5 552 C 397.7954832 552 441 559.6111584 441 569 C 441 578.3888416 397.7954832 586 344.5 586 C 291.2045168 586 248 578.3888416 248 569 Z" stroke-miterlimit="10"/></g><g transform="translate(-22,-86) scale(1,1)"><g><path fill="none" stroke="none"/><text fill="#000000" stroke="none" font-family="Arial" font-size="13px" font-style="normal" font-weight="bold" text-decoration="none" x="284.162353515625" y="576">Update Room Status</text></g></g><g transform="translate(-22,-86) scale(1,1)"><path fill="none" stroke="#000000" d="M 83 357 L 325 195" stroke-miterlimit="10"/></g><g transform="translate(-22,-86) scale(1,1)"><path fill="none" stroke="#000000" d="M 83 362 L 318 243" stroke-miterlimit="10"/></g><g transform="translate(-22,-86) scale(1,1)"><path fill="none" stroke="#000000" d="M 83 366 L 297 291" stroke-miterlimit="10"/></g><g transform="translate(-22,-86) scale(1,1)"><path fill="none" stroke="#000000" d="M 83 370 L 263 338" stroke-miterlimit="10"/></g><g transform="translate(-22,-86) scale(1,1)"><path fill="none" stroke="#000000" d="M 83 374 L 303 370" stroke-miterlimit="10"/></g><g transform="translate(-22,-86) scale(1,1)"><path fill="none" stroke="#000000" d="M 83 379 L 295 409" stroke-miterlimit="10"/></g><g transform="translate(-22,-86) scale(1,1)"><path fill="none" stroke="#000000" d="M 83 388 L 240 464 L 299 479" stroke-miterlimit="10"/></g><g transform="translate(-22,-86) scale(1,1)"><path fill="none" stroke="#000000" d="M 83 382 L 288 439" stroke-miterlimit="10"/></g><g transform="translate(-22,-86) scale(1,1)"><path fill="none" stroke="#000000" d="M 83 393 L 317 551" stroke-miterlimit="10"/></g><g transform="translate(-22,-86) scale(1,1)"><path fill="none" stroke="#000000" d="M 615 361 L 448 335" stroke-miterlimit="10"/></g><g transform="translate(-22,-86) scale(1,1)"><path fill="none" stroke="#000000" d="M 615 367 L 406 369" stroke-miterlimit="10"/></g><g transform="translate(-22,-86) scale(1,1)"><path fill="none" stroke="#000000" d="M 615 373 L 404 408" stroke-miterlimit="10"/></g><g transform="translate(-22,-86) scale(1,1)"><path fill="none" stroke="#000000" d="M 615 378 L 413 439" stroke-miterlimit="10"/></g><g transform="translate(-22,-86) scale(1,1)"><path fill="none" stroke="#000000" d="M 615 383 L 397 479" stroke-miterlimit="10"/></g><g transform="translate(-22,-86) scale(1,1)"><path fill="none" stroke="#000000" d="M 615 397 L 504 488 L 380 551" stroke-miterlimit="10"/></g><g transform="translate(-22,-86) scale(1,1)"><path fill="#ffffff" stroke="none" d="M 646.5507077414773 473.68 C 646.5507077414773 468.886167936 650.4365500664227 465 655.22998046875 465 C 660.0234108710773 465 663.9092531960227 468.886167936 663.9092531960227 473.68 C 663.9092531960227 478.473832064 660.0234108710773 482.36 655.22998046875 482.36 C 650.4365500664227 482.36 646.5507077414773 478.473832064 646.5507077414773 473.68 Z"/></g><g transform="translate(-22,-86) scale(1,1)"><path fill="none" stroke="#000000" d="M 646.5507077414773 473.68 C 646.5507077414773 468.886167936 650.4365500664227 465 655.22998046875 465 C 660.0234108710773 465 663.9092531960227 468.886167936 663.9092531960227 473.68 C 663.9092531960227 478.473832064 660.0234108710773 482.36 655.22998046875 482.36 C 650.4365500664227 482.36 646.5507077414773 478.473832064 646.5507077414773 473.68 Z" stroke-miterlimit="10"/></g><g transform="translate(-22,-86) scale(1,1)"><path fill="none" stroke="#000000" d="M 655.22998046875 482.36 L 655.22998046875 499.64" stroke-miterlimit="10"/></g><g transform="translate(-22,-86) scale(1,1)"><path fill="none" stroke="#000000" d="M 646.0401622869318 488.84 L 664.4197986505682 488.84" stroke-miterlimit="10"/></g><g transform="translate(-22,-86) scale(1,1)"><path fill="none" stroke="#000000" d="M 655.22998046875 499.64 L 642.4663441051136 517" stroke-miterlimit="10"/></g><g transform="translate(-22,-86) scale(1,1)"><path fill="none" stroke="#000000" d="M 655.22998046875 499.64 L 667.9936168323864 517" stroke-miterlimit="10"/></g><g transform="translate(-22,-86) scale(1,1)"><g><path fill="none" stroke="none"/><text fill="#000000" stroke="none" font-family="Arial" font-size="13px" font-style="normal" font-weight="bold" text-decoration="none" x="629.575927734375" y="537.5">Manager</text></g></g><g transform="translate(-22,-86) scale(1,1)"><path fill="none" stroke="#000000" d="M 654 463 L 652 408" stroke-miterlimit="10"/></g><g transform="translate(-22,-86) scale(1,1)"><path fill="#FFFFFF" stroke="none" d="M 661.1520901683334 428.00598024468417 L 652 408 L 644.3251407247591 428.6178693153596"/></g><g transform="translate(-22,-86) scale(1,1)"><path fill="none" stroke="#000000" d="M 661.1520901683334 428.00598024468417 L 652 408 L 644.3251407247591 428.6178693153596 L 661.1520901683334 428.00598024468417" stroke-miterlimit="10"/></g></g></svg>